<svg height="512pt" viewBox="0 -34 512.00002 512" width="512pt" xmlns="http://www.w3.org/2000/svg"><path d="m437.070312 353.988281c-4.207031 0-7.617187 3.410157-7.617187 7.613281v48.296876c0 10.597656-8.621094 19.21875-19.21875 19.21875h-375.785156c-10.597657 0-19.21875-8.621094-19.21875-19.21875v-247.289063c0-4.203125-3.410157-7.613281-7.617188-7.613281-4.203125 0-7.613281 3.410156-7.613281 7.613281v247.289063c0 18.992187 15.453125 34.445312 34.449219 34.445312h375.785156c18.996094 0 34.449219-15.453125 34.449219-34.445312v-48.296876c0-4.203124-3.410156-7.613281-7.613282-7.613281zm0 0"/><path d="m49.480469 75.136719c-3.902344-5.921875-13.390625-3.378907-13.925781 3.664062-.515626 6.738281 7.800781 10.738281 12.761718 6.148438 2.699219-2.496094 3.222656-6.753907 1.164063-9.8125zm0 0"/><path d="m101.257812 75.136719c-3.761718-5.710938-12.839843-3.589844-13.863281 3.105469-1.035156 6.746093 7.113281 11.324218 12.363281 7 2.96875-2.445313 3.660157-6.902344 1.5-10.105469zm0 0"/><path d="m75.367188 75.136719c-3.746094-5.6875-12.871094-3.613281-13.859376 3.105469-.992187 6.738281 7.089844 11.347656 12.359376 7 2.96875-2.445313 3.660156-6.902344 1.5-10.105469zm0 0"/><path d="m512 186.457031c0-8.761719-3.410156-16.996093-9.605469-23.191406l-57.710937-57.710937v-30.835938c0-18.992188-15.453125-34.445312-34.449219-34.445312h-48.410156c-5.113281-10.90625-18.738281-35.726563-38.390625-39.730469-6.941406-1.414063-17.578125-.746094-28.808594 10.484375-5.707031 5.707031-8.515625 13.09375-8.347656 21.957031.269531 14.472656 8.835937 33.207031 25.5 55.839844-2.472656 3.050781-4.410156 6.539062-5.667969 10.332031h-290.878906v-24.4375c0-10.597656 8.621093-19.21875 19.21875-19.21875h236.769531c4.207031 0 7.613281-3.410156 7.613281-7.613281 0-4.207031-3.40625-7.617188-7.613281-7.617188h-236.769531c-18.996094.003907-34.449219 15.457031-34.449219 34.453125v62.503906c0 4.207032 3.410156 7.617188 7.613281 7.617188 4.207031 0 7.617188-3.410156 7.617188-7.617188v-22.839843h287.1875l-9.351563 40.25c-2.578125 11.105469.695313 22.554687 8.757813 30.617187l89.289062 89.289063c6.195313 6.195312 14.433594 9.609375 23.195313 9.609375 5.363281 0 10.523437-1.285156 15.144531-3.695313v55.765625c0 4.203125 3.410156 7.613282 7.617187 7.613282 4.203126 0 7.613282-3.410157 7.613282-7.613282v-68.859375l57.710937-57.710937c6.191407-6.195313 9.605469-14.433594 9.605469-23.195313zm-206.605469-164.660156c7.792969-7.792969 13.207031-6.695313 14.988281-6.332031 9.503907 1.925781 18.589844 14.609375 24.285157 24.808594h-22.6875c-4.207031 0-7.613281 3.410156-7.613281 7.613281 0 4.207031 3.40625 7.613281 7.613281 7.613281h34.75.027343 53.476563c10.597656 0 19.21875 8.625 19.21875 19.222656v15.605469l-16.347656-16.355469c-8.066407-8.0625-19.507813-11.335937-30.617188-8.753906l-52.660156 12.234375c-2.082031.484375-4.085937 1.183594-6 2.046875-12.480469-16.976562-22.089844-34.164062-22.324219-46.796875-.089844-4.699219 1.148438-8.164063 3.890625-10.90625zm186.230469 177.085937-64.890625 64.890626c-3.320313 3.320312-7.734375 5.148437-12.425781 5.148437-4.695313 0-9.109375-1.828125-12.425782-5.148437l-89.292968-89.289063c-4.320313-4.320313-6.070313-10.449219-4.6875-16.402344l11.523437-49.617187c.015625-.070313 1.53125-5.75 2.164063-6.996094 1.332031 1.628906 2.691406 3.277344 4.09375 4.941406 6.121094 7.269532 12.195312 13.976563 17.628906 19.746094-2.539062 4.382812-3.898438 9.375-3.898438 14.578125 0 7.789063 3.03125 15.113281 8.542969 20.625 5.507813 5.507813 12.832031 8.542969 20.625 8.542969 7.789063 0 15.117188-3.035156 20.625-8.542969 5.507813-5.511719 8.542969-12.835937 8.542969-20.625 0-7.792969-3.035156-15.117187-8.542969-20.625-5.507812-5.511719-12.835937-8.542969-20.625-8.542969-5.175781 0-10.140625 1.34375-14.507812 3.855469-6.566407-6.992187-13.636719-14.9375-20.398438-23.230469l52.253907-12.140625c5.949218-1.378906 12.082031.371094 16.402343 4.691407l89.289063 89.289062c3.320312 3.320312 5.148437 7.730469 5.148437 12.425781 0 4.695313-1.828125 9.109375-5.144531 12.425781zm-128.222656-52.566406c1.46875 1.359375 3.324218 2.03125 5.179687 2.03125 2.042969 0 4.082031-.816406 5.582031-2.433594 2.863282-3.082031 2.683594-7.898437-.402343-10.761718-2.359375-2.191406-5.175781-4.894532-8.296875-7.996094 1.015625-.230469 2.054687-.363281 3.121094-.363281 3.722656 0 7.222656 1.453125 9.855468 4.085937 2.632813 2.632813 4.082032 6.132813 4.082032 9.855469s-1.449219 7.222656-4.082032 9.859375c-5.433594 5.433594-14.28125 5.433594-19.714844 0-3.394531-3.398438-4.667968-8.121094-3.820312-12.515625 4.964844 4.949219 8.183594 7.945313 8.496094 8.238281zm0 0"/><path d="m437.375 159.257812c-2.972656-2.972656-7.792969-2.972656-10.765625 0l-39.503906 39.5c-2.972657 2.976563-2.972657 7.796876 0 10.769532 1.488281 1.488281 3.4375 2.230468 5.386719 2.230468 1.945312 0 3.894531-.742187 5.382812-2.230468l39.5-39.503906c2.976562-2.972657 2.976562-7.792969 0-10.765626zm0 0"/><path d="m447.421875 180.070312-39.503906 39.5c-2.972657 2.976563-2.972657 7.796876 0 10.769532 1.488281 1.488281 3.4375 2.230468 5.386719 2.230468 1.945312 0 3.898437-.742187 5.382812-2.230468l39.5-39.5c2.976562-2.976563 2.976562-7.796875 0-10.769532-2.972656-2.972656-7.792969-2.972656-10.765625 0zm0 0"/><path d="m54.957031 276.707031v12.425781c0 8.03125 5.246094 14.847657 12.492188 17.234376l10.425781 79.46875c2.023438 15.414062 15.269531 27.035156 30.816406 27.035156h101.675782c15.546874 0 28.796874-11.621094 30.816406-27.035156l10.429687-79.46875c7.242188-2.382813 12.488281-9.203126 12.488281-17.234376v-12.425781c0-10.011719-8.144531-18.15625-18.152343-18.15625h-61.542969v-22.839843c0-13.714844-11.160156-24.875-24.875-24.875s-24.875 11.160156-24.875 24.875v22.839843h-61.542969c-10.011719.003907-18.15625 8.144531-18.15625 18.15625zm171.128907 107.148438c-1.03125 7.859375-7.789063 13.789062-15.71875 13.789062h-101.675782c-7.929687 0-14.683594-5.929687-15.714844-13.789062l-10.050781-76.570313h51.730469v10.660156c0 13.714844 11.160156 24.875 24.875 24.875s24.875-11.160156 24.875-24.875v-10.660156h51.726562zm19.863281-110.074219c1.613281 0 2.921875 1.3125 2.921875 2.925781v12.425781c0 1.613282-1.308594 2.925782-2.921875 2.925782h-61.546875v-18.277344zm-96.066407-38.070312c0-5.320313 4.328126-9.644532 9.648438-9.644532 5.316406 0 9.644531 4.324219 9.644531 9.644532v82.234374c0 5.320313-4.328125 9.644532-9.644531 9.644532-5.320312 0-9.648438-4.324219-9.648438-9.644532zm-15.226562 56.347656h-61.546875c-1.609375 0-2.921875-1.3125-2.921875-2.925782v-12.425781c0-1.613281 1.3125-2.925781 2.921875-2.925781h61.546875zm0 0"/><path d="m359.601562 327.789062-31.472656 31.472657c-2.972656 2.976562-2.972656 7.796875 0 10.769531 1.484375 1.488281 3.433594 2.230469 5.382813 2.230469s3.898437-.742188 5.382812-2.230469l31.476563-31.472656c2.972656-2.972656 2.972656-7.792969 0-10.769532-2.972656-2.972656-7.796875-2.972656-10.769532 0zm0 0"/><path d="m336.484375 326.199219c-2.582031-6.113281-11.488281-6.140625-14.0625 0-1.304687 3.117187-.308594 6.855469 2.355469 8.921875 2.394531 1.859375 5.742187 2.109375 8.394531.636718 3.308594-1.839843 4.789063-6.0625 3.3125-9.558593zm0 0"/><path d="m367.558594 361.246094c-6.460938 1.210937-8.222656 9.996094-2.863282 13.703125 2.648438 1.832031 6.214844 1.796875 8.828126-.085938 2.707031-1.949219 3.816406-5.585937 2.691406-8.71875-1.257813-3.496093-5-5.652343-8.65625-4.898437zm0 0"/><path d="m53.300781 152.964844h32.488281c4.203126 0 7.613282-3.410156 7.613282-7.613282 0-4.207031-3.410156-7.613281-7.613282-7.613281h-32.488281c-4.207031 0-7.613281 3.40625-7.613281 7.613281 0 4.203126 3.40625 7.613282 7.613281 7.613282zm0 0"/><path d="m119.292969 152.964844h105.585937c4.203125 0 7.613282-3.410156 7.613282-7.613282 0-4.207031-3.410157-7.613281-7.613282-7.613281h-105.585937c-4.207031 0-7.617188 3.40625-7.617188 7.613281 0 4.203126 3.410157 7.613282 7.617188 7.613282zm0 0"/><path d="m53.300781 188.5h32.488281c4.203126 0 7.613282-3.410156 7.613282-7.613281 0-4.207031-3.410156-7.613281-7.613282-7.613281h-32.488281c-4.207031 0-7.613281 3.40625-7.613281 7.613281 0 4.203125 3.40625 7.613281 7.613281 7.613281zm0 0"/><path d="m119.292969 188.5h105.585937c4.203125 0 7.613282-3.410156 7.613282-7.613281 0-4.207031-3.410157-7.613281-7.613282-7.613281h-105.585937c-4.207031 0-7.617188 3.40625-7.617188 7.613281 0 4.203125 3.410157 7.613281 7.617188 7.613281zm0 0"/></svg>