<svg height="511pt" viewBox="0 1 511 511.99896" width="511pt" xmlns="http://www.w3.org/2000/svg"><path d="m315.175781 352.417969c-3.960937-3.957031-9.222656-6.136719-14.820312-6.136719-5.597657 0-10.859375 2.179688-14.816407 6.136719l-46.503906 46.503906c-26.246094-13.71875-45.261718-25.21875-72.722656-52.679687-27.453125-27.449219-38.953125-46.460938-52.679688-72.703126l46.511719-46.511718c8.171875-8.171875 8.171875-21.464844 0-29.636719l-74.582031-74.585937c-8.171875-8.171876-21.464844-8.171876-29.636719 0l-20.050781 20.046874c-41.214844 41.21875-46.761719 107.890626-14.828125 178.34375 1.734375 3.824219 6.242187 5.519532 10.070313 3.789063 3.828124-1.738281 5.523437-6.246094 3.789062-10.070313-27.765625-61.265624-25.152344-118.765624 6.570312-155.699218l82.480469 82.480468-25.027343 25.027344c-2.34375 2.34375-2.898438 5.929688-1.375 8.875 15.152343 29.292969 27.375 50.785156 57.996093 81.40625 30.636719 30.632813 52.132813 42.851563 81.425781 57.996094 2.941407 1.523438 6.53125.964844 8.875-1.375l25.015626-25.019531 82.484374 82.484375c-26.640624 22.867187-64.371093 30.832031-107.207031 22.40625-48.179687-9.472656-99.160156-39.136719-143.554687-83.53125-22.445313-22.445313-41.074219-46.382813-55.371094-71.152344-2.101562-3.636719-6.753906-4.882812-10.394531-2.785156-3.636719 2.101562-4.882813 6.753906-2.78125 10.394531 14.960937 25.917969 34.402343 50.914063 57.789062 74.300781 46.507813 46.507813 100.265625 77.652344 151.375 87.703125 12.167969 2.390625 23.984375 3.574219 35.339844 3.574219 36.308594 0 67.914063-12.082031 91.15625-35.324219l20.046875-20.046875c8.171875-8.171875 8.171875-21.464844 0-29.636718zm-263.160156-204.183594 14.667969-14.671875c2.238281-2.238281 5.882812-2.238281 8.117187 0l74.585938 74.585938c2.238281 2.238281 2.238281 5.878906 0 8.117187l-14.671875 14.671875zm326.976563 297.636719-14.671876 14.667968-82.691406-82.691406 14.667969-14.671875c1.085937-1.082031 2.527344-1.679687 4.058594-1.679687 1.535156 0 2.976562.597656 4.058593 1.679687l74.578126 74.578125c2.238281 2.238282 2.238281 5.878906 0 8.117188zm0 0"/><path d="m479.453125 119.695312h-13.792969c-4.203125 0-7.609375 3.40625-7.609375 7.605469 0 4.203125 3.40625 7.609375 7.609375 7.609375h13.792969c9.453125 0 17.140625 7.6875 17.140625 17.140625v116.113281c0 9.453126-7.6875 17.144532-17.140625 17.144532h-15.824219c-4.203125 0-7.609375 3.40625-7.609375 7.605468v38.4375l-43.816406-43.816406c-1.425781-1.425781-3.359375-2.226562-5.378906-2.226562h-74.65625c-9.453125 0-17.144531-7.691406-17.144531-17.144532v-87.335937h22.421874c17.839844 0 32.355469-14.515625 32.355469-32.355469v-13.566406h70.496094c4.203125 0 7.609375-3.40625 7.609375-7.605469 0-4.203125-3.40625-7.609375-7.609375-7.609375h-70.496094v-87.335937c0-17.839844-14.515625-32.355469-32.355469-32.355469h-147.289062c-17.839844 0-32.355469 14.515625-32.355469 32.355469v116.117187c0 17.84375 14.515625 32.355469 32.355469 32.355469h6.878906v49.199219c0 3.074218 1.855469 5.851562 4.695313 7.027344.941406.390624 1.929687.578124 2.910156.578124 1.980469 0 3.925781-.773437 5.382813-2.226562l54.574218-54.578125h35.210938v87.335937c0 17.84375 14.519531 32.359376 32.359375 32.359376h71.503906l54.578125 54.574218c1.457031 1.457032 3.402344 2.230469 5.382812 2.230469.980469 0 1.964844-.191406 2.90625-.578125 2.84375-1.179688 4.699219-3.953125 4.699219-7.03125v-49.195312h8.214844c17.84375 0 32.359375-14.515626 32.359375-32.359376v-116.113281c0-17.839843-14.515625-32.355469-32.359375-32.355469zm-218.003906 45.921876c-2.019531 0-3.953125.800781-5.382813 2.226562l-43.816406 43.816406v-38.4375c0-4.199218-3.402344-7.605468-7.605469-7.605468h-14.488281c-9.449219 0-17.140625-7.691407-17.140625-17.140626v-116.121093c0-9.453125 7.691406-17.140625 17.140625-17.140625h147.289062c9.449219 0 17.140626 7.691406 17.140626 17.140625v116.117187c0 9.453125-7.691407 17.140625-17.140626 17.140625h-75.996093zm0 0"/><path d="m403.4375 235.226562c-4.804688 0-8.714844 3.960938-8.714844 8.828126 0 4.867187 3.910156 8.824218 8.714844 8.824218 4.785156 0 8.828125-4.039062 8.828125-8.824218 0-4.785157-4.042969-8.828126-8.828125-8.828126zm0 0"/><path d="m429.101562 188.125c0-5.242188-2.367187-10.003906-6.65625-13.40625-4.433593-3.507812-10.5-5.363281-17.535156-5.363281-15.273437 0-22.386718 9.109375-22.386718 15.265625 0 4.265625 3.558593 6.566406 6.90625 6.566406 2.636718 0 3.699218-1.566406 4.929687-3.382812 1.691406-2.492188 3.605469-5.316407 10.210937-5.316407 4.851563 0 10.039063 1.984375 10.039063 7.554688 0 4.933593-4.128906 8.101562-7.769531 10.898437-.800782.617188-1.5625 1.195313-2.242188 1.773438-3.542968 3.058594-7.613281 7.78125-7.613281 17.269531 0 5.828125 1.542969 7.699219 6.339844 7.699219 3.101562 0 6.792969-.824219 6.792969-4.761719 0-5.683594 0-9.113281 6.28125-14.023437 8.429687-6.554688 12.703124-13.542969 12.703124-20.773438zm0 0"/><path d="m253.78125 80.132812v-16.042968c0-5.304688-1.667969-9.3125-4.960938-11.921875-2.902343-2.296875-6.976562-3.457031-12.113281-3.457031-14.113281 0-17.074219 8.363281-17.074219 15.378906v16.042968c0 7.019532 2.960938 15.382813 17.074219 15.382813 5.136719 0 9.210938-1.164063 12.113281-3.460937 3.289063-2.609376 4.960938-6.617188 4.960938-11.921876zm-22.484375-16.042968c0-3.515625 1.820313-5.296875 5.410156-5.296875 3.613281 0 5.523438 1.832031 5.523438 5.296875v16.042968c0 3.464844-1.910157 5.296876-5.523438 5.296876-3.589843 0-5.410156-1.78125-5.410156-5.296876zm0 0"/><path d="m300.679688 88.550781c-2.898438-2.296875-6.972657-3.460937-12.109376-3.460937-14.113281 0-17.078124 8.367187-17.078124 15.382812v16.042969c0 7.015625 2.964843 15.382813 17.078124 15.382813 5.136719 0 9.210938-1.164063 12.109376-3.460938 3.292968-2.605469 4.964843-6.617188 4.964843-11.921875v-16.042969c0-5.304687-1.671875-9.316406-4.964843-11.921875zm-17.519532 11.921875c0-3.515625 1.820313-5.296875 5.410156-5.296875 3.613282 0 5.519532 1.832031 5.519532 5.296875v16.042969c0 3.464844-1.910156 5.296875-5.519532 5.296875-3.589843 0-5.410156-1.78125-5.410156-5.296875zm0 0"/><path d="m288.808594 50.191406c0-3.65625-3.511719-6.117187-6.792969-6.117187-2.222656 0-3.996094 1.058593-4.859375 2.898437l-39.660156 81.464844c-.367188.734375-.578125 1.535156-.578125 2.203125 0 2.953125 2.59375 6.113281 6.457031 6.113281 2.261719 0 4.402344-1.191406 5.195312-2.894531l39.773438-81.464844c.382812-.769531.464844-1.621093.464844-2.203125zm0 0"/></svg>