<svg height="512pt" viewBox="0 -1 512.00002 512" width="512pt" xmlns="http://www.w3.org/2000/svg"><path d="m164.042969 95.402344 10.414062 79.359375c2.019531 15.390625 15.25 27 30.773438 27h101.539062c15.523438 0 28.753907-11.609375 30.773438-27l3.300781-25.140625c.546875-4.164063-2.386719-7.980469-6.550781-8.527344-4.15625-.546875-7.980469 2.386719-8.527344 6.550781l-3.300781 25.136719c-1.03125 7.851562-7.777344 13.769531-15.695313 13.769531h-101.539062c-7.914063 0-14.664063-5.917969-15.695313-13.769531l-10.03125-76.464844h51.65625v10.648438c0 13.695312 11.144532 24.839844 24.839844 24.839844s24.839844-11.144532 24.839844-24.839844v-10.648438h51.65625l-3.492188 26.621094c-.546875 4.164062 2.386719 7.984375 6.550782 8.53125.335937.042969.667968.0625 1 .0625 3.757812 0 7.027343-2.785156 7.527343-6.613281l3.875-29.515625c7.230469-2.382813 12.46875-9.195313 12.46875-17.214844v-12.40625c0-9.996094-8.128906-18.128906-18.125-18.128906h-61.460937v-22.8125c0-13.695313-11.140625-24.839844-24.839844-24.839844-13.695312 0-24.839844 11.144531-24.839844 24.839844v22.8125h-61.460937c-9.996094 0-18.125 8.132812-18.125 18.128906v12.40625c0 8.023438 5.238281 14.832031 12.46875 17.214844zm178.257812-32.542969c1.609375 0 2.921875 1.3125 2.921875 2.921875v12.410156c0 1.609375-1.3125 2.917969-2.921875 2.917969h-61.460937v-18.25zm-95.933593-38.019531c0-5.308594 4.320312-9.632813 9.632812-9.632813s9.632812 4.324219 9.632812 9.632813v82.125c0 5.308594-4.320312 9.628906-9.632812 9.628906s-9.632812-4.320312-9.632812-9.628906zm-79.585938 40.941406c0-1.609375 1.308594-2.921875 2.917969-2.921875h61.460937v18.25h-61.460937c-1.609375 0-2.917969-1.308594-2.917969-2.917969zm0 0"/><path d="m415.148438 214.851562c-38.910157 0-70.5625 31.652344-70.5625 70.5625 0 38.910157 31.652343 70.5625 70.5625 70.5625 38.910156 0 70.5625-31.652343 70.5625-70.5625 0-38.910156-31.652344-70.5625-70.5625-70.5625zm0 125.917969c-30.523438 0-55.355469-24.832031-55.355469-55.355469 0-30.523437 24.832031-55.355468 55.355469-55.355468 30.523437 0 55.355468 24.832031 55.355468 55.355468 0 30.523438-24.832031 55.355469-55.355468 55.355469zm0 0"/><path d="m208.859375 293.027344c0-25.433594-20.695313-46.128906-46.132813-46.128906h-50.691406v-27.585938c0-4.199219-3.40625-7.605469-7.605468-7.605469-15.09375 0-27.375-12.277343-27.375-27.371093s12.28125-27.371094 27.375-27.371094 27.371093 12.277344 27.371093 27.371094c0 4.199218 3.40625 7.601562 7.605469 7.601562s7.605469-3.402344 7.605469-7.601562c0-23.480469-19.101563-42.582032-42.582031-42.582032-23.480469 0-42.582032 19.101563-42.582032 42.582032 0 20.882812 15.113282 38.304687 34.976563 41.898437v20.664063h-50.695313c-25.433594 0-46.128906 20.691406-46.128906 46.128906s20.695312 46.132812 46.128906 46.132812h116.597656c25.4375 0 46.132813-20.695312 46.132813-46.132812zm-46.132813 30.921875h-116.597656c-17.050781 0-30.921875-13.871094-30.921875-30.921875 0-17.050782 13.871094-30.921875 30.921875-30.921875h116.597656c17.050782 0 30.925782 13.871093 30.925782 30.921875 0 17.050781-13.875 30.921875-30.925782 30.921875zm0 0"/><path d="m415.148438 188.5625c-53.402344 0-96.851563 43.449219-96.851563 96.851562 0 53.402344 43.449219 96.851563 96.851563 96.851563 53.402343 0 96.851562-43.449219 96.851562-96.851563 0-53.402343-43.445312-96.851562-96.851562-96.851562zm0 178.496094c-45.019532 0-81.644532-36.628906-81.644532-81.644532 0-45.015624 36.625-81.644531 81.644532-81.644531 45.019531 0 81.644531 36.625 81.644531 81.644531 0 45.019532-36.625 81.644532-81.644531 81.644532zm0 0"/><path d="m421.78125 278.125v-18.730469c3.125.492188 5.226562 1.558594 6.921875 2.417969 1.460937.738281 2.613281 1.324219 3.90625 1.324219 4.125 0 5.914063-5.046875 5.914063-7.625 0-5.496094-8.601563-8.039063-16.742188-8.597657v-1.132812c0-2.878906-2.339844-5.21875-5.21875-5.21875-2.875 0-5.21875 2.339844-5.21875 5.21875v1.464844c-12.4375 2.078125-19.566406 9.675781-19.566406 20.867187 0 13.757813 11.253906 18.082031 19.566406 21.210938v21.019531c-4.582031-.871094-7.5625-3.183594-9.96875-5.054688-1.964844-1.519531-3.511719-2.722656-5.285156-2.722656-3.558594 0-6.234375 4.6875-6.234375 7.726563 0 5.742187 8.8125 12.628906 21.488281 13.417969v.519531c0 1.609375.742188 3.105469 2.019531 4.09375.757813.714843 1.855469 1.125 3.015625 1.125.027344 0 .054688-.003907.105469-.007813l.078125.007813c2.878906 0 5.21875-2.339844 5.21875-5.21875v-1.105469c11.863281-2.535156 18.664062-10.742188 18.664062-22.546875 0-13.363281-8.949218-18.703125-18.664062-22.453125zm5.128906 23.839844c0 3.59375-1.773437 6.242187-5.128906 7.683594v-15.894532c3.542969 2.09375 5.128906 4.640625 5.128906 8.210938zm-15.566406-41.945313v14.128907c-3.179688-1.457032-6.03125-3.40625-6.03125-7.421876 0-3.222656 2.082031-5.539062 6.03125-6.707031zm0 0"/><path d="m325.480469 361.695312-27.613281 27.613282c-9.632813-7.679688-21.398438-12.773438-34.261719-14.226563v-156.785156c0-4.199219-3.40625-7.601563-7.605469-7.601563s-7.605469 3.402344-7.605469 7.601563v156.785156c-12.863281 1.453125-24.632812 6.550781-34.261719 14.230469l-27.617187-27.617188c-2.96875-2.972656-7.78125-2.972656-10.75 0-2.972656 2.96875-2.972656 7.78125 0 10.75l27.613281 27.617188c-9.167968 11.5-14.664062 26.046875-14.664062 41.867188 0 6.230468.851562 12.40625 2.535156 18.351562 1.144531 4.042969 5.351562 6.390625 9.386719 5.246094 4.039062-1.140625 6.390625-5.34375 5.246093-9.386719-1.300781-4.597656-1.960937-9.378906-1.960937-14.210937 0-28.71875 23.363281-52.082032 52.078125-52.082032 28.71875 0 52.078125 23.363282 52.078125 52.082032 0 28.714843-23.359375 52.078124-52.078125 52.078124-15.503906 0-30.09375-6.839843-40.027344-18.761718-2.691406-3.230469-7.484375-3.664063-10.710937-.976563-3.226563 2.6875-3.664063 7.484375-.972657 10.710938 12.832032 15.402343 31.683594 24.234375 51.710938 24.234375 37.101562 0 67.289062-30.183594 67.289062-67.285156 0-15.820313-5.5-30.367188-14.667968-41.867188l27.613281-27.613281c2.96875-2.972657 2.96875-7.785157 0-10.753907s-7.785156-2.96875-10.753906 0zm0 0"/></svg>