<svg height="496pt" viewBox="0 0 496 496" width="496pt" xmlns="http://www.w3.org/2000/svg"><path d="m383.480469 233.3125c-1.824219-12.96875-8.816407-24.265625-18.855469-31.753906 2.207031-5.589844 3.375-11.480469 3.375-17.558594 0-26.472656-21.527344-48-48-48-.953125 0-1.871094.105469-2.816406.160156-6.648438-18.9375-24.65625-32.160156-45.183594-32.160156-8.542969 0-16.6875 2.3125-23.953125 6.527344-7.136719-4.144532-15.367187-6.527344-24.046875-6.527344-20.527344 0-38.535156 13.222656-45.183594 32.160156-.945312-.054687-1.863281-.160156-2.816406-.160156-26.472656 0-48 21.527344-48 48 0 6.078125 1.167969 11.96875 3.375 17.558594-10.039062 7.496094-17.03125 18.785156-18.855469 31.753906-7.015625 2.320312-12.566406 7.742188-15.046875 14.6875h-33.472656v8c0 50.191406 29.113281 93.617188 71.28125 114.574219l7.648438 103.203125c.910156 12.460937 11.429687 22.222656 23.925781 22.222656h162.28125c12.496093 0 23.015625-9.761719 23.933593-22.222656l7.648438-103.203125c42.167969-20.957031 71.28125-64.382813 71.28125-114.574219v-8h-33.472656c-2.480469-6.953125-8.03125-12.367188-15.046875-14.6875zm-239.480469-49.3125c0-17.648438 14.351562-32 32-32 10.160156 0 19.496094 4.664062 25.601562 12.800781l12.796876-9.609375c-5.261719-7-12.152344-12.222656-19.917969-15.457031 4.878906-11.710937 16.449219-19.734375 29.519531-19.734375 15.160156 0 28.34375 10.761719 31.359375 25.59375l15.679687-3.1875c-1.566406-7.734375-5.078124-14.664062-9.824218-20.503906 3.433594-1.222656 7.050781-1.902344 10.785156-1.902344 13.070312 0 24.640625 8.023438 29.519531 19.734375-7.765625 3.234375-14.65625 8.457031-19.917969 15.457031l12.796876 9.609375c6.113281-8.136719 15.441406-12.800781 25.601562-12.800781 17.648438 0 32 14.351562 32 32 0 3.503906-.710938 6.878906-1.816406 10.144531-4.480469-1.390625-9.246094-2.144531-14.183594-2.144531v16c14.863281 0 27.289062 10.238281 30.863281 24h-158.863281v-8h-16v8h-62.863281c3.574219-13.761719 16-24 30.863281-24v-16c-4.9375 0-9.703125.753906-14.183594 2.144531-1.105468-3.265625-1.816406-6.640625-1.816406-10.144531zm-24 64h256c4.40625 0 8 3.59375 8 8s-3.59375 8-8 8h-256c-4.40625 0-8-3.59375-8-8s3.59375-8 8-8zm88 104v16h-16c-14.640625 0-28.632812-2.839844-41.457031-7.96875l-5.925781-80.03125h206.773437l-5.925781 80.03125c-12.832032 5.128906-26.824219 7.96875-41.464844 7.96875h-16v-16zm64 16v16h-48v-16zm-191.71875-104h17.191406c3.3125 9.289062 12.113282 16 22.527344 16h8.574219l5.304687 71.609375c-30.109375-18.378906-50.957031-50.488281-53.597656-87.609375zm258.664062 184h-34.945312v16h33.761719l-.640625 8.59375c-.304688 4.148438-3.808594 7.40625-7.976563 7.40625h-162.289062c-4.167969 0-7.671875-3.257812-7.984375-7.40625l-.632813-8.59375h129.761719v-16h-130.945312l-5.222657-70.550781c12.648438 4.191406 26.128907 6.550781 40.167969 6.550781h16v16h80v-16h16c14.039062 0 27.519531-2.359375 40.167969-6.550781zm23.175782-96.390625 5.304687-71.609375h8.574219c10.414062 0 19.214844-6.710938 22.527344-16h17.191406c-2.640625 37.121094-23.488281 69.230469-53.597656 87.609375zm0 0"/><path d="m312 176h16v16h-16zm0 0"/><path d="m168 168h16v16h-16zm0 0"/><path d="m232 152h16v16h-16zm0 0"/><path d="m272 200h16v16h-16zm0 0"/><path d="m320 64c17.648438 0 32-14.351562 32-32s-14.351562-32-32-32-32 14.351562-32 32 14.351562 32 32 32zm0-48c8.824219 0 16 7.175781 16 16s-7.175781 16-16 16-16-7.175781-16-16 7.175781-16 16-16zm0 0"/><path d="m64 136c17.648438 0 32-14.351562 32-32s-14.351562-32-32-32-32 14.351562-32 32 14.351562 32 32 32zm0-48c8.824219 0 16 7.175781 16 16s-7.175781 16-16 16-16-7.175781-16-16 7.175781-16 16-16zm0 0"/><path d="m464 168c-17.648438 0-32 14.351562-32 32s14.351562 32 32 32 32-14.351562 32-32-14.351562-32-32-32zm0 48c-8.824219 0-16-7.175781-16-16s7.175781-16 16-16 16 7.175781 16 16-7.175781 16-16 16zm0 0"/><path d="m424 136c13.230469 0 24-10.769531 24-24s-10.769531-24-24-24-24 10.769531-24 24 10.769531 24 24 24zm0-32c4.40625 0 8 3.59375 8 8s-3.59375 8-8 8-8-3.59375-8-8 3.59375-8 8-8zm0 0"/><path d="m24 184c-13.230469 0-24 10.769531-24 24s10.769531 24 24 24 24-10.769531 24-24-10.769531-24-24-24zm0 32c-4.40625 0-8-3.59375-8-8s3.59375-8 8-8 8 3.59375 8 8-3.59375 8-8 8zm0 0"/><path d="m168 72c13.230469 0 24-10.769531 24-24s-10.769531-24-24-24-24 10.769531-24 24 10.769531 24 24 24zm0-32c4.40625 0 8 3.59375 8 8s-3.59375 8-8 8-8-3.59375-8-8 3.59375-8 8-8zm0 0"/><path d="m344 88h16v16h-16zm0 0"/><path d="m88 32h16v16h-16zm0 0"/><path d="m72 160h16v16h-16zm0 0"/><path d="m392 192h16v16h-16zm0 0"/></svg>