<svg height="496pt" viewBox="-59 0 496 496" width="496pt" xmlns="http://www.w3.org/2000/svg"><path d="m236.953125 168c0 4.417969-3.582031 8-8 8s-8-3.582031-8-8 3.582031-8 8-8 8 3.582031 8 8zm0 0"/><path d="m156.953125 168c0 4.417969-3.582031 8-8 8s-8-3.582031-8-8 3.582031-8 8-8 8 3.582031 8 8zm0 0"/><path d="m188.953125 224c-8.824219 0-16-7.175781-16-16h-16c0 17.648438 14.351563 32 32 32s32-14.351562 32-32h-16c0 8.824219-7.175781 16-16 16zm0 0"/><path d="m366.230469 292.496094 11.671875-17.503906-11.015625-2.753907c-34.101563-8.527343-57.933594-39.046875-57.933594-74.207031v-78.03125c0-66.167969-53.832031-120-120-120s-120 53.832031-120 120v78.03125c0 35.167969-23.832031 65.679688-57.9375 74.207031l-11.015625 2.753907 11.671875 17.503906c8.089844 12.128906 18.625 22.089844 30.921875 29.464844-18.042969 9.589843-29.640625 28.269531-29.640625 49.328124v60.710938h16v64h320v-64h16v-60.710938c0-21.058593-11.601563-39.738281-29.640625-49.320312 12.296875-7.382812 22.839844-17.34375 30.917969-29.472656zm-177.277344-276.496094c57.34375 0 104 46.65625 104 104v24.207031c-4.769531-3.605469-10.28125-6.246093-16.367187-7.429687-1.515626-18.496094-8.714844-35.402344-19.921876-48.898438 2.75-4.816406 4.289063-10.253906 4.289063-15.878906 0-17.648438-14.351563-32-32-32-5.328125 0-10.5625 1.367188-15.199219 3.902344-5.96875-7.367188-15.050781-11.902344-24.800781-11.902344-9.753906 0-18.832031 4.535156-24.800781 11.902344-4.640625-2.535156-9.871094-3.902344-15.199219-3.902344-17.648437 0-32 14.351562-32 32 0 5.625 1.535156 11.0625 4.285156 15.871094-11.207031 13.503906-18.40625 30.410156-19.917969 48.898437-6.089843 1.183594-11.601562 3.824219-16.367187 7.429688v-24.199219c0-57.34375 46.65625-104 104-104zm87.664063 182.632812c.167968-2.199218.335937-4.394531.335937-6.632812v-38.527344c9.285156 3.3125 16 12.113282 16 22.527344 0 10.535156-6.875 19.414062-16.335937 22.632812zm12.535156 192.878907c7.617187 7.617187 11.800781 17.726562 11.800781 28.488281s-4.183594 20.871094-11.800781 28.488281l-12.199219 12.199219v19.3125h-16v-88h-144v88h-16v-19.3125l-12.199219-12.199219c-7.617187-7.617187-11.800781-17.726562-11.800781-28.488281s4.183594-20.871094 11.800781-28.488281c7.863282-7.863281 12.199219-18.328125 12.199219-29.457031v-42.679688l16-5v61.625h144v-61.617188l16 5v42.679688c0 11.121094 4.335937 21.585938 12.199219 29.449219zm-156.199219 48.488281h80v-16h-80v-16h112v16h-16v16h16v40h-112zm112-80h-112v-50.617188l13.765625-4.304687 42.234375 42.234375 42.230469-42.234375 13.769531 4.304687zm-24-67.3125-32 32-32-32v-18.800781c9.933594 3.898437 20.703125 6.113281 32 6.113281 11.292969 0 22.0625-2.214844 32-6.113281zm-32-28.6875c-39.707031 0-72-32.304688-72-72v-48h144v48c0 39.695312-32.296875 72-72 72zm-87.664063-65.367188c-9.464843-3.21875-16.335937-12.097656-16.335937-22.632812 0-10.414062 6.710937-19.214844 16-22.527344v38.527344c0 2.238281.167969 4.433594.335937 6.632812zm31.664063-126.632812c0-8.824219 7.175781-16 16-16 4.292969 0 8.292969 1.753906 11.351563 4.878906-9.847657 3.402344-18.929688 8.449219-26.847657 14.898438-.296875-1.234375-.503906-2.488282-.503906-3.777344zm111.488281 3.785156c-7.921875-6.457031-17-11.496094-26.847656-14.898437 3.0625-3.132813 7.0625-4.886719 11.359375-4.886719 8.824219 0 16 7.175781 16 16 0 1.289062-.210937 2.550781-.511719 3.785156zm-55.488281-3.785156c34.199219 0 62.839844 23.984375 70.144531 56h-14.144531v-16h-16v16h-16v-16h-16v16h-16v-16h-16v16h-16v-16h-16v16h-14.144531c7.304687-32.015625 35.945312-56 70.144531-56zm-14.25-14.734375c2.625-5.546875 8.105469-9.265625 14.25-9.265625s11.621094 3.71875 14.246094 9.265625c-4.648438-.769531-9.382813-1.265625-14.246094-1.265625s-9.601563.496094-14.25 1.265625zm-149.183594 227.160156c32.601563-12.433593 55.410157-42.242187 58.90625-77.058593 5.613281 4.402343 12.375 7.273437 19.8125 8.160156 5.792969 20.839844 19.035157 38.578125 36.714844 50.136718v24.457032l-77.65625 24.261718c-15.410156-6.007812-28.457031-16.328124-37.777344-29.957031zm3.433594 86.863281c0-17.59375 11.277344-32.9375 28.0625-38.175781l27.9375-8.738281v37.679688c0 6.847656-2.671875 13.296874-7.511719 18.144531-9.679687 9.679687-15.34375 22.273437-16.289062 35.800781h-32.199219zm16 60.710938h17.3125c2.253906 10.449219 7.429687 20.054688 15.167969 27.800781l7.519531 7.511719v12.6875h-40zm288 48h-40v-12.6875l7.511719-7.511719c7.742187-7.738281 12.910156-17.34375 15.167968-27.800781h17.320313zm16-108.710938v44.710938h-32.191406c-.945313-13.527344-6.609375-26.121094-16.289063-35.800781-4.847656-4.847657-7.519531-11.289063-7.519531-18.144531v-37.679688l27.933594 8.730469c16.785156 5.246093 28.066406 20.589843 28.066406 38.183593zm-34.34375-56.90625-77.65625-24.261718v-24.457032c17.679687-11.558593 30.910156-29.304687 36.710937-50.136718 7.433594-.886719 14.199219-3.757813 19.816407-8.160156 3.496093 34.824218 26.304687 64.625 58.902343 77.058593-9.320312 13.628907-22.367187 23.949219-37.773437 29.957031zm0 0"/></svg>