<svg height="496pt" viewBox="-52 0 496 496" width="496pt" xmlns="http://www.w3.org/2000/svg"><path d="m312 320h-5.480469c.894531-2.511719 1.472657-5.183594 1.472657-8 0-13.230469-10.769532-24-24-24h-11.992188v-16h16c8.824219 0 16-7.175781 16-16v-24c0-55.871094 17.367188-109.28125 50.222656-154.464844l16.585938-22.808594-5.609375-4.796874c-2.367188-2.042969-59.007813-49.929688-125.199219-49.929688s-122.832031 47.886719-125.199219 49.929688l-5.609375 4.804687 16.585938 22.808594c32.855468 45.175781 50.222656 98.585937 50.222656 154.457031v24c0 8.824219 7.175781 16 16 16h16v16h-11.320312l-32 32h-100.679688v-8c0-8.824219-7.175781-16-16-16h-32c-8.824219 0-16 7.175781-16 16v136c0 8.824219 7.175781 16 16 16h32c8.824219 0 16-7.175781 16-16v-8h68.6875l24 24h51.3125v32h64v-32h40c13.230469 0 24-10.769531 24-24 0-6.167969-2.40625-11.742188-6.238281-16 3.839843-4.257812 6.238281-9.832031 6.238281-16s-2.40625-11.742188-6.238281-16c3.839843-4.257812 6.238281-9.832031 6.238281-16s-2.40625-11.742188-6.238281-16c3.839843-4.257812 6.238281-9.832031 6.238281-16 0-13.230469-10.769531-24-24-24zm8 24c0 4.40625-3.585938 8-8 8h-88c-3.441406 0-6.3125-2.199219-7.441406-5.246094l10.746094-10.753906h84.695312c4.414062 0 8 3.59375 8 8zm0 32c0 4.40625-3.585938 8-8 8h-88c-4.414062 0-8-3.59375-8-8s3.585938-8 8-8h88c4.414062 0 8 3.59375 8 8zm0 32c0 4.40625-3.585938 8-8 8h-88c-4.414062 0-8-3.59375-8-8s3.585938-8 8-8h88c4.414062 0 8 3.59375 8 8zm-181.289062-339.871094-7.703126-10.59375c9.488282-7.09375 29.855469-20.96875 55.34375-30.726562 9.089844 18.511718 16.519532 37.863281 21.9375 57.75l15.4375-4.199219c-5.480468-20.167969-12.957031-39.808594-22.054687-58.640625 12.144531-3.460938 25.070313-5.71875 38.328125-5.71875s26.183594 2.257812 38.335938 5.710938c-9.097657 18.847656-16.574219 38.496093-22.054688 58.640624l15.4375 4.199219c5.402344-19.863281 12.832031-39.214843 21.929688-57.75 25.488281 9.757813 45.863281 23.632813 55.34375 30.726563l-7.703126 10.59375c-33.28125 45.765625-51.394531 99.519531-52.976562 155.871094h-96.625c-1.589844-56.34375-19.695312-110.105469-52.976562-155.863282zm53.289062 171.871094h96l.007812 16h-96.007812zm32 32h32v16h-32zm-208 176v-136h32v136zm123.3125-24h-75.304688l-.007812-88h107.304688l32-32h80.6875c4.414062 0 8 3.59375 8 8s-3.585938 8-8 8h-63.3125l-58.34375 58.34375 11.3125 11.3125 31.261718-31.265625c.425782.554687.867188 1.097656 1.328125 1.609375-3.839843 4.257812-6.238281 9.832031-6.238281 16s2.40625 11.742188 6.238281 16c-3.839843 4.257812-6.238281 9.832031-6.238281 16s2.40625 11.742188 6.238281 16c-3.839843 4.257812-6.238281 9.832031-6.238281 16 0 2.816406.574219 5.488281 1.472656 8h-38.160156zm116.6875 56h-32v-16h32zm56-32h-88c-4.414062 0-8-3.59375-8-8s3.585938-8 8-8h88c4.414062 0 8 3.59375 8 8s-3.585938 8-8 8zm0 0"/><path d="m321.734375 68.183594-13.292969-8.902344c-25.167968 37.558594-41.503906 79.101562-48.5625 123.460938l15.800782 2.515624c6.679687-42.058593 22.175781-81.441406 46.054687-117.074218zm0 0"/><path d="m273.617188 200.832031-15.90625-1.664062c-.566407 5.449219-1 10.910156-1.285157 16.417969l15.980469.828124c.273438-5.214843.671875-10.414062 1.210938-15.582031zm0 0"/><path d="m207.59375 216.414062 15.980469-.828124c-.285157-5.507813-.71875-10.96875-1.285157-16.417969l-15.90625 1.664062c.539063 5.167969.9375 10.367188 1.210938 15.582031zm0 0"/><path d="m220.128906 182.742188c-7.058594-44.351563-23.394531-85.894532-48.5625-123.460938l-13.292968 8.902344c23.871093 35.632812 39.375 75.015625 46.0625 117.074218zm0 0"/><path d="m360 144h16v16h-16zm0 0"/><path d="m344 160h16v16h-16zm0 0"/><path d="m360 176h16v16h-16zm0 0"/><path d="m376 160h16v16h-16zm0 0"/><path d="m80 200h16v16h-16zm0 0"/><path d="m64 216h16v16h-16zm0 0"/><path d="m80 232h16v16h-16zm0 0"/><path d="m96 216h16v16h-16zm0 0"/><path d="m64 32h16v16h-16zm0 0"/><path d="m48 48h16v16h-16zm0 0"/><path d="m64 64h16v16h-16zm0 0"/><path d="m80 48h16v16h-16zm0 0"/><path d="m360 296h16v16h-16zm0 0"/><path d="m344 312h16v16h-16zm0 0"/><path d="m360 328h16v16h-16zm0 0"/><path d="m376 312h16v16h-16zm0 0"/></svg>