<svg height="496pt" viewBox="0 0 496 496" width="496pt" xmlns="http://www.w3.org/2000/svg"><path d="m184 168c0-33.488281 14.296875-64.625 36.433594-79.328125l-8.859375-13.328125c-26.878907 17.855469-43.574219 53.359375-43.574219 92.65625zm0 0"/><path d="m248 80v-16c-6.191406 0-12.359375.921875-18.328125 2.734375l4.65625 15.304687c4.464844-1.351562 9.054687-2.039062 13.671875-2.039062zm0 0"/><path d="m408 48h-107.40625c-15.699219-10.183594-33.585938-16-52.59375-16s-36.894531 5.816406-52.59375 16h-107.40625c-8.824219 0-16 7.175781-16 16v32c0 8.824219 7.175781 16 16 16h1.222656l2.664063 16h-27.886719v16h30.558594l13.097656 78.574219c2.648438 15.890625 14.351562 28.058593 29.289062 31.96875-.617187 3.066406-.945312 6.226562-.945312 9.457031 0 2.726562.28125 5.390625.71875 8h-.71875v8c0 43.542969 24.703125 81.878906 62.335938 100.375l-22 73.328125-.335938 42.296875h144v-40l-22.359375-75.617188c37.640625-18.488281 62.359375-56.832031 62.359375-100.382812v-8h-.71875c.4375-2.609375.71875-5.273438.71875-8 0-3.230469-.328125-6.390625-.945312-9.457031 14.9375-3.910157 26.640624-16.078125 29.289062-31.96875l18.433594-110.574219h1.222656c8.824219 0 16-7.175781 16-16v-32c0-8.824219-7.175781-16-16-16zm-64 120c0 18.59375-3.640625 36.777344-10.222656 53.28125-6.546875-3.351562-13.929688-5.28125-21.777344-5.28125h-128c-7.839844 0-15.230469 1.929688-21.777344 5.28125-6.582031-16.503906-10.222656-34.6875-10.222656-53.28125 0-66.167969 43.0625-120 96-120s96 53.832031 96 120zm-173.121094 66.878906c-1.816406 4.015625-2.878906 8.433594-2.878906 13.121094 0 17.648438 14.351562 32 32 32h96c17.648438 0 32-14.351562 32-32 0-4.6875-1.0625-9.105469-2.878906-13.121094 11.101562 5.03125 18.878906 16.160156 18.878906 29.121094 0 17.648438-14.351562 32-32 32h-128c-17.648438 0-32-14.351562-32-32 0-12.960938 7.777344-24.089844 18.878906-29.121094zm141.121094 13.121094c0 8.824219-7.175781 16-16 16h-96c-8.824219 0-16-7.175781-16-16s7.175781-16 16-16h96c8.824219 0 16 7.175781 16 16zm-224-184h87.976562c-8.921874 9.128906-16.59375 19.953125-22.824218 32h-65.152344zm35.441406 155.945312-12.664062-75.945312h17.222656v-16h-19.886719l-2.664062-16h40.605469c-6.398438 17.105469-10.054688 36.023438-10.054688 56 0 22.136719 4.496094 43.921875 12.910156 63.351562-2.34375 2.511719-4.40625 5.273438-6.175781 8.25-9.796875-1.792968-17.605469-9.503906-19.292969-19.65625zm146.726563 153.488282 3.671875 15.566406c3.046875-.71875 6.023437-1.566406 8.960937-2.519531l18.445313 61.519531h-13.246094v16h16v16h-112v-16h80v-16h-77.246094l18.453125-61.519531c2.929688.953125 5.914063 1.800781 8.960938 2.519531l3.671875-15.566406c-36.191406-8.554688-63.222656-36.640625-71.289063-71.617188 8.136719 6.359375 18.34375 10.183594 29.449219 10.183594h128c11.105469 0 21.3125-3.824219 29.457031-10.183594-8.066406 34.984375-35.105469 63.0625-71.289062 71.617188zm102.390625-153.488282c-1.695313 10.152344-9.503906 17.863282-19.292969 19.65625-1.769531-2.96875-3.832031-5.738281-6.175781-8.25 8.414062-19.429687 12.910156-41.214843 12.910156-63.351562 0-19.976562-3.65625-38.894531-10.054688-56h40.605469zm35.441406-123.945312h-65.160156c-6.222656-12.046875-13.894532-22.871094-22.824219-32h87.984375zm0 0"/><path d="m42.34375 210.34375 11.3125 11.3125 10.34375-10.34375v52.6875h16v-52.6875l10.34375 10.34375 11.3125-11.3125-29.65625-29.65625zm0 0"/><path d="m64 280h16v16h-16zm0 0"/><path d="m376 320h16v16h-16zm0 0"/><path d="m360 336h16v16h-16zm0 0"/><path d="m376 352h16v16h-16zm0 0"/><path d="m392 336h16v16h-16zm0 0"/><path d="m464 448h16v16h-16zm0 0"/><path d="m448 464h16v16h-16zm0 0"/><path d="m464 480h16v16h-16zm0 0"/><path d="m480 464h16v16h-16zm0 0"/><path d="m440 0h16v16h-16zm0 0"/><path d="m424 16h16v16h-16zm0 0"/><path d="m440 32h16v16h-16zm0 0"/><path d="m456 16h16v16h-16zm0 0"/><path d="m16 344h16v16h-16zm0 0"/><path d="m0 360h16v16h-16zm0 0"/><path d="m16 376h16v16h-16zm0 0"/><path d="m32 360h16v16h-16zm0 0"/><path d="m16 0h16v16h-16zm0 0"/><path d="m0 16h16v16h-16zm0 0"/><path d="m16 32h16v16h-16zm0 0"/><path d="m32 16h16v16h-16zm0 0"/></svg>