<svg height="511pt" viewBox="0 -21 511.99929 511" width="511pt" xmlns="http://www.w3.org/2000/svg"><path d="m46 32.515625c-6.402344-2.699219-12.761719 4.3125-9.691406 10.433594 1.457031 2.90625 4.683594 4.574219 7.902344 4.105469 3.335937-.480469 6.027343-3.246094 6.421874-6.589844.398438-3.332032-1.492187-6.691406-4.632812-7.949219zm0 0"/><path d="m101.128906 35.316406c-1.78125-2.707031-5.242187-3.96875-8.351562-3.101562-3.0625.855468-5.3125 3.582031-5.558594 6.761718-.226562 2.96875 1.378906 5.863282 4.003906 7.265626 2.964844 1.585937 6.742188.988281 9.070313-1.4375 2.445312-2.546876 2.769531-6.554688.835937-9.488282zm0 0"/><path d="m75.273438 35.316406c-3.664063-5.566406-12.460938-3.710937-13.78125 2.738282-.648438 3.171874.902343 6.507812 3.710937 8.09375 2.703125 1.523437 6.125 1.234374 8.539063-.707032 3.027343-2.4375 3.652343-6.90625 1.53125-10.125zm0 0"/><path d="m195.503906 297.332031h-101.546875c-7.917969 0-14.664062-5.921875-15.695312-13.773437l-3.582031-27.3125c-.546876-4.164063-4.363282-7.097656-8.53125-6.550782-4.164063.546876-7.097657 4.363282-6.550782 8.527344l3.585938 27.316406c2.019531 15.394532 15.25 27 30.777344 27h101.542968c15.527344 0 28.757813-11.605468 30.777344-27l10.414062-79.367187c7.234376-2.382813 12.472657-9.191406 12.472657-17.210937v-12.410157c0-10-8.132813-18.132812-18.128907-18.132812h-61.464843v-22.8125c0-13.695313-11.144531-24.839844-24.839844-24.839844-13.699219 0-24.84375 11.144531-24.84375 24.839844v22.8125h-61.464844c-9.996093 0-18.128906 8.132812-18.128906 18.132812v12.410157c0 8.019531 5.238281 14.828124 12.472656 17.210937l3.636719 27.710937c.5 3.832032 3.769531 6.617188 7.53125 6.617188.328125 0 .660156-.019531.996094-.066406 4.164062-.546875 7.097656-4.363282 6.550781-8.527344l-3.257813-24.816406h51.664063v10.644531c0 13.699219 11.144531 24.84375 24.84375 24.84375 13.695313 0 24.839844-11.144531 24.839844-24.84375v-10.644531h51.664062l-10.035156 76.46875c-1.035156 7.851562-7.78125 13.773437-15.699219 13.773437zm-137.078125-105.453125c-1.613281 0-2.921875-1.308594-2.921875-2.917968v-12.410157c0-1.613281 1.308594-2.921875 2.921875-2.921875h61.464844v18.25zm95.9375 25.855469c0 5.3125-4.320312 9.632813-9.632812 9.632813-5.308594 0-9.632813-4.320313-9.632813-9.632813v-82.128906c0-5.3125 4.324219-9.632813 9.632813-9.632813 5.3125 0 9.632812 4.320313 9.632812 9.632813zm15.210938-44.105469h61.464843c1.609376 0 2.917969 1.308594 2.917969 2.921875v12.410157c0 1.609374-1.308593 2.917968-2.917969 2.917968h-61.464843zm0 0"/><path d="m501.171875 244.851562c0-4.910156 2.523437-11.207031 4.964844-17.292968 3.929687-9.804688 8.386719-20.917969 4.136719-31.160156-4.410157-10.640626-15.679688-15.402344-25.621094-19.601563-5.839844-2.464844-11.875-5.015625-15.074219-8.214844-3.195313-3.199219-5.746094-9.234375-8.210937-15.070312-4.203126-9.945313-8.960938-21.214844-19.601563-25.625-10.246094-4.246094-21.355469.207031-31.164063 4.140625-6.085937 2.4375-12.382812 4.960937-17.292968 4.960937s-11.207032-2.523437-17.296875-4.960937c-9.804688-3.933594-20.917969-8.390625-31.160157-4.140625-10.640624 4.410156-15.398437 15.679687-19.601562 25.625-2.464844 5.835937-5.015625 11.871093-8.214844 15.070312-3.195312 3.199219-9.234375 5.746094-15.070312 8.214844-9.945313 4.199219-21.210938 8.960937-25.625 19.601563-4.246094 10.242187.207031 21.355468 4.140625 31.160156 2.441406 6.085937 4.964843 12.382812 4.964843 17.292968 0 4.914063-2.523437 11.207032-4.964843 17.296876-3.933594 9.804687-8.386719 20.917968-4.140625 31.160156 4.414062 10.640625 15.679687 15.402344 25.625 19.601562 5.835937 2.464844 11.871094 5.015625 15.070312 8.214844 3.199219 3.199219 5.75 9.234375 8.214844 15.070312 1.203125 2.847657 2.457031 5.800782 3.875 8.671876v43.972656h-294.722656c-10.582032 0-19.191406-8.609375-19.191406-19.191406v-295.128907h413.6875v35.042969c0 4.199219 3.40625 7.605469 7.605468 7.605469 4.199219 0 7.605469-3.40625 7.605469-7.605469v-74.660156c0-18.96875-15.433594-34.402344-34.40625-34.402344h-259.515625c-4.199219 0-7.601562 3.40625-7.601562 7.605469s3.402343 7.601562 7.601562 7.601562h259.515625c10.585937 0 19.195313 8.613281 19.195313 19.195313v24.40625h-413.6875v-24.40625c0-10.582032 8.609374-19.195313 19.191406-19.195313h90.4375c4.199218 0 7.601562-3.402343 7.601562-7.601562s-3.402344-7.605469-7.601562-7.605469h-90.4375c-18.96875 0-34.402344 15.433594-34.402344 34.402344v334.746094c0 18.96875 15.433594 34.402343 34.402344 34.402343h294.726562v57.386719c0 2.832031 1.574219 5.433594 4.089844 6.742188 2.511719 1.3125 5.546875 1.113281 7.871094-.507813l52.21875-36.496094 52.214844 36.496094c1.300781.910156 2.824218 1.371094 4.355468 1.371094 1.203125 0 2.40625-.285157 3.511719-.859375 2.515625-1.3125 4.089844-3.910156 4.089844-6.746094v-44.863281c0-4.203125-3.402344-7.605469-7.601563-7.605469-4.199218 0-7.605468 3.402344-7.605468 7.605469v30.269531l-44.609376-31.179688c-2.617187-1.828124-6.097656-1.828124-8.714843 0l-44.613281 31.179688v-85.265625c.175781.078125.335937.167969.515624.242187 2.949219 1.226563 5.96875 1.726563 9.011719 1.726563 7.519531 0 15.167969-3.066406 22.148438-5.863281 6.089843-2.441406 12.382812-4.964844 17.296875-4.964844 4.910156 0 11.207031 2.523438 17.292968 4.964844 9.804688 3.929687 20.917969 8.386718 31.164063 4.136718.171875-.070312.335937-.160156.507813-.238281v29.640625c0 4.199219 3.40625 7.605469 7.605468 7.605469 4.199219 0 7.601563-3.40625 7.601563-7.605469v-46.339844c1.421875-2.878906 2.679687-5.832031 3.882812-8.683593 2.46875-5.839844 5.015625-11.875 8.214844-15.074219 3.199219-3.195312 9.234375-5.746094 15.070313-8.210938 9.945312-4.203124 21.214843-8.960937 25.625-19.601562 4.25-10.242188-.207032-21.355469-4.140626-31.164062-2.4375-6.089844-4.960937-12.382813-4.960937-17.296876zm-9.152344 22.957032c2.988281 7.453125 6.078125 15.164062 4.207031 19.675781-2.023437 4.878906-9.890624 8.203125-17.496093 11.414063-7.179688 3.035156-14.609375 6.171874-19.90625 11.472656-5.296875 5.296875-8.4375 12.722656-11.46875 19.90625-3.214844 7.605468-6.535157 15.46875-11.417969 17.496094-4.511719 1.871093-12.222656-1.222657-19.675781-4.210938-7.425781-2.976562-15.105469-6.054688-22.953125-6.054688s-15.527344 3.078126-22.953125 6.054688c-7.457031 2.992188-15.164063 6.082031-19.679688 4.207031-4.878906-2.023437-8.203125-9.886719-11.414062-17.492187-3.035157-7.183594-6.171875-14.609375-11.46875-19.90625-5.300781-5.296875-12.726563-8.4375-19.910157-11.472656-7.605468-3.210938-15.46875-6.535157-17.492187-11.414063-1.875-4.511719 1.21875-12.222656 4.207031-19.675781 2.976563-7.425782 6.054688-15.109375 6.054688-22.953125 0-7.847657-3.078125-15.527344-6.054688-22.953125-2.988281-7.457032-6.082031-15.164063-4.207031-19.679688 2.023437-4.878906 9.886719-8.203125 17.492187-11.414062 7.183594-3.035156 14.609376-6.171875 19.90625-11.46875 5.300782-5.300782 8.4375-12.726563 11.472657-19.910156 3.210937-7.605469 6.535156-15.46875 11.414062-17.492188 4.515625-1.871094 12.222657 1.21875 19.675781 4.207031 7.429688 2.976563 15.109376 6.054688 22.953126 6.054688 7.847656 0 15.527343-3.078125 22.957031-6.054688 7.453125-2.988281 15.164062-6.078125 19.675781-4.207031 4.878906 2.023438 8.203125 9.886719 11.414062 17.492188 3.035157 7.183593 6.171876 14.609374 11.472657 19.910156 5.296875 5.296875 12.722656 8.433594 19.90625 11.46875 7.605469 3.210937 15.472656 6.535156 17.496093 11.417968 1.871094 4.511719-1.21875 12.21875-4.207031 19.675782-2.980469 7.425781-6.058593 15.105468-6.058593 22.953125 0 7.84375 3.082031 15.523437 6.058593 22.953125zm0 0"/><path d="m393.308594 166.355469c-43.285156 0-78.5 35.214843-78.5 78.496093 0 43.285157 35.214844 78.5 78.5 78.5s78.496094-35.214843 78.496094-78.5c0-43.28125-35.210938-78.496093-78.496094-78.496093zm0 141.789062c-34.898438 0-63.289063-28.394531-63.289063-63.289062 0-34.898438 28.390625-63.289063 63.289063-63.289063 34.898437 0 63.289062 28.390625 63.289062 63.289063 0 34.894531-28.390625 63.289062-63.289062 63.289062zm0 0"/><path d="m416.121094 217.328125c4.199218 0 7.605468-3.402344 7.605468-7.601563 0-4.199218-3.40625-7.605468-7.605468-7.605468h-45.628906c-4.199219 0-7.601563 3.40625-7.601563 7.605468 0 4.199219 3.402344 7.601563 7.601563 7.601563h15.210937v52.964844h-15.210937c-4.199219 0-7.601563 3.40625-7.601563 7.605469 0 4.199218 3.402344 7.605468 7.601563 7.605468h45.628906c4.199218 0 7.605468-3.40625 7.605468-7.605468 0-4.199219-3.40625-7.605469-7.605468-7.605469h-15.210938v-52.964844zm0 0"/></svg>