<svg height="512pt" viewBox="0 -23 512.00002 512" width="512pt" xmlns="http://www.w3.org/2000/svg"><path d="m504.394531 386.0625h-24.84375v-270.175781c0-26.277344-21.382812-47.652344-47.664062-47.652344h-116.449219c-2.960938-2.292969-6.554688-3.808594-10.480469-4.195313 12.554688-28.175781 13.726563-47.636718 3.4375-57.914062-4.472656-4.476562-10.136719-6.566406-16.378906-6.046875-13.757813 1.148437-28.03125 15.507813-36.011719 24.949219-7.980468-9.441406-22.253906-23.796875-36.015625-24.949219-6.242187-.519531-11.910156 1.566406-16.382812 6.039063-10.289063 10.28125-9.121094 29.746093 3.433593 57.921874-3.941406.386719-7.542968 1.910157-10.511718 4.21875-.15625-.011718-.3125-.023437-.472656-.023437h-115.945313c-26.277344 0-47.652344 21.375-47.652344 47.648437v185.800782c0 4.199218 3.402344 7.601562 7.605469 7.601562 4.199219 0 7.601562-3.402344 7.601562-7.601562v-185.796875c0-17.890625 14.554688-32.445313 32.445313-32.445313h108.53125c-.015625.324219-.046875.640625-.046875.964844 0 5.378906 2.097656 10.265625 5.503906 13.921875-.183594.109375-.367187.214844-.550781.320313h-113.4375c-9.503906 0-17.238281 7.734374-17.238281 17.238281v247.371093c0 4.199219 3.40625 7.605469 7.605468 7.605469h65.28125c4.5625 4.355469 9.632813 8.183594 15.238282 11.492188 2.261718 1.332031 4.601562 2.558593 6.996094 3.707031h-110.328126v-59.03125c0-4.199219-3.402343-7.601562-7.601562-7.601562-4.203125 0-7.605469 3.402343-7.605469 7.601562v59.03125h-24.851562c-4.199219 0-7.605469 3.40625-7.605469 7.605469v10.660156c0 33.8125 27.507812 61.320313 61.320312 61.320313h389.359376c33.8125 0 61.320312-27.507813 61.320312-61.320313v-10.660156c0-4.199219-3.40625-7.605469-7.605469-7.605469zm-40.054687-270.175781v270.175781h-110.335938c2.398438-1.148438 4.738282-2.375 6.996094-3.707031 5.605469-3.304688 10.679688-7.136719 15.238281-11.492188h65.292969c4.199219 0 7.601562-3.40625 7.601562-7.605469v-247.371093c0-9.503907-7.734374-17.238281-17.242187-17.238281h-113.46875c-.175781-.101563-.351563-.210938-.527344-.316407 3.40625-3.65625 5.511719-8.542969 5.511719-13.925781 0-.324219-.035156-.640625-.050781-.964844h108.535156c17.894531 0 32.449219 14.554688 32.449219 32.445313zm-162.132813 285.390625c-1.203125 8.578125-8.59375 15.203125-17.5 15.203125h-57.414062c-8.90625 0-16.296875-6.625-17.5-15.203125zm-87.851562-384.402344c1.316406-1.3125 2.578125-1.785156 4.359375-1.640625 8.925781.738281 23.554687 15.953125 31.09375 26.515625 1.425781 2.003906 3.734375 3.195312 6.191406 3.195312h.003906c2.457032 0 4.765625-1.191406 6.191406-3.191406 7.539063-10.566406 22.171876-25.78125 31.089844-26.519531 1.777344-.148437 3.039063.328125 4.355469 1.644531 4.242187 4.234375 4.121094 19.066406-9.40625 47.058594h-64.472656c-13.527344-27.992188-13.648438-42.824219-9.40625-47.0625zm-5.292969 62.269531h83.863281.027344.019531 9.960938c2.902344 0 5.261718 2.359375 5.261718 5.261719 0 2.90625-2.359374 5.265625-5.261718 5.265625h-93.871094c-2.902344 0-5.261719-2.359375-5.261719-5.265625 0-2.902344 2.359375-5.261719 5.261719-5.261719zm-130.980469 36.742188c0-1.121094.90625-2.027344 2.027344-2.027344h92.566406c-14.582031 12.730469-27.433593 28.835937-38.054687 47.84375-19.140625 34.253906-29.257813 74.949219-29.257813 117.679687 0 32.183594 5.910157 57.445313 17.929688 76.269532h-45.210938zm42.488281 163.5c0-40.144531 9.449219-78.273438 27.324219-110.265625 16.78125-30.03125 40.441407-52.78125 66.75-64.238282h82.703125c17.933594 7.792969 34.226563 20.375 48.441406 37.441407 1.503907 1.804687 3.667969 2.734375 5.847657 2.734375 1.714843 0 3.441406-.578125 4.859375-1.757813 3.230468-2.6875 3.664062-7.484375.976562-10.710937-5.753906-6.90625-11.835937-13.148438-18.214844-18.730469h92.632813c1.121094 0 2.035156.90625 2.035156 2.027344v239.765625h-45.21875c12.019531-18.824219 17.925781-44.082032 17.925781-76.265625 0-46.183594-12.265624-91.140625-34.535156-126.589844-2.230468-3.554687-6.925781-4.628906-10.480468-2.394531-3.558594 2.234375-4.628907 6.929687-2.394532 10.484375 20.765625 33.058593 32.203125 75.140625 32.203125 118.496093 0 45.960938-12.121093 74.519532-38.152343 89.875-16.589844 9.789063-39.480469 16.304688-97.269532 16.304688-41.796875 0-74.335937-2.773438-97.28125-16.304688-26.027344-15.355468-38.152344-43.914062-38.152344-89.871093zm376.222657 124.941406c0 25.425781-20.6875 46.113281-46.113281 46.113281h-389.359376c-25.425781 0-46.113281-20.6875-46.113281-46.113281v-3.054687l179.304688.003906c1.273437 16.980468 15.484375 30.410156 32.78125 30.410156h57.414062c17.296875 0 31.511719-13.429688 32.78125-30.410156h154.457031c.035157 0 .066407-.003906.097657-.003906h24.75zm0 0"/><path d="m250.894531 318.847656v10.359375c0 4.261719 3.46875 7.730469 7.730469 7.730469 4.265625 0 7.730469-3.46875 7.730469-7.730469v-11.265625c9.324219-1.695312 16.804687-5.511718 22.238281-11.335937 6.371094-6.835938 9.605469-16.128907 9.605469-27.621094 0-11.457031-3.199219-20.339844-9.78125-27.148437-6.191407-6.40625-14.617188-10.167969-22.058594-13v-44.621094c7.445313.832031 12.171875 3.234375 15.632813 4.992187 2.179687 1.105469 3.902343 1.980469 5.441406 1.980469 4.699218 0 7.261718-6.082031 7.261718-9.207031 0-3.664063-3.582031-6.902344-10.359374-9.363281-4.984376-1.808594-11.363282-3.078126-17.976563-3.578126v-9.445312c0-4.261719-3.46875-7.730469-7.730469-7.730469-4.265625 0-7.730468 3.46875-7.730468 7.730469v9.96875c-6.242188.816406-15.09375 2.949219-22.0625 8.472656-7.652344 6.066406-11.53125 14.859375-11.53125 26.132813 0 11.1875 3.773437 19.664062 11.53125 25.910156 6.191406 4.980469 13.964843 7.953125 22.058593 10.796875v51.992188c-12.820312-1.277344-19.261719-7.378907-23.53125-11.421876-2.421875-2.296874-4.175781-3.953124-6.109375-3.953124-3.839844 0-7.453125 5.1875-7.453125 9.207031-.003906 8.183593 14.445313 20.855469 37.09375 22.148437zm-17.515625-106.234375c0-5.445312 1.871094-9.785156 5.558594-12.898437 2.902344-2.449219 6.925781-4.148438 11.957031-5.054688v38.535156c-10.816406-4.347656-17.515625-9.332031-17.515625-20.582031zm43.089844 51.578125c3.800781 4.226563 5.648438 9.574219 5.648438 16.351563 0 6.246093-1.703126 11.332031-5.066407 15.113281-2.605469 2.925781-6.203125 5.03125-10.695312 6.257812v-44.851562c4.398437 2.128906 7.707031 4.460938 10.113281 7.128906zm0 0"/></svg>