<svg height="496pt" viewBox="0 0 496 496" width="496pt" xmlns="http://www.w3.org/2000/svg"><path d="m476.6875 201.375-22.0625-22.0625c-7.527344-7.535156-12.304688-17.066406-13.945312-27.382812 8.503906-.363282 15.320312-7.335938 15.320312-15.929688v-32c0-8.824219-7.175781-16-16-16v-48c0-22.054688-17.945312-40-40-40h-64c-22.054688 0-40 17.945312-40 40v48c-8.824219 0-16 7.175781-16 16v32c0 8.59375 6.816406 15.566406 15.320312 15.929688-1.640624 10.316406-6.417968 19.847656-13.945312 27.382812l-22.0625 22.0625c-12.457031 12.457031-19.3125 29.007812-19.3125 46.625v70.457031l-16-40v-38.457031c0-8.824219-7.175781-16-16-16h-160c-8.824219 0-16 7.175781-16 16v38.304688l-16.585938 37.3125c-10.230468 23.015624-15.414062 47.460937-15.414062 72.648437 0 19.261719 3.089844 38.292969 9.175781 56.574219l17.054688 51.160156h203.3125l11.59375-30.910156c4.144531 17.671875 19.941406 30.910156 38.863281 30.910156h176c22.054688 0 40-17.945312 40-40v-208c0-17.617188-6.855469-34.167969-19.3125-46.625zm-132.6875-97.375v32h-16v-32zm16 0h16v32h-16zm32 0h16v32h-16zm48.007812 32h-16.007812v-32h16zm-104.007812-120h64c13.230469 0 24 10.769531 24 24v16h-112v-16c0-13.230469 10.769531-24 24-24zm-24 56h112v16h-112zm-16 32h16v32h-16zm-88 136v32h-160v-32zm-183.640625 199.785156c-5.542969-16.640625-8.359375-33.976562-8.359375-51.519531 0-22.9375 4.71875-45.195313 14.039062-66.160156l15.160157-34.105469h116.386719l7.246093 32.601562c4.753907 21.414063 7.167969 43.398438 7.167969 65.335938 0 24.589844-3.023438 49.167969-8.992188 73.046875l-5.253906 21.015625h-123.984375zm194.097656 40.214844h-40.210937l4.289062-17.144531c6.28125-25.136719 9.464844-51.023438 9.464844-76.917969 0-23.105469-2.542969-46.25-7.550781-68.808594l-6.480469-29.128906h32.605469l17.769531 44.414062c7.734375 19.320313 11.65625 39.683594 11.65625 60.59375 0 19.601563-3.488281 38.839844-10.375 57.199219zm261.542969-24c0 13.230469-10.769531 24-24 24h-176c-13.230469 0-24-10.769531-24-24v-208c0-13.335938 5.191406-25.878906 14.625-35.3125l22.0625-22.0625c10.542969-10.546875 17.023438-24.050781 18.777344-38.625h113.0625c1.753906 14.574219 8.234375 28.078125 18.777344 38.625l22.0625 22.0625c9.441406 9.433594 14.632812 21.976562 14.632812 35.3125zm0 0"/><path d="m407.601562 304.40625c-5.273437-5.269531-12.058593-8.476562-19.378906-9.207031-11.390625-9.328125-29.046875-9.328125-40.4375 0-7.320312.738281-14.105468 3.9375-19.378906 9.207031-5.269531 5.265625-8.476562 12.058594-9.207031 19.378906-4.671875 5.695313-7.199219 12.757813-7.199219 20.214844s2.527344 14.519531 7.191406 20.214844c.738282 7.320312 3.945313 14.113281 9.207032 19.378906 5.273437 5.269531 12.058593 8.476562 19.378906 9.207031 5.703125 4.671875 12.765625 7.199219 20.222656 7.199219s14.519531-2.527344 20.214844-7.191406c7.320312-.738282 14.105468-3.9375 19.378906-9.207032 5.269531-5.265624 8.476562-12.058593 9.207031-19.378906 4.671875-5.703125 7.199219-12.765625 7.199219-20.222656s-2.527344-14.519531-7.191406-20.214844c-.738282-7.320312-3.945313-14.113281-9.207032-19.378906zm-4.289062 50.90625-2.34375 2.34375v3.3125c0 4.269531-1.664062 8.289062-4.679688 11.3125-3.023437 3.023438-7.042968 4.6875-11.3125 4.6875h-3.3125l-2.34375 2.34375c-6.046874 6.046875-16.585937 6.046875-22.632812 0l-2.34375-2.34375h-3.3125c-4.269531 0-8.289062-1.664062-11.3125-4.6875-3.015625-3.023438-4.679688-7.042969-4.679688-11.3125v-3.3125l-2.34375-2.34375c-3.03125-3.023438-4.695312-7.039062-4.695312-11.3125s1.664062-8.289062 4.6875-11.3125l2.34375-2.34375v-3.3125c0-4.269531 1.664062-8.289062 4.679688-11.3125 3.023437-3.023438 7.042968-4.6875 11.320312-4.6875h3.320312l2.34375-2.34375c6.039063-6.046875 16.578126-6.046875 22.617188 0l2.34375 2.34375h3.320312c4.269532 0 8.296876 1.664062 11.320313 4.6875 3.015625 3.023438 4.679687 7.042969 4.679687 11.3125v3.3125l2.34375 2.34375c3.015626 3.023438 4.679688 7.039062 4.679688 11.3125s-1.664062 8.289062-4.6875 11.3125zm0 0"/><path d="m368 320c-13.230469 0-24 10.769531-24 24s10.769531 24 24 24 24-10.769531 24-24-10.769531-24-24-24zm0 32c-4.40625 0-8-3.585938-8-8s3.59375-8 8-8 8 3.585938 8 8-3.59375 8-8 8zm0 0"/><path d="m128 328h-80c-8.824219 0-16 7.175781-16 16v80c0 8.824219 7.175781 16 16 16h80c8.824219 0 16-7.175781 16-16v-80c0-8.824219-7.175781-16-16-16zm-80 96v-80h80l.007812 80zm0 0"/><path d="m80 360h16v16h-16zm0 0"/><path d="m96 392h16v16h-16zm0 0"/><path d="m64 392h16v16h-16zm0 0"/><path d="m368 232c-48.519531 0-88 39.480469-88 88v136h176v-136c0-48.519531-39.480469-88-88-88zm72 208h-144v-120c0-39.703125 32.304688-72 72-72s72 32.296875 72 72zm0 0"/></svg>