<svg height="496pt" viewBox="0 0 496 496" width="496pt" xmlns="http://www.w3.org/2000/svg"><path d="m144 248c-57.34375 0-104 46.65625-104 104s46.65625 104 104 104 104-46.65625 104-104-46.65625-104-104-104zm0 192c-48.519531 0-88-39.480469-88-88s39.480469-88 88-88 88 39.480469 88 88-39.480469 88-88 88zm0 0"/><path d="m129.992188 297.761719c4.542968-1.167969 9.265624-1.761719 14.007812-1.761719v-16c-6.089844 0-12.144531.761719-17.992188 2.273438zm0 0"/><path d="m72 352h16c0-20.34375 11.070312-39.128906 28.878906-49.007812l-7.765625-13.992188c-22.890625 12.703125-37.113281 36.839844-37.113281 63zm0 0"/><path d="m16 192h16v16h-16zm0 0"/><path d="m0 208h16v16h-16zm0 0"/><path d="m16 224h16v16h-16zm0 0"/><path d="m32 208h16v16h-16zm0 0"/><path d="m200 144h16v16h-16zm0 0"/><path d="m184 160h16v16h-16zm0 0"/><path d="m200 176h16v16h-16zm0 0"/><path d="m216 160h16v16h-16zm0 0"/><path d="m496 192v-32c0-8.824219-7.175781-16-16-16h-19.054688l-16-32h-36.945312v-22.113281l16.945312-33.886719-9.183593-18.367188c-1.257813-20.9375-18.523438-37.632812-39.761719-37.632812s-38.503906 16.695312-39.761719 37.632812l-9.183593 18.367188 16.945312 33.886719v22.113281h-36.945312l-16 32h-19.054688c-8.824219 0-16 7.175781-16 16v32c0 8.824219 7.175781 16 16 16h6.558594l-4.03125 24.207031c-2.566406 15.410157-4.785156 30.96875-6.816406 46.464844-25.136719-42.230469-71.109376-70.671875-123.710938-70.671875-79.398438 0-144 64.601562-144 144s64.601562 144 144 144c45.335938 0 85.792969-21.113281 112.207031-53.96875-.046875 4.671875-.207031 9.304688-.207031 13.96875 0 22.054688 17.945312 40 40 40h160c22.054688 0 40-17.945312 40-40 0-74.777344-6.230469-150.0625-18.519531-223.792969l-4.039063-24.207031h6.558594c8.824219 0 16-7.175781 16-16zm-139.054688-112-12-24 4-8h19.054688v16h16v-16h19.054688l4 8-12 24zm19.054688-64c10.414062 0 19.214844 6.710938 22.527344 16h-45.046875c3.304687-9.289062 12.105469-16 22.519531-16zm-16 80h32v16h-32zm-43.054688 32h118.109376l8 16h-134.109376zm-44.945312 32h208l.007812 32h-208.007812zm-128 320c-70.574219 0-128-57.425781-128-128s57.425781-128 128-128 128 57.425781 128 128-57.425781 128-128 128zm317.695312-245.160156c12.144532 72.855468 18.304688 147.273437 18.304688 221.160156 0 13.230469-10.769531 24-24 24h-160c-13.230469 0-24-10.769531-24-24 0-13.214844.199219-26.519531.59375-39.558594 9.765625-19.417968 15.40625-41.257812 15.40625-64.441406 0-16.105469-2.777344-31.542969-7.671875-46.015625l.191406-1.089844c2.640625-23.390625 5.9375-46.957031 9.792969-70.054687l4.464844-26.839844h162.445312zm0 0"/><path d="m328 464h96c13.230469 0 24-10.769531 24-24v-144c0-39.695312-32.296875-72-72-72s-72 32.304688-72 72v144c0 13.230469 10.769531 24 24 24zm-8-168c0-30.878906 25.128906-56 56-56s56 25.121094 56 56v144c0 4.40625-3.585938 8-8 8h-96c-4.414062 0-8-3.59375-8-8zm0 0"/><path d="m336 288h80v16h-80zm0 0"/><path d="m368 320h16v16h-16zm0 0"/><path d="m400 320h16v16h-16zm0 0"/><path d="m336 320h16v16h-16zm0 0"/><path d="m336 352h80v16h-80zm0 0"/><path d="m336 384h80v16h-80zm0 0"/><path d="m336 416h80v16h-80zm0 0"/></svg>