<svg height="511pt" viewBox="1 -16 511.99997 511" width="511pt" xmlns="http://www.w3.org/2000/svg"><path d="m50.109375 36.628906c-2.570313-6.210937-11.679687-6.097656-14.109375.171875-1.167969 3.019531-.242188 6.558594 2.265625 8.609375 2.460937 2.007813 5.984375 2.277344 8.710937.65625 3.191407-1.890625 4.578126-6.007812 3.132813-9.4375zm0 0"/><path d="m101.816406 36.628906c-1.242187-2.933594-4.195312-4.84375-7.390625-4.6875-3.179687.152344-5.972656 2.347656-6.902343 5.382813-2.035157 6.640625 5.550781 12.292969 11.371093 8.609375 3.054688-1.933594 4.328125-5.964844 2.921875-9.304688zm0 0"/><path d="m75.964844 36.628906c-1.296875-3.058594-4.449219-4.984375-7.769532-4.660156-3.4375.332031-6.246093 3.046875-6.773437 6.445312-1.011719 6.503907 6.613281 11.09375 11.9375 7.308594 2.828125-2.011718 3.953125-5.882812 2.605469-9.09375zm0 0"/><path d="m504.394531 154.570312c4.203125 0 7.605469-3.402343 7.605469-7.601562v-112.070312c0-18.964844-15.433594-34.398438-34.398438-34.398438h-443.195312c-18.96875 0-34.40234375 15.433594-34.40234375 34.398438v31.910156c0 .035156-.00390625.066406-.00390625.101562 0 .03125.00390625.0625.00390625.097656v302.605469c0 18.96875 15.43359375 34.402344 34.40234375 34.402344h41.386719l24.859375 70.820313c.667968 1.902343 2.066406 3.460937 3.882812 4.335937 1.039063.496094 2.164063.75 3.292969.75.851563 0 1.703125-.144531 2.519531-.429687l215.015625-75.476563h152.238281c18.964844 0 34.398438-15.433594 34.398438-34.402344v-197.296875c0-4.199218-3.402344-7.605468-7.605469-7.605468-4.199219 0-7.601562 3.40625-7.601562 7.605468v197.296875c0 10.582031-8.609375 19.191407-19.191407 19.191407h-108.914062l104.035156-36.519532c3.960938-1.390625 6.046875-5.730468 4.65625-9.691406l-53.640625-152.8125c-.667969-1.902344-2.0625-3.460938-3.882812-4.335938-.109375-.054687-.226563-.097656-.34375-.144531l.003906-.007812-133.394531-56.1875c.210937-1.449219.328125-2.929688.328125-4.4375 0-16.789063-13.660157-30.449219-30.453125-30.449219-16.789063 0-30.449219 13.660156-30.449219 30.449219 0 5.453125 1.449219 10.570312 3.96875 15.003906l-180.441406 174.203125c-.003907.003906-.007813.007812-.011719.011719l-.160156.152343.003906.003907c-2.066406 2-2.910156 5.089843-1.894531 7.984375l11.476562 32.6875c1.390625 3.964844 5.726563 6.050781 9.691407 4.65625 3.964843-1.390625 6.046874-5.726563 4.65625-9.691406l-8.957032-25.515626 348.03125-122.167968 48.601563 138.460937-348.027344 122.167969-32.160156-91.613281c-1.390625-3.964844-5.726563-6.050781-9.695313-4.660157-3.960937 1.394532-6.046875 5.730469-4.65625 9.695313l4.480469 12.761719h-36.046875c-10.582031 0-19.195312-8.609375-19.195312-19.195313v-295.101562h481.582031v72.457031c0 4.199219 3.402343 7.601562 7.601562 7.601562zm-108.949219 37.085938-310.9375 109.148438 155.566407-150.191407c4.636719 2.855469 10.089843 4.507813 15.921875 4.507813 9.863281 0 18.640625-4.714844 24.210937-12.007813zm-139.449218-82.230469c8.40625 0 15.246094 6.835938 15.246094 15.242188s-6.839844 15.242187-15.246094 15.242187c-8.402344 0-15.242188-6.835937-15.242188-15.242187s6.839844-15.242188 15.242188-15.242188zm-240.785156-50.121093v-24.402344c0-10.582032 8.613281-19.195313 19.195312-19.195313h443.195312c10.582032 0 19.191407 8.613281 19.191407 19.195313v24.402344zm0 0"/><path d="m129.007812 357.320312c7.085938-2.488281 9.191407 2.859376 9.988282 4.871094 1.097656 2.648438 3.824218 3.226563 8.109375 1.722656 4.332031-1.519531 6.324219-3.355468 4.453125-8.691406-1.808594-5.148437-5.429688-8.722656-10.472656-10.332031-4.808594-1.535156-10.578126-1.214844-16.679688.925781-5.914062 2.074219-10.308594 5.378906-12.714844 9.550782-2.785156 4.824218-2.980468 10.730468-.585937 17.554687l7.828125 22.289063c2.394531 6.824218 6.238281 11.3125 11.425781 13.335937 2.046875.804687 4.308594 1.203125 6.722656 1.203125 2.871094 0 5.960938-.566406 9.171875-1.691406 6.097656-2.144532 10.773438-5.578125 13.519532-9.9375 2.875-4.5625 3.394531-9.824219 1.5-15.21875-.882813-2.519532-1.980469-3.953125-3.449219-4.515625-1.339844-.511719-2.996094-.347657-5.542969.542969-4.214844 1.480468-5.90625 3.570312-5.171875 6.382812.90625 3.394531 2.277344 8.523438-4.367187 10.855469-2.433594.855469-4.546876.835937-6.28125-.066407-1.792969-.929687-3.191407-2.808593-4.164063-5.578124l-7.828125-22.292969c-.972656-2.769531-1.054688-5.109375-.246094-6.957031.78125-1.78125 2.390625-3.109376 4.785156-3.953126zm0 0"/><path d="m188.023438 379.707031-16.140626-45.980469c-.460937-1.320312-1.574218-2.144531-3.210937-2.382812-1.386719-.199219-3.128906.03125-4.898437.652344-1.769532.625-3.273438 1.53125-4.234376 2.554687-1.128906 1.207031-1.480468 2.542969-1.015624 3.867188l18.777343 53.5c.453125 1.292969 1.472657 2.152343 2.941407 2.484375.449218.101562.925781.148437 1.421874.148437.9375 0 1.941407-.175781 2.9375-.523437l26.582032-9.332032c1.214844-.425781 2.007812-1.421874 2.296875-2.878906.25-1.273437.09375-2.8125-.441407-4.332031-.53125-1.519531-1.371093-2.816406-2.363281-3.65625-1.136719-.957031-2.378906-1.238281-3.589843-.8125zm0 0"/><path d="m216.765625 360.871094c2.40625 6.855468 6.25 11.34375 11.414063 13.339844 2.042968.785156 4.265624 1.179687 6.65625 1.179687 2.972656 0 6.207031-.609375 9.671874-1.824219 13.421876-4.710937 18.324219-14.398437 13.800782-27.28125l-7.824219-22.292968c-4.523437-12.878907-14.40625-17.375-27.824219-12.667969-6.253906 2.195312-10.675781 5.460937-13.148437 9.703125-2.789063 4.789062-2.980469 10.691406-.570313 17.546875zm9.992187-37.863282c1.15625-.40625 2.238282-.609374 3.242188-.609374 1.066406 0 2.042969.226562 2.921875.683593 1.808594.929688 3.222656 2.8125 4.199219 5.601563l7.828125 22.292968c1.902343 5.425782.332031 9.199219-4.542969 10.910157-2.367188.828125-4.425781.800781-6.121094-.089844-1.777344-.929687-3.175781-2.824219-4.15625-5.617187l-7.828125-22.292969c-.980469-2.796875-1.070312-5.144531-.265625-6.984375.769532-1.753906 2.355469-3.0625 4.722656-3.894532zm0 0"/><path d="m280.722656 303.121094c4.121094-1.449219 6.734375-1.078125 8.832032-.78125 1.382812.195312 2.578124.363281 3.816406-.070313 3.726562-1.304687 3.703125-6.519531 2.875-8.890625-1.015625-2.886718-4.039063-4.195312-8.992188-3.894531-4.472656.273437-9.175781 1.824219-10.511718 2.292969-5.753907 2.019531-10.503907 5.277344-13.375 9.179687-3.421876 4.648438-4.15625 10.164063-2.125 15.953125 4.046874 11.527344 14.777343 12.574219 23.402343 13.417969 6.257813.609375 11.660157 1.136719 13.125 5.320313.636719 1.808593.269531 3.523437-1.097656 5.085937-1.132813 1.300781-2.921875 2.425781-5.035156 3.167969-4.53125 1.59375-8.070313.421875-10.914063-.515625-2.085937-.683594-3.886718-1.28125-5.570312-.691407-3.332032 1.171876-4.308594 6.410157-3.316406 9.238282 1.3125 3.742187 6.621093 5.84375 13.097656 5.84375 3.53125 0 7.410156-.625 11.175781-1.945313 6.1875-2.175781 10.847656-5.683593 13.472656-10.148437 2.753907-4.679688 3.128907-10.238282 1.078125-16.070313-4.589844-13.085937-16.03125-13.976562-25.222656-14.691406-5.679688-.441406-10.164062-.789063-11.277344-3.964844-.476562-1.359375-.230468-2.769531.71875-4.074219 1.097656-1.503906 3.117188-2.804687 5.84375-3.761718zm0 0"/><path d="m348.460938 273.632812c-.519532-1.480468-1.34375-2.742187-2.320313-3.554687-1.160156-.964844-2.464844-1.230469-3.773437-.773437l-29.949219 10.515624c-1.519531.53125-2.8125 1.398438-3.636719 2.429688-.941406 1.179688-1.199219 2.484375-.746094 3.777344l18.753906 53.417968c.453126 1.292969 1.46875 2.152344 2.941407 2.484376.445312.101562.925781.152343 1.421875.152343.9375 0 1.941406-.179687 2.933594-.527343l29.949218-10.515626c2.027344-.710937 3.449219-3.207031 2.054688-7.183593-1.226563-3.488281-3.757813-5.335938-6.152344-4.496094l-22.425781 7.875-4.9375-14.0625 12.5-4.390625c2.796875-.980469 3.144531-4.0625 2.289062-6.511719-.917969-2.609375-3.246093-4.757812-5.917969-3.820312l-12.5 4.386719-4.90625-13.976563 22.425782-7.875c2.398437-.839844 3.21875-3.863281 1.996094-7.351563zm0 0"/><path d="m379.828125 324.136719c.546875.164062 1.148437.246093 1.773437.246093.917969 0 1.898438-.171874 2.875-.515624l14.890626-5.230469c6.261718-2.195313 10.695312-5.464844 13.1875-9.714844 2.8125-4.800781 3.019531-10.707031.613281-17.5625l-7.648438-21.789063c-4.519531-12.878906-14.402343-17.375-27.824219-12.667968l-14.890624 5.230468c-1.648438.578126-2.996094 1.535157-3.796876 2.691407-.777343 1.125-.992187 2.34375-.613281 3.429687l18.8125 53.589844c.382813 1.089844 1.3125 1.902344 2.621094 2.292969zm-5.398437-52.964844 7.367187-2.585937c4.878906-1.710938 8.460937.253906 10.363281 5.675781l7.648438 21.789062c.96875 2.757813 1.039062 5.101563.214844 6.96875-.792969 1.785157-2.390626 3.109375-4.753907 3.941407l-7.371093 2.585937zm0 0"/><path d="m174.964844 115.035156c0-4.199218-3.40625-7.605468-7.605469-7.605468h-112.53125c-4.199219 0-7.605469 3.40625-7.605469 7.605468 0 4.199219 3.40625 7.601563 7.605469 7.601563h112.53125c4.199219 0 7.605469-3.402344 7.605469-7.601563zm0 0"/><path d="m54.828125 142.40625c-4.199219 0-7.605469 3.402344-7.605469 7.601562 0 4.199219 3.40625 7.605469 7.605469 7.605469h72.992187c4.203126 0 7.605469-3.40625 7.605469-7.605469 0-4.199218-3.402343-7.601562-7.605469-7.601562zm0 0"/></svg>