<svg height="496pt" viewBox="0 0 496 496" width="496pt" xmlns="http://www.w3.org/2000/svg"><path d="m459.464844 416.152344-71.792969-71.792969c2.753906-7.625 4.328125-15.800781 4.328125-24.359375 0-17.945312-6.761719-35.183594-18.769531-48.390625 9.578125-12.503906 14.769531-27.730469 14.769531-43.609375 0-33.222656-22.511719-61.726562-54.273438-69.734375-6.460937-25.480469-26.511718-45.53125-52-52-6.46875-25.480469-26.511718-45.53125-52-52-8-31.753906-36.503906-54.265625-69.726562-54.265625-16.390625 0-32.046875 5.519531-44.769531 15.664062-11.679688-7.65625-25.117188-11.664062-39.230469-11.664062-39.695312 0-72 32.304688-72 72 0 14.113281 4.007812 27.550781 11.664062 39.230469-10.144531 12.722656-15.664062 28.378906-15.664062 44.769531 0 33.222656 22.511719 61.726562 54.273438 69.734375 6.460937 25.480469 26.511718 45.53125 52 51.992187 6.46875 25.488282 26.519531 45.53125 52 52 8 31.761719 36.503906 54.273438 69.734374 54.273438 15.878907 0 31.105469-5.191406 43.617188-14.777344 13.191406 12.015625 30.429688 18.777344 48.375 18.777344 8.558594 0 16.734375-1.574219 24.351562-4.328125l71.792969 71.792969c1.765625 20.4375 18.96875 36.535156 39.855469 36.535156 22.054688 0 40-17.945312 40-40 0-20.886719-16.097656-38.097656-36.535156-39.847656zm-181.394532-59.128906-5.496093-6.214844-6.007813 5.71875c-10.476562 9.984375-24.175781 15.480468-38.558594 15.480468-27.273437 0-50.449218-19.503906-55.113281-46.375l-.964843-5.554687-5.554688-.957031c-23.183594-4.023438-41.464844-22.304688-45.488281-45.488282l-.964844-5.554687-5.554687-.957031c-23.183594-4.023438-41.464844-22.304688-45.488282-45.488282l-.96875-5.554687-5.550781-.964844c-26.855469-4.664062-46.359375-27.839843-46.359375-55.113281 0-14.488281 5.550781-28.246094 15.640625-38.742188l4.839844-5.042968-4.335938-5.472656c-7.953125-10.015626-12.144531-22.023438-12.144531-34.742188 0-30.878906 25.121094-56 56-56 12.71875 0 24.726562 4.191406 34.734375 12.136719l5.472656 4.335937 5.039063-4.839844c10.507812-10.082031 24.265625-15.632812 38.753906-15.632812 27.273438 0 50.449219 19.503906 55.113281 46.375l.964844 5.554688 5.554687.964843c23.183594 4.027344 41.464844 22.304688 45.488282 45.488281l.96875 5.554688 5.550781.964844c23.183594 4.027344 41.464844 22.304687 45.488281 45.488281l.96875 5.554687 5.550782.964844c26.871093 4.664063 46.375 27.84375 46.375 55.113282 0 14.382812-5.496094 28.089843-15.472657 38.5625l-5.726562 6.007812 6.222656 5.503906c12.042969 10.636719 18.953125 25.917969 18.953125 41.902344 0 30.871094-25.121094 56-56 56-15.984375 0-31.265625-6.910156-41.929688-18.976562zm177.929688 122.976562c-13.230469 0-24-10.769531-24-24v-3.3125l-72.535156-72.535156c8.222656-5.417969 15.269531-12.464844 20.6875-20.6875l72.535156 72.535156h3.3125c13.230469 0 24 10.769531 24 24s-10.769531 24-24 24zm0 0"/><path d="m162.34375 53.660156 11.3125-11.3125 32.003906 32-11.316406 11.3125zm0 0"/><path d="m122.34375 93.660156 11.3125-11.3125 32.003906 32-11.316406 11.3125zm0 0"/><path d="m82.34375 133.660156 11.3125-11.3125 32.003906 32-11.316406 11.3125zm0 0"/><path d="m42.34375 173.660156 11.3125-11.316406 32.003906 32-11.316406 11.316406zm0 0"/><path d="m234.34375 125.660156 11.3125-11.3125 32 32-11.3125 11.3125zm0 0"/><path d="m194.34375 165.660156 11.3125-11.3125 32 32-11.3125 11.3125zm0 0"/><path d="m154.34375 205.660156 11.3125-11.3125 32 32-11.3125 11.3125zm0 0"/><path d="m114.34375 245.660156 11.3125-11.316406 32 32-11.3125 11.316406zm0 0"/><path d="m306.339844 197.660156 11.316406-11.3125 32 32-11.3125 11.3125zm0 0"/><path d="m266.339844 237.660156 11.316406-11.3125 32 32-11.3125 11.3125zm0 0"/><path d="m226.339844 277.660156 11.316406-11.3125 32 32-11.3125 11.3125zm0 0"/><path d="m186.339844 317.660156 11.316406-11.316406 32 32-11.3125 11.316406zm0 0"/><path d="m330.339844 301.660156 11.316406-11.3125 32 32-11.316406 11.3125zm0 0"/><path d="m290.339844 341.660156 11.316406-11.3125 32 32-11.316406 11.3125zm0 0"/><path d="m66.34375 37.660156 11.316406-11.3125 32 32-11.316406 11.3125zm0 0"/><path d="m26.34375 77.660156 11.316406-11.3125 32 32-11.316406 11.3125zm0 0"/><path d="m448 448h16v16h-16zm0 0"/><path d="m280 40h16v16h-16zm0 0"/><path d="m384 96h16v16h-16zm0 0"/><path d="m264 408h16v16h-16zm0 0"/><path d="m440 320h16v16h-16zm0 0"/><path d="m0 352h16v16h-16zm0 0"/><path d="m80 296h16v16h-16zm0 0"/><path d="m96 384h-16c0 22.054688 17.945312 40 40 40v-16c-13.230469 0-24-10.769531-24-24zm0 0"/><path d="m448 272h16c0-22.054688-17.945312-40-40-40v16c13.230469 0 24 10.769531 24 24zm0 0"/><path d="m376 16v-16c-22.054688 0-40 17.945312-40 40h16c0-13.230469 10.769531-24 24-24zm0 0"/></svg>