<svg height="511pt" viewBox="1 -7 511.999 511" width="511pt" xmlns="http://www.w3.org/2000/svg"><path d="m463.558594.5h-415.113282c-26.710937 0-48.44140575 21.730469-48.44140575 48.441406v18.289063c0 .023437-.00390625.046875-.00390625.066406v275.375c0 27.960937 22.746094 50.707031 50.707031 50.707031h109.183594l-10.101563 42.296875h-21.027343c-21.847657 0-39.625 17.777344-39.625 39.625v13.660157c0 4.199218 3.40625 7.605468 7.605469 7.605468h318.515624c4.199219 0 7.605469-3.40625 7.605469-7.605468v-13.660157c0-21.847656-17.777343-39.625-39.625-39.625h-21.03125l-10.097656-42.296875h109.183594c27.960937 0 50.707031-22.746094 50.707031-50.707031v-164.871094c0-4.199219-3.40625-7.605469-7.605469-7.605469s-7.601562 3.40625-7.601562 7.605469v152.199219h-390.207031c-4.199219 0-7.601563 3.402344-7.601563 7.601562 0 4.199219 3.402344 7.605469 7.601563 7.605469h390.105468c-1.304687 18.394531-16.675781 32.960938-35.398437 32.960938h-410.585938c-18.722656 0-34.09375-14.566407-35.398437-32.960938h65.929687c4.199219 0 7.605469-3.40625 7.605469-7.605469 0-4.199218-3.40625-7.601562-7.605469-7.601562h-66.03125v-197.226562c10.472657 11.34375 25.457031 18.46875 42.078125 18.46875 21.230469 0 39.78125-11.617188 49.679688-28.820313 9.894531 17.203125 28.449218 28.820313 49.675781 28.820313 21.230469 0 39.785156-11.617188 49.679687-28.820313 9.894532 17.199219 28.449219 28.820313 49.679688 28.820313 21.226562 0 39.78125-11.617188 49.679688-28.820313 9.894531 17.199219 28.449218 28.820313 49.675781 28.820313 21.230469 0 39.785156-11.617188 49.679687-28.820313 9.898438 17.199219 28.453125 28.820313 49.679688 28.820313 16.621094 0 31.601562-7.121094 42.078125-18.464844v19.675781c0 4.199219 3.402343 7.601563 7.601562 7.601563s7.605469-3.402344 7.605469-7.601563v-103.511719c0-26.710937-21.730469-48.441406-48.441406-48.441406zm-55.902344 474.800781v6.054688h-303.3125v-6.054688c0-13.464843 10.953125-24.417969 24.417969-24.417969h254.476562c13.464844 0 24.417969 10.953126 24.417969 24.417969zm-71.179688-81.921875 10.097657 42.296875h-181.148438l10.097657-42.296875zm-279.191406-257.347656c-23.199218 0-42.074218-18.875-42.074218-42.074219v-45.015625c0-18.324218 14.90625-33.234375 33.230468-33.234375h50.917969v78.25.066407c-.035156 23.171874-18.894531 42.007812-42.074219 42.007812zm99.355469 0c-23.175781 0-42.035156-18.835938-42.070313-42.007812 0-.023438 0-.042969 0-.066407v-78.25h84.148438v78.25c0 23.199219-18.878906 42.074219-42.078125 42.074219zm99.359375 0c-23.199219 0-42.074219-18.875-42.074219-42.074219v-78.25h84.148438v78.25c0 23.199219-18.875 42.074219-42.074219 42.074219zm99.359375 0c-23.199219 0-42.078125-18.875-42.078125-42.074219v-78.25h84.152344v78.25c0 23.199219-18.875 42.074219-42.074219 42.074219zm99.359375 0c-23.203125 0-42.078125-18.875-42.078125-42.074219v-78.25h50.917969c18.324218 0 33.234375 14.910157 33.234375 33.234375v45.015625c0 23.199219-18.875 42.074219-42.074219 42.074219zm0 0"/><path d="m88.84375 307.566406h103.410156c4.199219 0 7.605469-3.402344 7.605469-7.605468v-60.511719l6.007813 3.246093c1.773437.960938 3.855468 1.171876 5.789062.597657 1.933594-.578125 3.554688-1.898438 4.515625-3.671875l20.234375-37.464844c.957031-1.773438 1.175781-3.855469.597656-5.789062-.578125-1.933594-1.898437-3.554688-3.671875-4.515626l-37.464843-20.234374c-1.109376-.601563-2.351563-.914063-3.613282-.914063h-103.410156c-1.261719 0-2.503906.3125-3.613281.914063l-37.464844 20.234374c-3.695313 1.996094-5.070313 6.609376-3.074219 10.304688l20.234375 37.464844c.960938 1.773437 2.582031 3.09375 4.515625 3.671875s4.015625.363281 5.789063-.597657l6.011719-3.246093v60.511719c0 4.203124 3.402343 7.605468 7.601562 7.605468zm78.527344-121.65625c-3.320313 11.691406-14.082032 20.28125-26.820313 20.28125-12.742187 0-23.503906-8.59375-26.820312-20.28125zm-92.675782 39.792969-13.011718-24.082031 29.085937-15.710938h7.375c3.601563 20.144532 21.238281 35.488282 42.40625 35.488282 21.164063 0 38.800781-15.34375 42.402344-35.488282h7.378906l29.082031 15.710938-13.007812 24.082031-10.539062-5.691406c-2.351563-1.273438-5.207032-1.214844-7.507813.15625-2.300781 1.375-3.707031 3.855469-3.707031 6.53125v65.660156h-88.203125v-65.660156c0-2.679688-1.410157-5.15625-3.710938-6.53125-2.296875-1.371094-5.152343-1.429688-7.507812-.15625zm0 0"/><path d="m307.320312 199.089844h-38.019531c-4.199219 0-7.605469 3.40625-7.605469 7.605468 0 4.199219 3.40625 7.605469 7.605469 7.605469h38.019531c4.199219 0 7.601563-3.40625 7.601563-7.605469 0-4.199218-3.402344-7.605468-7.601563-7.605468zm0 0"/><path d="m459.390625 199.089844h-121.964844c-4.199219 0-7.601562 3.40625-7.601562 7.605468 0 4.199219 3.402343 7.605469 7.601562 7.605469h121.964844c4.199219 0 7.605469-3.40625 7.605469-7.605469 0-4.199218-3.40625-7.605468-7.605469-7.605468zm0 0"/><path d="m307.320312 234.066406h-38.019531c-4.199219 0-7.605469 3.40625-7.605469 7.605469s3.40625 7.605469 7.605469 7.605469h38.019531c4.199219 0 7.601563-3.40625 7.601563-7.605469s-3.402344-7.605469-7.601563-7.605469zm0 0"/><path d="m459.390625 234.066406h-121.964844c-4.199219 0-7.601562 3.40625-7.601562 7.605469s3.402343 7.605469 7.601562 7.605469h121.964844c4.199219 0 7.605469-3.40625 7.605469-7.605469s-3.40625-7.605469-7.605469-7.605469zm0 0"/><path d="m307.320312 269.042969h-38.019531c-4.199219 0-7.605469 3.40625-7.605469 7.605469 0 4.199218 3.40625 7.601562 7.605469 7.601562h38.019531c4.199219 0 7.601563-3.402344 7.601563-7.601562 0-4.199219-3.402344-7.605469-7.601563-7.605469zm0 0"/><path d="m459.390625 269.042969h-121.964844c-4.199219 0-7.601562 3.40625-7.601562 7.605469 0 4.199218 3.402343 7.601562 7.601562 7.601562h121.964844c4.199219 0 7.605469-3.402344 7.605469-7.601562 0-4.199219-3.40625-7.605469-7.605469-7.605469zm0 0"/></svg>