<svg height="496pt" viewBox="-31 0 496 496" width="496pt" xmlns="http://www.w3.org/2000/svg"><path d="m428.574219 453.992188c-2.765625-22.144532-15.335938-41.433594-34.476563-52.921876-7.570312-4.535156-14.042968-10.894531-18.722656-18.390624l-21.039062-33.664063c-8.222657-13.160156-22.398438-21.015625-37.921876-21.015625-14.988281 0-28.894531 7.449219-37.199218 19.910156l-29.742188 44.617188c-.367187.550781-.808594 1.058594-1.199218 1.59375l-4.890626-53.753906c-1.894531-20.726563-19.015624-36.367188-39.847656-36.367188h-49.335937l-1.4375-8.664062v-271.335938c0-13.230469-10.769531-24-24-24-13.234375 0-24 10.769531-24 24v271.335938l-1.441407 8.664062h-49.335937c-20.832031 0-37.953125 15.640625-39.832031 36.375l-14.152344 155.625h433.824219zm-225.039063-133.992188c12.496094 0 22.769532 9.382812 23.898438 21.832031l6 66.015625c-.058594.03125-.113282.082032-.167969.113282-5.570313 3.34375-10.480469 7.511718-14.777344 12.207031l-7.640625-84.167969h-51.3125l-2.664062-16zm-66.773437-32h-16v-224h16zm1.222656 16 5.335937 32h-29.121093l5.335937-32zm-9.222656-288c4.40625 0 8 3.59375 8 8v24h-16v-24c0-4.40625 3.589843-8 8-8zm-98.671875 325.832031c1.125-12.449219 11.398437-21.832031 23.894531-21.832031h46.664063l-2.664063 16h-51.304687l-13.09375 144h-16.066407zm19.566406 138.167969 11.640625-128h134.941406l8.328125 91.65625c-2.398437 6.929688-3.804687 14.238281-3.804687 21.734375v14.609375zm167.105469 0v-14.609375c0-17.804687 9.476562-34.550781 24.742187-43.710937 8.449219-5.070313 15.808594-12.078126 21.265625-20.273438l29.742188-44.613281c5.34375-8.007813 14.273437-12.792969 23.894531-12.792969 9.96875 0 19.074219 5.046875 24.355469 13.503906l21.039062 33.664063c6.015625 9.617187 14.335938 17.792969 24.0625 23.632812 14.898438 8.933594 24.671875 23.941407 26.832031 41.175781l3 24.023438zm0 0"/><path d="m320.761719 416h16v16h-16zm0 0"/><path d="m248.761719 448h16v16h-16zm0 0"/><path d="m304.761719 368h16v16h-16zm0 0"/><path d="m376.761719 448h16v16h-16zm0 0"/></svg>