<svg height="511pt" viewBox="0 -18 511.99969 511" width="511pt" xmlns="http://www.w3.org/2000/svg"><path d="m49.472656 309.542969c-3.65625-5.546875-12.503906-3.738281-13.777344 2.738281-1.363281 6.917969 7.019532 11.882812 12.398438 7.265625 2.878906-2.464844 3.507812-6.847656 1.378906-10.003906zm0 0"/><path d="m97.8125 306.742188c-3.070312-1.265626-6.734375-.363282-8.824219 2.230468-1.878906 2.328125-2.214843 5.613282-.851562 8.273438 1.523437 2.980468 4.957031 4.644531 8.242187 3.984375 3.132813-.628907 5.578125-3.210938 6.046875-6.363281.503907-3.371094-1.429687-6.851563-4.613281-8.125zm0 0"/><path d="m75.347656 309.542969c-3.65625-5.542969-12.488281-3.734375-13.78125 2.738281-.632812 3.191406.886719 6.503906 3.710938 8.105469 2.746094 1.550781 6.246094 1.214843 8.660156-.808594 2.914062-2.445313 3.535156-6.878906 1.410156-10.035156zm0 0"/><path d="m356.957031 361.84375c-9.640625 9.640625-25.328125 9.640625-34.96875 0-2.972656-2.972656-7.789062-2.972656-10.761719 0-2.96875 2.972656-2.96875 7.789062 0 10.761719 7.789063 7.785156 18.019532 11.679687 28.246094 11.679687 10.230469 0 20.460938-3.894531 28.25-11.679687 2.96875-2.972657 2.96875-7.789063 0-10.761719-2.972656-2.972656-7.792968-2.972656-10.765625 0zm0 0"/><path d="m389.726562 322.425781v-21.757812c0-4.203125-3.40625-7.609375-7.609374-7.609375-4.203126 0-7.609376 3.40625-7.609376 7.609375v21.757812c0 4.199219 3.40625 7.609375 7.609376 7.609375 4.203124 0 7.609374-3.410156 7.609374-7.609375zm0 0"/><path d="m296.828125 293.058594c-4.203125 0-7.609375 3.40625-7.609375 7.609375v21.753906c0 4.203125 3.40625 7.609375 7.609375 7.609375s7.609375-3.40625 7.609375-7.609375v-21.753906c0-4.203125-3.40625-7.609375-7.609375-7.609375zm0 0"/><path d="m472.195312 268.703125v-37.300781c0-1.277344-.019531-2.558594-.054687-3.835938 3.179687-2.492187 6.238281-5.179687 9.152344-8.066406 19.53125-19.351562 30.433593-45.140625 30.703125-72.617188.097656-9.621093-3.753906-19.09375-10.566406-25.992187-6.6875-6.777344-15.503907-10.527344-24.824219-10.554687-9.457031-.039063-18.449219 3.652343-25.179688 10.363281-1.015625 1.011719-1.964843 2.078125-2.839843 3.1875-6.507813-8.25-16.589844-13.550781-27.886719-13.550781-6.363281 0-12.339844 1.679687-17.507813 4.625-19.445312-10.660157-41.367187-16.277344-63.71875-16.277344-73.179687 0-132.71875 59.539062-132.71875 132.71875v37.304687c-11.003906 3.632813-18.972656 14.007813-18.972656 26.214844v38.632813h-172.53125v-24.425782c0-10.589844 8.617188-19.207031 19.207031-19.207031h139.554688c4.199219 0 7.609375-3.40625 7.609375-7.609375s-3.410156-7.609375-7.609375-7.609375h-139.554688c-18.984375 0-34.425781 15.441406-34.425781 34.425781v32.015625.019531.019532 100.445312c0 18.984375 15.441406 34.425782 34.425781 34.425782h131.433594c4.203125 0 7.609375-3.40625 7.609375-7.609376 0-4.203124-3.40625-7.609374-7.609375-7.609374h-131.433594c-10.589843 0-19.207031-8.617188-19.207031-19.207032v-92.855468h172.53125v5.742187c0 15.222656 12.386719 27.605469 27.609375 27.605469h7.773437c7.3125 0 13.964844-2.863282 18.910157-7.519532 3.796875 10.179688 9.199219 19.730469 16.078125 28.339844v38.6875c0 10.589844-8.617188 19.207032-19.207032 19.207032h-47.6875c-4.203124 0-7.609374 3.40625-7.609374 7.609374 0 4.203126 3.40625 7.609376 7.609374 7.609376h47.6875c18.984376 0 34.425782-15.441407 34.425782-34.425782v-23.203125c18.570312 15.363281 41.695312 23.726563 66.101562 23.726563 21.535156 0 42.027344-6.464844 59.527344-18.730469 1.996094.523437 4.09375.804687 6.25.804687h5.667969c10.917969 0 20.191406-7.144531 23.40625-17.003906h17.105469c11.453124 0 20.769531-9.316406 20.769531-20.765625v-5.726562c11-3.632813 18.964843-14.007813 18.964843-26.214844v-59.59375c.003907-12.210937-7.964843-22.585937-18.96875-26.21875zm-15.21875-1.390625h-1.195312c-4.453125 0-8.65625 1.066406-12.386719 2.945312v-26.796874c4.664063-1.671876 9.203125-3.675782 13.582031-6.011719zm-117.503906-153.414062c18.058594 0 35.792969 4.152343 51.832032 12.042968-2.492188 3.667969-4.316407 7.824219-5.292969 12.292969h-81.742188c-37.890625 0-68.71875 30.824219-68.71875 68.714844v63.308593c-3.726562-1.882812-7.933593-2.945312-12.386719-2.945312h-1.191406v-35.914062c0-64.789063 52.710938-117.5 117.5-117.5zm-103.917968 240.617187c0 6.828125-5.558594 12.386719-12.390626 12.386719h-7.773437c-6.832031 0-12.386719-5.558594-12.386719-12.386719v-59.597656c0-6.828125 5.554688-12.386719 12.386719-12.386719h7.773437c6.832032 0 12.390626 5.558594 12.390626 12.386719zm41.199218 46.433594c-16.753906-16.753907-25.980468-39.027344-25.980468-62.71875v-46.796875c8.007812-1.207032 14.621093-4.660156 19.710937-10.34375 8.484375-9.472656 10.277344-22.886719 10.4375-31.5625h91.957031c4.203125 0 7.609375-3.410156 7.609375-7.613282 0-4.199218-3.40625-7.609374-7.609375-7.609374h-99.886718c-2.183594 0-4.265626.953124-5.707032 2.589843-1.445312 1.640625-2.113281 3.832031-1.839844 6 .652344 5.128907.785157 20.171875-6.328124 28.074219-2.183594 2.429688-4.945313 4.074219-8.34375 4.957031v-34.007812c0-.011719-.003907-.023438-.003907-.039063v-34.929687c0-29.5 24-53.496094 53.5-53.496094h88.53125c4.203125 0 7.609375-3.410156 7.609375-7.609375 0-11.1875 9.101563-20.292969 20.289063-20.292969s20.289062 9.101563 20.289062 20.292969c0 4.199219 3.40625 7.609375 7.609375 7.609375s7.609375-3.410156 7.609375-7.609375c0-5.433594 2.117188-10.535156 5.964844-14.371094 3.832031-3.820312 8.917969-5.917968 14.324219-5.917968h.0625c5.234375.015624 10.222656 2.15625 14.042968 6.023437 3.980469 4.035156 6.234376 9.558594 6.179688 15.152344-.230469 23.441406-9.535156 45.445312-26.199219 61.953125-16.675781 16.523437-38.785156 25.621094-62.257812 25.621094h-10.078125c-4.203125 0-7.609375 3.40625-7.609375 7.609374 0 4.203126 3.40625 7.609376 7.609375 7.609376h10.078125c6.738281 0 13.378906-.644532 19.851562-1.894532v90.597656c0 13.316407-2.996093 26.414063-8.695312 38.308594-2.667969-.992187-5.550781-1.539062-8.558594-1.539062h-5.667969c-13.574218 0-24.613281 11.042968-24.613281 24.613281 0 5.425781 1.765625 10.441406 4.75 14.511719-13.808594 8.394531-29.503906 12.808594-45.917969 12.808594-23.691406 0-45.964844-9.226563-62.71875-25.980469zm134.167969 8.054687h-5.667969c-5.179687 0-9.394531-4.210937-9.394531-9.390625 0-5.179687 4.214844-9.394531 9.394531-9.394531h5.667969c5.179687 0 9.390625 4.214844 9.390625 9.394531 0 5.179688-4.210938 9.390625-9.390625 9.390625zm40.507813-17.003906h-17.105469c-.664063-2.027344-1.582031-3.941406-2.71875-5.699219 1.988281-3.804687 3.734375-7.722656 5.230469-11.734375 4.949218 4.679688 11.617187 7.554688 18.945312 7.554688h1.195312v4.335937c0 3.058594-2.484374 5.542969-5.546874 5.542969zm24.515624-37.484375c0 6.828125-5.554687 12.386719-12.386718 12.386719h-7.777344c-6.828125 0-12.386719-5.558594-12.386719-12.386719v-59.597656c0-6.828125 5.558594-12.386719 12.386719-12.386719h7.777344c6.832031 0 12.386718 5.558594 12.386718 12.386719zm0 0"/><path d="m32.363281 181.378906h72.867188l54.589843 54.589844c1.457032 1.457031 3.402344 2.230469 5.382813 2.230469.980469 0 1.96875-.191407 2.910156-.582031 2.84375-1.175782 4.699219-3.953126 4.699219-7.027344v-49.210938h6.882812c17.84375 0 32.363282-14.519531 32.363282-32.363281v-116.152344c0-17.84375-14.519532-32.363281-32.363282-32.363281h-147.332031c-17.84375 0-32.363281 14.519531-32.363281 32.363281v116.152344c0 17.84375 14.519531 32.363281 32.363281 32.363281zm-17.144531-148.515625c0-9.453125 7.691406-17.144531 17.144531-17.144531h147.332031c9.453126 0 17.144532 7.691406 17.144532 17.144531v116.152344c0 9.453125-7.691406 17.144531-17.144532 17.144531h-14.492187c-4.203125 0-7.609375 3.40625-7.609375 7.609375v38.449219l-43.832031-43.832031c-1.425781-1.425781-3.359375-2.226563-5.378907-2.226563h-76.019531c-9.453125 0-17.144531-7.691406-17.144531-17.144531zm0 0"/><path d="m53.269531 365.023438h-18.265625c-4.203125 0-7.609375 3.40625-7.609375 7.609374 0 4.203126 3.40625 7.609376 7.609375 7.609376h18.265625c4.203125 0 7.609375-3.40625 7.609375-7.609376 0-4.203124-3.40625-7.609374-7.609375-7.609374zm0 0"/><path d="m146.613281 365.023438h-68.992187c-4.203125 0-7.609375 3.40625-7.609375 7.609374 0 4.203126 3.40625 7.609376 7.609375 7.609376h68.992187c4.203125 0 7.609375-3.40625 7.609375-7.609376 0-4.203124-3.40625-7.609374-7.609375-7.609374zm0 0"/><path d="m53.269531 395.96875h-18.265625c-4.203125 0-7.609375 3.40625-7.609375 7.609375s3.40625 7.609375 7.609375 7.609375h18.265625c4.203125 0 7.609375-3.40625 7.609375-7.609375s-3.40625-7.609375-7.609375-7.609375zm0 0"/><path d="m146.613281 395.96875h-68.992187c-4.203125 0-7.609375 3.40625-7.609375 7.609375s3.40625 7.609375 7.609375 7.609375h68.992187c4.203125 0 7.609375-3.40625 7.609375-7.609375s-3.40625-7.609375-7.609375-7.609375zm0 0"/><path d="m53.269531 426.914062h-18.265625c-4.203125 0-7.609375 3.410157-7.609375 7.609376 0 4.203124 3.40625 7.613281 7.609375 7.613281h18.265625c4.203125 0 7.609375-3.410157 7.609375-7.613281 0-4.199219-3.40625-7.609376-7.609375-7.609376zm0 0"/><path d="m146.613281 426.914062h-68.992187c-4.203125 0-7.609375 3.410157-7.609375 7.609376 0 4.203124 3.40625 7.613281 7.609375 7.613281h68.992187c4.203125 0 7.609375-3.410157 7.609375-7.613281 0-4.199219-3.40625-7.609376-7.609375-7.609376zm0 0"/><path d="m89.628906 115.972656c-2.324218-1.800781-4.15625-3.226562-6.25-3.226562-4.199218 0-7.359375 5.542968-7.359375 9.136718 0 6.804688 10.472657 14.972657 25.535157 15.894532v.664062c0 1.894532.875 3.664063 2.382812 4.828125.890625.839844 2.183594 1.324219 3.550781 1.324219.03125 0 .0625-.003906.132813-.007812l.089844.007812c3.390624 0 6.152343-2.761719 6.152343-6.152344v-1.351562c14.09375-3 22.175781-12.742188 22.175781-26.753906 0-15.863282-10.636718-22.195313-22.175781-26.648438v-22.339844c3.75.582032 6.261719 1.855469 8.292969 2.882813 1.730469.875 3.09375 1.566406 4.617188 1.566406 4.871093 0 6.980468-5.964844 6.980468-9.007813 0-6.507812-10.230468-9.515624-19.890625-10.171874v-1.390626c0-3.394531-2.761719-6.15625-6.15625-6.15625-3.390625 0-6.152343 2.761719-6.152343 6.15625v1.777344c-14.78125 2.460938-23.25 11.472656-23.25 24.757813 0 16.328125 13.382812 21.457031 23.25 25.167969v25.066406c-5.488282-1.027344-9.050782-3.792969-11.925782-6.023438zm4.664063-45.859375c0-3.871093 2.507812-6.644531 7.261719-8.035156v16.929687c-3.816407-1.742187-7.261719-4.066406-7.261719-8.894531zm19.570312 51.074219v-19.042969c4.273438 2.507813 6.1875 5.554688 6.1875 9.839844 0 4.3125-2.136719 7.488281-6.1875 9.203125zm0 0"/><path d="m294.75 15.988281h184.664062c4.203126 0 7.609376-3.40625 7.609376-7.609375s-3.40625-7.609375-7.609376-7.609375h-184.664062c-4.203125 0-7.609375 3.40625-7.609375 7.609375s3.40625 7.609375 7.609375 7.609375zm0 0"/><path d="m479.414062 31.605469h-135.960937c-4.203125 0-7.609375 3.40625-7.609375 7.609375s3.40625 7.609375 7.609375 7.609375h135.960937c4.203126 0 7.609376-3.40625 7.609376-7.609375s-3.40625-7.609375-7.609376-7.609375zm0 0"/></svg>