<svg height="496pt" viewBox="-96 0 496 496" width="496pt" xmlns="http://www.w3.org/2000/svg"><path d="m298.910156 391.457031-10.726562-32.183593 6.167968-43.144532c1.097657-7.664062 1.648438-15.480468 1.648438-23.242187 0-25.367188-6-50.773438-17.34375-73.472657-5.671875-11.324218-15.167969-20.398437-26.734375-25.542968l-51.921875-23.070313v-25.511719l38.894531-116.671874c.738281-2.234376 1.105469-4.539063 1.105469-6.847657 0-12-9.769531-21.769531-21.769531-21.769531h-101.285157c-11.546874 0-20.945312 9.390625-20.945312 20.945312 0 3.230469.769531 6.46875 2.207031 9.367188l4.847657 9.6875h-3.253907c-15.328125 0-27.800781 12.472656-27.800781 27.800781 0 3.917969.808594 7.71875 2.390625 11.296875l29.609375 66.605469v25.097656l-51.921875 23.078125c-11.566406 5.144532-21.0625 14.21875-26.734375 25.546875-11.34375 22.695313-17.34375 48.09375-17.34375 73.460938 0 7.761719.550781 15.570312 1.648438 23.234375l6.167968 43.144531-10.726562 32.183594c-3.378906 10.117187-5.089844 20.664062-5.089844 31.328125 0 17.949218 4.878906 35.574218 14.121094 50.964844 8.230468 13.730468 23.292968 22.257812 39.304687 22.257812h197.160157c16.007812 0 31.070312-8.527344 39.300781-22.257812 9.234375-15.390626 14.113281-33.015626 14.113281-50.964844 0-10.664063-1.710938-21.210938-5.089844-31.320313zm-210.910156-323.65625c0-6.503906 5.289062-11.800781 11.800781-11.800781h11.253907l17.792968 35.574219 14.3125-7.160157-30.632812-61.261718c-.351563-.679688-.527344-1.449219-.527344-2.207032 0-2.730468 2.214844-4.945312 4.945312-4.945312h72.367188l-12.984375 44.144531 15.34375 4.511719 14.3125-48.65625h12.246094c3.183593 0 5.769531 2.585938 5.769531 5.769531 0 .613281-.105469 1.246094-.289062 1.824219l-37.472657 112.40625h-15.550781l13.457031-45.742188-15.34375-4.515624-14.785156 50.257812h-36.816406l-28.183594-63.40625c-.671875-1.515625-1.015625-3.128906-1.015625-4.792969zm96 84.199219v16h-64v-16zm92.167969 313.503906c-5.359375 8.945313-15.167969 14.496094-25.59375 14.496094h-197.148438c-10.425781 0-20.226562-5.550781-25.585937-14.496094-7.742188-12.894531-11.839844-27.671875-11.839844-42.726562 0-8.945313 1.441406-17.777344 4.257812-26.257813l5.222657-15.664062 8.3125 16.625 25.765625 17.175781 8.875-13.3125-22.234375-14.824219-14.464844-28.933593-6.246094-43.730469c-.992187-6.910157-1.488281-13.96875-1.488281-20.96875 0-22.894531 5.414062-45.832031 15.65625-66.3125 4.007812-8.015625 10.734375-14.4375 18.917969-18.078125l55.121093-24.496094h76.609376l55.121093 24.496094c8.183594 3.648437 14.910157 10.0625 18.917969 18.078125 10.242188 20.488281 15.65625 43.417969 15.65625 66.3125 0 7-.496094 14.058593-1.496094 20.96875l-2.808594 19.648437-11.695312-23.390625v-30.113281h-16v33.886719l24.59375 49.191406 11.140625 33.441406c2.824219 8.480469 4.265625 17.3125 4.265625 26.257813 0 15.054687-4.097656 29.832031-11.832031 42.726562zm0 0"/><path d="m223.304688 345.511719c.40625-3.144531.695312-6.304688.695312-9.511719 0-39.703125-32.296875-72-72-72s-72 32.296875-72 72 32.296875 72 72 72v-16c-30.871094 0-56-25.128906-56-56s25.128906-56 56-56 56 25.128906 56 56c0 4.632812-.617188 9.167969-1.71875 13.585938l-15.425781-25.707032-13.71875 8.234375 28.710937 47.847657 47.152344-37.722657-10-12.496093zm0 0"/></svg>