<svg height="496pt" viewBox="-108 0 496 496" width="496pt" xmlns="http://www.w3.org/2000/svg"><path d="m263.3125 287.246094c11.070312-24.917969 16.6875-51.382813 16.6875-78.636719v-108.609375c0-15.441406-12.558594-28-28-28-4.3125 0-8.351562 1.0625-12 2.808594v-18.808594c0-17.648438-14.351562-32-32-32-5.992188 0-11.542969 1.761719-16.34375 4.632812-1.703125-16.039062-15.160156-28.632812-31.65625-28.632812s-29.953125 12.59375-31.65625 28.632812c-4.800781-2.871093-10.351562-4.632812-16.34375-4.632812-17.648438 0-32 14.351562-32 32v121.128906l-17.816406-32.058594c-5.839844-10.527343-16.953125-17.070312-29.007813-17.070312-18.296875 0-33.175781 14.886719-33.175781 33.183594v1.785156c0 4.414062.855469 8.703125 2.550781 12.757812l33.617188 80.679688c3.078125 7.402344 6.65625 14.664062 10.617187 21.585938l1.808594 3.167968c15.308594 26.792969 23.40625 57.273438 23.40625 88.136719v62.703125c-8.824219 0-16 7.175781-16 16v32c0 8.824219 7.175781 16 16 16h176c8.824219 0 16-7.175781 16-16v-32c0-8.824219-7.175781-16-16-16v-72.601562c0-25.015626 5.152344-49.285157 15.3125-72.152344zm-15.296875 192.753906h-176.015625v-32h176zm-16.015625-120.601562v72.601562h-144v-62.703125c0-33.648437-8.824219-66.863281-25.511719-96.066406l-1.808593-3.167969c-3.632813-6.359375-6.910157-13.023438-9.742188-19.804688l-33.617188-80.691406c-.871093-2.09375-1.320312-4.320312-1.320312-6.597656v-1.785156c0-9.480469 7.703125-17.183594 17.175781-17.183594 6.238281 0 12 3.382812 15.023438 8.839844l31.800781 57.230468v4.632813l-7.585938 22.769531 15.171876 5.0625 8.414062-25.238281v-161.296875c0-8.824219 7.175781-16 16-16s16 7.175781 16 16v152h16v-176c0-8.824219 7.175781-16 16-16s16 7.175781 16 16v176h16v-152c0-8.824219 7.175781-16 16-16s16 7.175781 16 16v152h16v-108c0-6.617188 5.382812-12 12-12s12 5.382812 12 12v108.609375c0 25.007813-5.152344 49.285156-15.3125 72.144531-11.070312 24.917969-16.6875 51.382813-16.6875 78.644532zm0 0"/><path d="m219.152344 268.441406 14.917968 5.816406c2.28125-5.144531 4.320313-10.449218 6.058594-15.769531l-15.199218-4.96875c-1.578126 4.808594-3.425782 9.601563-5.777344 14.921875zm0 0"/><path d="m200 359.398438v40.601562h16v-40.601562c0-23.558594 3.894531-46.703126 11.585938-68.765626l-15.113282-5.265624c-8.28125 23.761718-12.472656 48.671874-12.472656 74.03125zm0 0"/></svg>