<svg height="496pt" viewBox="0 0 496.00002 496" width="496pt" xmlns="http://www.w3.org/2000/svg"><path d="m465.199219 128c-3.351563 0-6.574219.664062-9.664063 1.710938-3.09375-23.503907-23.207031-41.710938-47.535156-41.710938-20.640625 0-38.574219 13.113281-45.207031 32.089844-8.847657-.5625-17.546875 1.4375-25.320313 5.652344-9.199218-9.078126-21.570312-14.175782-34.609375-13.726563-3.757812-13.824219-16.421875-24.015625-31.421875-24.015625-6.464844 0-12.707031 1.886719-18.066406 5.472656l-50.414062 33.605469c-8.25-4.558594-17.433594-7.078125-26.960938-7.078125-28.152344 0-51.457031 20.902344-55.359375 48h-24.640625v-32h-96v176h96v-32h120v64c0 17.648438 14.351562 32 32 32s32-14.351562 32-32v-64h3.246094c3.675781 0 7.363281-.367188 10.984375-1.089844l97.769531-19.550781v68.640625c0 13.230469 10.769531 24 24 24s24-10.769531 24-24v-86.472656c13.710938-7.917969 22.585938-22.152344 23.761719-37.984375l23.382812-23.390625c5.710938-5.703125 8.855469-13.296875 8.855469-21.808594.007812-8.105469-3.152344-15.71875-8.886719-21.457031-5.738281-5.726563-13.371093-8.886719-21.914062-8.886719zm-289.199219 8c3.816406 0 7.558594.566406 11.160156 1.617188l-39.535156 26.351562c-3.25 2.160156-6.9375 3.4375-10.769531 3.847656 3.792969-18.144531 19.898437-31.816406 39.144531-31.816406zm-96 160h-64v-144h64zm136-116.28125v84.28125h-120v-80h38.3125c7.917969 0 15.589844-2.328125 22.183594-6.71875l105.761718-70.503906c2.71875-1.816406 5.902344-2.777344 9.183594-2.777344 9.132813 0 16.558594 7.433594 16.558594 16.558594v2.289062c0 5.550782-2.761719 10.703125-7.375 13.785156zm75.105469 83.503906c-2.59375.519532-5.234375.777344-7.859375.777344h-3.246094v-48h90.742188.019531c4.328125 9.335938 12.070312 19.535156 21.238281 25.375v1.664062zm137.6875-33.925781-4.792969 2.09375v96.609375c0 4.414062-3.585938 8-8 8s-8-3.585938-8-8v-96.609375l-4.792969-2.09375c-7.542969-3.304687-16.496093-14.351563-19.535156-24.121094l-2.085937-6.664062-6.890626 1.167969c-1.296874.207031-2.617187.320312-3.953124.320312h-106.742188v144c0 8.824219-7.175781 16-16 16s-16-7.175781-16-16v-155.71875l57.503906-38.335938c7.632813-5.082031 12.679688-13.050781 14.097656-21.945312 10.390626-.390625 19.742188 4.625 25.972657 12.976562l4.824219 6.457032 6.425781-4.859375c5.671875-4.300781 12.3125-6.574219 19.175781-6.574219 2.207031 0 4.488281.273438 6.960938.824219l8.167968 1.816406 1.457032-8.234375c2.703124-15.300781 15.917968-26.40625 31.414062-26.40625 17.648438 0 32 14.351562 32 32 0 8.863281-3.625 17.136719-10.214844 23.296875l-8.03125 7.511719 9.621094 5.328125c10.257812 5.679687 16.625 16.359375 16.625 27.863281 0 12.6875-7.535156 24.183594-19.207031 29.296875zm47.039062-60.449219-14.808593 14.808594c-2.832032-7.671875-7.574219-14.585938-13.894532-19.976562 3.160156-4.40625 5.429688-9.289063 6.917969-14.441407l1.050781-1.046875c5.160156-5.167968 14.992188-5.679687 20.703125.007813 2.703125 2.710937 4.199219 6.3125 4.199219 10.585937 0 3.800782-1.480469 7.382813-4.167969 10.0625zm0 0"/><path d="m248 390.113281-28.609375 57.230469c-2.222656 4.425781-3.390625 9.375-3.390625 14.320312v2.335938c0 17.648438 14.351562 32 32 32s32-14.351562 32-32v-2.335938c0-4.9375-1.167969-9.878906-3.375-14.3125zm16 73.886719c0 8.824219-7.175781 16-16 16s-16-7.175781-16-16v-2.335938c0-2.472656.585938-4.945312 1.695312-7.160156l14.304688-28.617187 14.3125 28.609375c1.101562 2.222656 1.6875 4.695312 1.6875 7.167968zm0 0"/><path d="m416 366.121094-28.625 57.238281c-2.207031 4.425781-3.375 9.367187-3.375 14.304687v2.335938c0 17.648438 14.351562 32 32 32s32-14.351562 32-32v-2.335938c0-4.9375-1.167969-9.878906-3.375-14.3125zm16 73.878906c0 8.824219-7.175781 16-16 16s-16-7.175781-16-16v-2.335938c0-2.472656.585938-4.945312 1.6875-7.160156l14.3125-28.625 14.3125 28.617188c1.101562 2.222656 1.6875 4.695312 1.6875 7.167968zm0 0"/><path d="m400 120h16v16h-16zm0 0"/><path d="m408 192h16v16h-16zm0 0"/><path d="m296 168h16v16h-16zm0 0"/><path d="m192 64c17.648438 0 32-14.351562 32-32s-14.351562-32-32-32-32 14.351562-32 32 14.351562 32 32 32zm0-48c8.824219 0 16 7.175781 16 16s-7.175781 16-16 16-16-7.175781-16-16 7.175781-16 16-16zm0 0"/><path d="m336 96c13.230469 0 24-10.769531 24-24s-10.769531-24-24-24-24 10.769531-24 24 10.769531 24 24 24zm0-32c4.414062 0 8 3.59375 8 8s-3.585938 8-8 8-8-3.59375-8-8 3.585938-8 8-8zm0 0"/><path d="m464 64c17.648438 0 32-14.351562 32-32s-14.351562-32-32-32-32 14.351562-32 32 14.351562 32 32 32zm0-48c8.824219 0 16 7.175781 16 16s-7.175781 16-16 16-16-7.175781-16-16 7.175781-16 16-16zm0 0"/><path d="m48 112c13.230469 0 24-10.769531 24-24s-10.769531-24-24-24-24 10.769531-24 24 10.769531 24 24 24zm0-32c4.414062 0 8 3.59375 8 8s-3.585938 8-8 8-8-3.59375-8-8 3.585938-8 8-8zm0 0"/><path d="m264 40h16v16h-16zm0 0"/><path d="m120 88h16v16h-16zm0 0"/></svg>