<svg height="496pt" viewBox="0 0 496 496" width="496pt" xmlns="http://www.w3.org/2000/svg"><path d="m448 312h39.542969l-51.429688-72h-12.113281v-40h-40v-80h37.390625l-64.605469-120h-217.570312l-64.605469 120h37.390625v80h-40v40h-12.121094l-51.429687 72h39.550781v168h-16v16h432v-16h-16zm-16 168h-16v-22.238281c4.871094-4.394531 8-10.699219 8-17.761719 0-11.152344-7.640625-20.542969-18.34375-23.207031-4.375-10-14.390625-16.792969-25.65625-16.792969-1.359375 0-2.671875.257812-4 .457031v-81.144531c1.769531.40625 3.558594.6875 5.375.6875h2.503906c7.082032 0 13.394532-3.128906 17.808594-8h30.3125zm-152 0h-64v-112h64zm-80-128v128h-24v-22.238281c4.871094-4.394531 8-10.699219 8-17.761719 0-11.152344-7.640625-20.542969-18.34375-23.207031-4.375-10-14.390625-16.792969-25.65625-16.792969-1.359375 0-2.671875.257812-4 .457031v-90.457031l112-84 112 84v90.457031c-1.328125-.199219-2.640625-.457031-4-.457031-11.214844 0-21.191406 6.726562-25.601562 16.664062-10.542969 2.519532-18.398438 12.03125-18.398438 23.335938 0 7.0625 3.128906 13.359375 8 17.761719v22.238281h-24v-128zm-64-136v24h-16v-24zm16 0h23.535156l-23.535156 18.304688zm86.601562-28.777344c5.34375-4.167968 13.453126-4.167968 18.796876 0l131.472656 102.25c1.960937 1.527344 3.128906 3.925782 3.128906 6.40625 0 4.480469-3.640625 8.121094-8.121094 8.121094h-2.503906c-1.773438 0-3.453125-.558594-4.871094-1.625l-128.503906-96.375-128.496094 96.375c-1.425781 1.066406-3.105468 1.625-4.878906 1.625h-2.503906c-4.480469 0-8.121094-3.640625-8.121094-8.121094 0-2.488281 1.167969-4.878906 3.136719-6.40625zm137.398438 28.777344v24h-16v-24zm-32 18.304688-23.535156-18.304688h23.535156zm56 213.695312h-64c-4.414062 0-8-3.59375-8-8 0-4.28125 3.382812-7.792969 7.617188-7.992188l7.292968.222657 1.328125-6.621094c1.121094-5.570313 6.066407-9.609375 11.761719-9.609375 3.222656 0 5.6875 1.34375 7.175781 2.472656l4.824219 3.640625 4.824219-3.640625c1.488281-1.128906 3.953125-2.472656 7.175781-2.472656 5.695312 0 10.640625 4.039062 11.761719 9.617188l1.328125 6.621093 7.261718-.222656c4.25.175781 7.648438 3.6875 7.648438 7.984375 0 4.40625-3.585938 8-8 8zm-276.824219-29.527344 4.824219 3.640625 4.824219-3.640625c1.488281-1.128906 3.953125-2.472656 7.175781-2.472656 5.695312 0 10.640625 4.039062 11.761719 9.617188l1.328125 6.621093 7.261718-.222656c4.25.175781 7.648438 3.6875 7.648438 7.984375 0 4.40625-3.585938 8-8 8h-64c-4.414062 0-8-3.59375-8-8 0-4.28125 3.382812-7.792969 7.617188-7.992188l7.292968.222657 1.328125-6.621094c1.121094-5.570313 6.066407-9.609375 11.761719-9.609375 3.222656 0 5.6875 1.34375 7.175781 2.472656zm36.824219 45.527344v16h-64v-16zm176 0h64v16h-64zm120.457031-168h-48.464843c0-.039062.007812-.078125.007812-.121094 0-7.496094-3.390625-14.429687-9.304688-19.039062l-26.800781-20.839844h55.984375zm-48.457031-56h-16v-24h16zm-30.105469-167.039062-6.519531 3.640624-20.613281-11.53125-20.59375 11.523438-20.582031-11.523438-20.578126 11.523438-20.558593-11.53125-20.527344 11.523438-20.570313-11.523438-20.566406 11.523438-20.554687-11.523438-20.558594 11.523438-20.550781-11.523438-20.554688 11.523438-6.4375-3.617188 14.128906-26.234375 12.886719 7.234375 17.136719-9.601562 17.125 9.601562 17.136719-9.601562 17.136719 9.601562 17.144531-9.601562 17.136719 9.601562 17.117187-9.601562 17.136719 9.601562 17.152344-9.601562 17.160156 9.601562 17.160156-9.609375 17.183594 9.601563 12.953125-7.242188zm-30.679687-56.960938 8.960937 16.640625-5.367187 3-17.183594-9.601563-17.160156 9.601563-17.160156-9.601563-17.152344 9.601563-17.136719-9.609375-17.121094 9.601562-17.132812-9.601562-17.144531 9.601562-17.136719-9.601562-17.136719 9.601562-17.128906-9.601562-17.136719 9.601562-5.300781-2.976562 9.007812-16.65625zm-236.703125 71.0625 14.023437 7.875 20.554688-11.523438 20.550781 11.523438 20.558594-11.523438 20.554687 11.523438 20.566406-11.53125 20.566407 11.53125 20.527343-11.523438 20.5625 11.523438 20.574219-11.523438 20.585938 11.523438 20.589843-11.53125 20.617188 11.523438 14.105469-7.882813 9.160156 16.953125h-293.21875zm17.488281 32.9375h240v80h-68.105469l-32.664062-25.40625c-10.933594-8.496094-27.511719-8.496094-38.453125 0l-32.664063 25.40625h-68.113281zm-40 96h16v24h-16zm-19.878906 40h55.992187l-26.808593 20.847656c-5.914063 4.609375-9.304688 11.542969-9.304688 19.03125 0 .042969.007812.082032.007812.121094h-48.464843zm-4.121094 56h30.304688c4.414062 4.871094 10.726562 8 17.808593 8h2.503907c1.816406 0 3.605468-.28125 5.375-.6875v81.144531c-1.320313-.199219-2.632813-.457031-3.992188-.457031-11.214844 0-21.191406 6.726562-25.601562 16.664062-10.542969 2.519532-18.398438 12.03125-18.398438 23.335938 0 7.0625 3.128906 13.359375 8 17.761719v22.238281h-16zm0 0"/><path d="m248 256c-22.054688 0-40 17.945312-40 40s17.945312 40 40 40 40-17.945312 40-40-17.945312-40-40-40zm22.527344 32h-14.527344v-14.527344c6.777344 2.414063 12.113281 7.75 14.527344 14.527344zm-30.527344-14.527344v14.527344h-14.527344c2.414063-6.777344 7.75-12.113281 14.527344-14.527344zm-14.527344 30.527344h14.527344v14.527344c-6.777344-2.414063-12.113281-7.75-14.527344-14.527344zm30.527344 14.527344v-14.527344h14.527344c-2.414063 6.777344-7.75 12.113281-14.527344 14.527344zm0 0"/><path d="m232 416h16v16h-16zm0 0"/><path d="m352 136h-48v48h48zm-16 32h-16v-16h16zm0 0"/><path d="m144 136v48h48v-48zm32 32h-16v-16h16zm0 0"/><path d="m480 480h16v16h-16zm0 0"/><path d="m0 480h16v16h-16zm0 0"/></svg>