<svg height="512pt" viewBox="0 -8 512.00002 512" width="512pt" xmlns="http://www.w3.org/2000/svg"><path d="m381.660156 233.570312c0 13.757813 11.253906 18.082032 19.570313 21.210938v21.019531c-4.585938-.871093-7.566407-3.1875-9.972657-5.054687-1.964843-1.519532-3.511718-2.722656-5.285156-2.722656-3.558594 0-6.234375 4.6875-6.234375 7.726562 0 5.742188 8.8125 12.625 21.492188 13.417969v.519531c0 1.609375.738281 3.109375 2.015625 4.09375.757812.714844 1.855468 1.125 3.015625 1.125h.1875c2.875 0 5.21875-2.34375 5.21875-5.21875v-1.105469c11.863281-2.535156 18.660156-10.742187 18.660156-22.550781 0-13.359375-8.945313-18.699219-18.660156-22.449219v-18.730469c3.125.492188 5.222656 1.554688 6.917969 2.414063 1.460937.742187 2.613281 1.324219 3.90625 1.324219 4.128906 0 5.914062-5.046875 5.914062-7.621094 0-5.496094-8.601562-8.039062-16.738281-8.601562v-1.132813c0-2.875-2.34375-5.21875-5.21875-5.21875-2.878907 0-5.21875 2.34375-5.21875 5.21875v1.464844c-12.441407 2.082031-19.570313 9.679687-19.570313 20.871093zm13.535156-1.386718c0-3.226563 2.085938-5.539063 6.035157-6.710938v14.132813c-3.179688-1.457031-6.035157-3.40625-6.035157-7.421875zm16.472657 42.921875v-15.894531c3.539062 2.09375 5.125 4.640624 5.125 8.210937 0 3.59375-1.769531 6.242187-5.125 7.683594zm0 0"/><path d="m234.902344 362.121094c1.488281 1.484375 3.433594 2.226562 5.378906 2.226562s3.890625-.742187 5.378906-2.226562l31.429688-31.429688c2.96875-2.96875 2.96875-7.785156 0-10.753906-2.972656-2.96875-7.785156-2.96875-10.753906 0l-31.429688 31.429688c-2.972656 2.96875-2.972656 7.785156-.003906 10.753906zm0 0"/><path d="m232.007812 327.578125c2.800782 1.894531 6.625 1.628906 9.179688-.566406 2.304688-1.980469 3.207031-5.253907 2.25-8.136719-.976562-2.945312-3.726562-5.058594-6.839844-5.210938-3.25-.15625-6.285156 1.835938-7.457031 4.863282-1.265625 3.265625-.074219 7.117187 2.867187 9.050781zm0 0"/><path d="m270.390625 355.421875c-2.269531 2.269531-2.847656 5.800781-1.464844 8.691406 1.390625 2.902344 4.585938 4.609375 7.769531 4.230469 3.34375-.398438 6.105469-3.097656 6.589844-6.429688.457032-3.128906-1.113281-6.300781-3.902344-7.796874-2.921874-1.570313-6.640624-1.046876-8.992187 1.304687zm0 0"/><path d="m97.4375 307.496094c1.386719 2.257812 3.84375 3.625 6.476562 3.625.089844 0 .179688-.003906.265626-.003906 2.734374-.097657 5.207031-1.652344 6.476562-4.078126l23.320312-44.609374c1.945313-3.722657.503907-8.316407-3.21875-10.261719-3.71875-1.945313-8.316406-.507813-10.261718 3.214843l-17.113282 32.742188-10.222656-16.628906c-2.199218-3.582032-6.882812-4.695313-10.460937-2.496094s-4.695313 6.878906-2.496094 10.457031zm0 0"/><path d="m511.996094 66.800781v-18.359375c0-26.710937-21.730469-48.441406-48.441406-48.441406h-78.734376c-4.199218 0-7.601562 3.40625-7.601562 7.605469s3.402344 7.601562 7.601562 7.601562h12.609376v78.25c0 23.199219-18.875 42.074219-42.074219 42.074219s-42.074219-18.875-42.074219-42.074219v-78.25h46.191406c4.203125 0 7.605469-3.402343 7.605469-7.601562s-3.402344-7.605469-7.605469-7.605469h-311.03125c-26.710937 0-48.441406 21.730469-48.441406 48.441406v18.34375.019532 188.960937c0 4.199219 3.402344 7.601563 7.605469 7.601563 4.199219 0 7.601562-3.402344 7.601562-7.601563v-123.488281c10.472657 11.34375 25.457031 18.464844 42.078125 18.464844 16.617188 0 31.597656-7.117188 42.070313-18.457032v47.164063c-2.851563.808593-5.609375 2.058593-8.167969 3.789062l-33.433594 22.601563c-7.753906 5.242187-12.386718 13.960937-12.386718 23.324218v96.273438c0 1.378906.105468 2.734375.296874 4.058594h-30.457031v-48.382813c0-4.203125-3.402343-7.605469-7.601562-7.605469-4.203125 0-7.605469 3.402344-7.605469 7.605469v61.054688c0 27.964843 22.746094 50.714843 50.703125 50.714843h109.183594l-10.097657 42.292969h-21.03125c-21.847656 0-39.625 17.777344-39.625 39.625v13.660157c0 4.199218 3.40625 7.605468 7.605469 7.605468h318.515625c4.203125 0 7.605469-3.40625 7.605469-7.605468v-13.660157c0-21.847656-17.773437-39.625-39.625-39.625h-21.03125l-10.097656-42.292969h109.179687c27.964844 0 50.714844-22.75 50.714844-50.714843zm-15.207032-18.359375v45.015625c0 23.199219-18.875 42.074219-42.078124 42.074219-23.199219 0-42.074219-18.875-42.074219-42.074219v-78.25h50.917969c18.324218 0 33.234374 14.910157 33.234374 33.234375zm-91.753906 149.085938c4.199219 0 7.601563-3.40625 7.601563-7.605469v-20.65625l33.082031 22.363281c3.566406 2.410156 5.695312 6.421875 5.695312 10.726563v91.203125c0 7.140625-5.808593 12.949218-12.949218 12.949218h-66.863282c-7.140624 0-12.949218-5.808593-12.949218-12.949218v-91.203125c0-4.304688 2.132812-8.316407 5.695312-10.726563l33.082032-22.363281v20.65625c0 4.199219 3.40625 7.605469 7.605468 7.605469zm-49.679687-46.785156c16.617187 0 31.601562-7.121094 42.074219-18.464844v20.363281c-2.847657.804687-5.609376 2.058594-8.164063 3.785156l-33.433594 22.601563c-7.757812 5.242187-12.386719 13.964844-12.386719 23.328125v91.203125c0 15.523437 12.628907 28.15625 28.152344 28.15625h66.867188c15.523437 0 28.15625-12.632813 28.15625-28.15625v-91.203125c0-9.363281-4.628906-18.085938-12.386719-23.328125l-33.433594-22.601563c-2.554687-1.730469-5.316406-2.980469-8.167969-3.785156v-20.363281c10.476563 11.34375 25.457032 18.460937 42.078126 18.460937 16.617187 0 31.601562-7.117187 42.074218-18.460937l.007813 197.21875h-179.207031v-40.511719c0-9.363281-4.632813-18.082031-12.386719-23.328125l-33.433594-22.601562c-2.558594-1.726563-5.316406-2.980469-8.167969-3.785157v-89.046875c18.003906-2.402344 33.382813-13.1875 42.078125-28.300781 9.894531 17.203125 28.449219 28.820313 49.679688 28.820313zm-199.195313 55.097656-33.433594-22.601563c-2.554687-1.730469-5.316406-2.980469-8.164062-3.789062v-47.171875c10.472656 11.34375 25.453125 18.464844 42.074219 18.464844 21.230469 0 39.785156-11.617188 49.679687-28.820313 8.691406 15.113281 24.070313 25.898437 42.074219 28.300781v89.046875c-2.847656.804688-5.609375 2.058594-8.164063 3.785157l-33.433593 22.601562c-7.757813 5.246094-12.386719 13.964844-12.386719 23.328125v40.511719h-26.15625c.191406-1.324219.296875-2.679688.296875-4.058594v-96.273438c0-9.359374-4.628906-18.082031-12.386719-23.324218zm53.453125 179.417968v-96.273437c0-4.304687 2.132813-8.316406 5.699219-10.726563l33.078125-22.367187v20.660156c0 4.199219 3.40625 7.601563 7.605469 7.601563 4.199218 0 7.605468-3.402344 7.605468-7.601563v-20.660156l33.078126 22.367187c3.566406 2.410157 5.699218 6.417969 5.699218 10.726563v96.234375c0 .019531-.003906.039062-.003906.058594v.019531c-.019531 7.121094-5.820312 12.910156-12.945312 12.910156h-66.867188c-7.136719 0-12.949219-5.808593-12.949219-12.949219zm88.457031-291.800781c0 23.203125-18.875 42.078125-42.074218 42.078125-23.199219 0-42.074219-18.875-42.074219-42.078125v-78.25h84.148437zm-99.359374 0c0 23.203125-18.875 42.078125-42.074219 42.078125-23.167969 0-42.019531-18.824218-42.074219-41.976562 0-.035156.003906-.066406.003906-.097656v-78.25h84.144532zm-141.425782 42.074219c-23.199218 0-42.078125-18.875-42.078125-42.074219v-45.015625c0-18.324218 14.910157-33.234375 33.234375-33.234375h50.914063v78.445313c-.109375 23.109375-18.9375 41.878906-42.070313 41.878906zm3.292969 93.636719c0-4.308594 2.128906-8.316407 5.695313-10.730469l33.082031-22.363281v20.65625c0 4.199219 3.402343 7.605469 7.601562 7.605469 4.203125 0 7.605469-3.40625 7.605469-7.605469v-20.65625l33.082031 22.363281c3.566407 2.410156 5.695313 6.421875 5.695313 10.730469v96.273437c0 7.136719-5.808594 12.945313-12.949219 12.945313h-66.863281c-7.140625 0-12.949219-5.808594-12.949219-12.945313zm-45.269531 115.535156h37.710937c5.136719 5.46875 12.429688 8.894531 20.503907 8.894531h66.867187c8.078125 0 15.367187-3.425781 20.507813-8.894531h33.507812v32.972656h-143.703125c-18.71875 0-34.089844-14.574219-35.394531-32.972656zm392.34375 130.097656v6.058594h-303.3125v-6.058594c0-13.460937 10.957031-24.414062 24.417968-24.414062h254.476563c13.464844 0 24.417969 10.953125 24.417969 24.414062zm-61.085938-39.625h-181.144531l10.097656-42.292969h19.945313c3.332031 11.832032 14.214844 20.53125 27.097656 20.53125h66.867188c12.882812 0 23.761718-8.699218 27.097656-20.53125h19.941406zm114.71875-57.5h-143.699218v-32.972656h179.105468c-1.304687 18.398437-16.679687 32.972656-35.40625 32.972656zm0 0"/></svg>