<svg height="512pt" viewBox="0 -22 512.00002 512" width="512pt" xmlns="http://www.w3.org/2000/svg"><path d="m49.363281 99.507812c-3.746093-5.699218-12.808593-3.585937-13.828125 3.105469-1.027344 6.738281 7.0625 11.246094 12.300782 7.011719 3.019531-2.445312 3.660156-6.890625 1.527343-10.117188zm0 0"/><path d="m101.019531 99.507812c-3.84375-5.851562-13.179687-3.421874-13.878906 3.476563-.683594 6.75 7.566406 10.886719 12.605469 6.421875 2.816406-2.496094 3.335937-6.777344 1.273437-9.898438zm0 0"/><path d="m71.777344 96.710938c-6.273438-2.652344-12.65625 4.144531-9.761719 10.261718 1.351563 2.867188 4.449219 4.628906 7.605469 4.316406 3.304687-.332031 6.035156-2.835937 6.703125-6.078124.726562-3.507813-1.25-7.140626-4.546875-8.5zm0 0"/><path d="m99.132812 315.023438c-25.410156 0-46.082031 20.675781-46.082031 46.085937s20.671875 46.082031 46.082031 46.082031h116.480469c22.023438 0 40.480469-15.535156 45.007813-36.222656h83.875c25.414062 0 46.085937-20.671875 46.085937-46.082031 0-25.414063-20.671875-46.085938-46.085937-46.085938h-50.640625v-27.558593c0-4.195313-3.402344-7.59375-7.597657-7.59375-15.078124 0-27.34375-12.265626-27.34375-27.347657 0-15.078125 12.265626-27.34375 27.34375-27.34375 15.078126 0 27.34375 12.265625 27.34375 27.34375 0 4.195313 3.402344 7.597657 7.597657 7.597657 4.195312 0 7.597656-3.402344 7.597656-7.597657 0-23.453125-19.082031-42.535156-42.539063-42.535156-23.453124 0-42.539062 19.082031-42.539062 42.535156 0 20.863281 15.101562 38.265625 34.945312 41.859375v20.640625h-50.644531c-22.027343 0-40.484375 15.535157-45.011719 36.222657h-18.039062v-27.554688c0-4.195312-3.398438-7.597656-7.597656-7.597656-15.078125 0-27.34375-12.265625-27.34375-27.34375s12.265625-27.347656 27.34375-27.347656 27.34375 12.269531 27.34375 27.347656c0 4.195312 3.402344 7.597656 7.597656 7.597656s7.597656-3.402344 7.597656-7.597656c0-23.457032-19.082031-42.539063-42.539062-42.539063-23.453125 0-42.535156 19.082031-42.535156 42.539063 0 20.863281 15.097656 38.265625 34.941406 41.855468v20.640626zm116.480469 76.976562h-116.480469c-17.035156 0-30.890624-13.855469-30.890624-30.890625s13.855468-30.890625 30.890624-30.890625h83.121094c2.652344 22.90625 22.15625 40.75 45.765625 40.75h16.859375c-4.125 12.210938-15.679687 21.03125-29.265625 21.03125zm-18.015625-61.78125h18.015625c15.210938 0 27.886719 11.058594 30.421875 25.558594h-18.015625c-15.214843 0-27.886719-11.058594-30.421875-25.558594zm30.421875-36.226562h116.476563c17.035156 0 30.894531 13.859374 30.894531 30.894531 0 17.03125-13.859375 30.890625-30.894531 30.890625h-83.117188c-2.652344-22.90625-22.160156-40.753906-45.765625-40.753906h-16.863281c4.125-12.210938 15.683594-21.03125 29.269531-21.03125zm0 0"/><path d="m512 81.855469c0-45.136719-36.71875-81.855469-81.855469-81.855469-39.261719 0-72.140625 27.789062-80.035156 64.730469h-188.042969c-4.199218 0-7.597656 3.398437-7.597656 7.59375 0 4.195312 3.398438 7.597656 7.597656 7.597656h186.273438c-.015625.644531-.046875 1.285156-.046875 1.933594 0 15.1875 4.171875 29.414062 11.410156 41.617187h-344.511719v-24.378906c0-10.570312 8.601563-19.171875 19.175782-19.171875h102.375c4.195312 0 7.597656-3.402344 7.597656-7.597656 0-4.195313-3.402344-7.59375-7.597656-7.59375h-102.375c-18.949219-.003907-34.367188 15.414062-34.367188 34.363281v334.378906c0 18.949219 15.417969 34.363282 34.367188 34.363282h374.890624c18.949219 0 34.363282-15.414063 34.363282-34.363282v-174.421875c0-4.191406-3.398438-7.59375-7.59375-7.59375-4.195313 0-7.597656 3.402344-7.597656 7.59375v174.421875c0 10.570313-8.601563 19.171875-19.171876 19.171875h-374.890624c-10.574219 0-19.175782-8.601562-19.175782-19.171875v-294.808594h356.109375c14.523438 15.039063 34.730469 24.535157 57.128907 25v70.066407c0 4.195312 3.398437 7.59375 7.59375 7.59375 4.199218 0 7.597656-3.398438 7.597656-7.59375v-71.152344c38.742187-6.445313 68.378906-40.179687 68.378906-80.722656zm-81.855469 66.660156c-36.757812 0-66.660156-29.902344-66.660156-66.660156 0-36.757813 29.902344-66.664063 66.660156-66.664063 36.757813 0 66.660157 29.90625 66.660157 66.664063.003906 36.753906-29.902344 66.660156-66.660157 66.660156zm0 0"/><path d="m460.226562 51.773438c-2.96875-2.964844-7.777343-2.96875-10.742187 0l-19.339844 19.335937-19.335937-19.335937c-2.96875-2.964844-7.777344-2.964844-10.742188 0-2.96875 2.96875-2.96875 7.777343 0 10.742187l19.335938 19.335937-19.335938 19.339844c-2.96875 2.964844-2.96875 7.777344 0 10.742188 1.484375 1.484375 3.425782 2.222656 5.371094 2.222656s3.886719-.738281 5.371094-2.222656l19.339844-19.339844 19.335937 19.339844c1.484375 1.480468 3.429687 2.222656 5.371094 2.222656 1.945312 0 3.890625-.738281 5.371093-2.222656 2.96875-2.96875 2.96875-7.777344 0-10.742188l-19.335937-19.339844 19.335937-19.335937c2.964844-2.964844 2.964844-7.773437 0-10.742187zm0 0"/></svg>