<svg height="498pt" viewBox="-1 0 498 498.296" width="498pt" xmlns="http://www.w3.org/2000/svg"><path d="m159.8125 296h-16v-32h-16v-264h-48v264h-16v32h-16v38.824219l-47.664062 158.878906 15.328124 4.59375 46.289063-154.296875h.285156l-30.078125 150.433594 15.6875 3.140625 30.710938-153.574219h.601562l-15.121094 151.199219 15.921876 1.59375 15.277343-152.800781h.761719v152h16v-151.992188h.757812l15.28125 152.800781 15.921876-1.59375-15.121094-151.207031h.601562l30.710938 153.566406 15.6875-3.140625-30.082032-150.425781h.289063l46.289063 154.296875 15.328124-4.59375-47.664062-158.878906zm-64-280h16v248h-16zm-16 264h48v16h-48zm-16 32h80v16h-80zm0 0"/><path d="m413.949219 352.183594-8.746094-10.671875c-11.191406-13.671875-27.726563-21.511719-45.390625-21.511719s-34.199219 7.839844-45.390625 21.503906l-8.746094 10.6875c-32.503906 39.730469-57.222656 84.570313-73.457031 133.273438l-3.503906 10.535156h262.191406l-3.503906-10.527344c-16.238282-48.703125-40.949219-93.550781-73.453125-133.289062zm-162.882813 127.816406c15.578125-42.800781 38.082032-82.335938 66.992188-117.671875l8.746094-10.6875c8.136718-9.9375 20.167968-15.640625 33.007812-15.640625s24.871094 5.703125 33.007812 15.648438l8.742188 10.671874c28.914062 35.34375 51.417969 74.878907 66.992188 117.679688zm0 0"/><path d="m287.8125 432h16v16h-16zm0 0"/><path d="m399.8125 408h16v16h-16zm0 0"/><path d="m359.8125 448h16v16h-16zm0 0"/><path d="m327.8125 392h16v16h-16zm0 0"/><path d="m311.8125 272h32v-8c0-30.871094-25.121094-56-56-56h-32v8c0 30.871094 25.121094 56 56 56zm-24-48c19.320312 0 35.480469 13.769531 39.191406 32h-15.191406c-19.320312 0-35.480469-13.769531-39.191406-32zm0 0"/><path d="m239.8125 112v-8h-32c-30.878906 0-56 25.128906-56 56v8h32c30.878906 0 56-25.128906 56-56zm-32 8h15.191406c-3.710937 18.230469-19.878906 32-39.191406 32h-15.191406c3.710937-18.230469 19.871094-32 39.191406-32zm0 0"/><path d="m439.8125 32v-32h-8c-30.878906 0-56 25.128906-56 56v32h8c30.878906 0 56-25.128906 56-56zm-48 24c0-19.320312 13.765625-35.480469 32-39.191406v15.191406c0 19.320312-13.769531 35.480469-32 39.191406zm0 0"/><path d="m463.8125 184c-30.878906 0-56 25.128906-56 56v8h32c30.878906 0 56-25.128906 56-56v-8zm-24 48h-15.191406c3.710937-18.230469 19.878906-32 39.191406-32h15.191406c-3.710937 18.230469-19.871094 32-39.191406 32zm0 0"/><path d="m439.8125 104h16v16h-16zm0 0"/><path d="m207.8125 296h16v16h-16zm0 0"/><path d="m263.8125 32h16v16h-16zm0 0"/><path d="m455.8125 320h16v16h-16zm0 0"/></svg>