<svg height="512pt" viewBox="-58 0 512 512.00002" width="512pt" xmlns="http://www.w3.org/2000/svg"><path d="m135.585938 45.800781h54.28125c4.242187 0 7.683593-3.4375 7.683593-7.679687 0-4.242188-3.441406-7.683594-7.683593-7.683594h-54.28125c-4.242188 0-7.683594 3.441406-7.683594 7.683594 0 4.242187 3.441406 7.679687 7.683594 7.679687zm0 0"/><path d="m257.203125 295.386719c-4.242187 0-7.679687 3.441406-7.679687 7.683593v39.566407h-23.105469c-4.242188 0-7.683594 3.441406-7.683594 7.683593 0 4.242188 3.441406 7.679688 7.683594 7.679688h30.785156c4.242187 0 7.683594-3.4375 7.683594-7.679688v-47.25c0-4.242187-3.441407-7.683593-7.683594-7.683593zm0 0"/><path d="m68.246094 228.65625h59.613281c4.242187 0 7.679687-3.441406 7.679687-7.683594v-59.609375c0-4.242187-3.4375-7.683593-7.679687-7.683593h-59.613281c-4.242188 0-7.679688 3.441406-7.679688 7.683593v59.609375c0 4.242188 3.4375 7.683594 7.679688 7.683594zm7.683594-59.613281h44.246093v44.25h-44.246093zm0 0"/><path d="m189.914062 161.363281v59.609375c0 4.242188 3.4375 7.683594 7.679688 7.683594h59.609375c4.242187 0 7.683594-3.441406 7.683594-7.683594v-59.609375c0-4.242187-3.441407-7.683593-7.683594-7.683593h-59.609375c-4.242188 0-7.679688 3.441406-7.679688 7.683593zm15.363282 7.679688h44.246094v44.25h-44.246094zm0 0"/><path d="m127.859375 283.027344h-59.613281c-4.242188 0-7.679688 3.4375-7.679688 7.679687v59.609375c0 4.246094 3.4375 7.683594 7.679688 7.683594h59.613281c4.242187 0 7.679687-3.4375 7.679687-7.683594v-59.609375c0-4.242187-3.4375-7.679687-7.679687-7.679687zm-7.683594 59.609375h-44.246093v-44.246094h44.246093zm0 0"/><path d="m92.851562 333.398438h10.402344c4.242188 0 7.683594-3.441407 7.683594-7.683594v-10.402344c0-4.242188-3.441406-7.679688-7.683594-7.679688h-10.402344c-4.242187 0-7.679687 3.4375-7.679687 7.679688v10.402344c0 4.242187 3.4375 7.683594 7.679687 7.683594zm0 0"/><path d="m103.253906 178.285156h-10.402344c-4.242187 0-7.679687 3.4375-7.679687 7.679688v10.40625c0 4.242187 3.4375 7.679687 7.679687 7.679687h10.402344c4.242188 0 7.683594-3.4375 7.683594-7.679687v-10.40625c-.003906-4.242188-3.441406-7.679688-7.683594-7.679688zm0 0"/><path d="m68.246094 264.320312h86.796875v22.359376c0 4.242187 3.441406 7.683593 7.683593 7.683593 4.242188 0 7.679688-3.441406 7.679688-7.683593v-30.042969c0-4.242188-3.4375-7.679688-7.679688-7.679688h-94.480468c-4.242188 0-7.679688 3.4375-7.679688 7.679688 0 4.242187 3.4375 7.683593 7.679688 7.683593zm0 0"/><path d="m196.375 248.160156c-4.242188 0-7.683594 3.4375-7.683594 7.679688v57.980468h-31.578125c-4.242187 0-7.683593 3.441407-7.683593 7.683594 0 4.242188 3.441406 7.679688 7.683593 7.679688h39.261719c4.242188 0 7.679688-3.4375 7.679688-7.679688v-65.664062c0-4.242188-3.4375-7.679688-7.679688-7.679688zm0 0"/><path d="m228.464844 329.1875c4.242187 0 7.679687-3.441406 7.679687-7.683594v-65.664062c0-4.242188-3.4375-7.679688-7.679687-7.679688-4.242188 0-7.679688 3.4375-7.679688 7.679688v65.664062c0 4.242188 3.4375 7.683594 7.679688 7.683594zm0 0"/><path d="m257.203125 248.160156c-4.242187 0-7.679687 3.4375-7.679687 7.679688v4.894531c0 4.242187 3.4375 7.679687 7.679687 7.679687s7.683594-3.4375 7.683594-7.679687v-4.894531c0-4.242188-3.441407-7.679688-7.683594-7.679688zm0 0"/><path d="m162.726562 228.65625c4.242188 0 7.679688-3.441406 7.679688-7.683594v-27.835937c0-4.242188-3.4375-7.679688-7.679688-7.679688-4.242187 0-7.683593 3.4375-7.683593 7.679688v27.835937c0 4.242188 3.441406 7.683594 7.683593 7.683594zm0 0"/><path d="m162.726562 176.394531c4.242188 0 7.679688-3.4375 7.679688-7.679687v-7.351563c0-4.242187-3.4375-7.683593-7.679688-7.683593-4.242187 0-7.683593 3.441406-7.683593 7.683593v7.351563c0 4.242187 3.441406 7.679687 7.683593 7.679687zm0 0"/><path d="m196.375 342.636719h-13.65625c-4.242188 0-7.683594 3.441406-7.683594 7.683593 0 4.242188 3.441406 7.679688 7.683594 7.679688h13.65625c4.242188 0 7.679688-3.4375 7.679688-7.679688 0-4.242187-3.4375-7.683593-7.679688-7.683593zm0 0"/><path d="m232.601562 178.285156h-10.402343c-4.242188 0-7.683594 3.4375-7.683594 7.679688v10.40625c0 4.242187 3.441406 7.679687 7.683594 7.679687h10.402343c4.242188 0 7.679688-3.4375 7.679688-7.679687v-10.40625c0-4.242188-3.4375-7.679688-7.679688-7.679688zm0 0"/><path d="m396.097656 82.773438c0-45.640626-37.132812-82.773438-82.773437-82.773438-6.355469 0-12.535157.742188-18.484375 2.105469-4.324219-1.394531-8.84375-2.105469-13.460938-2.105469h-237.308594c-24.300781 0-44.070312 19.769531-44.070312 44.070312v423.855469c0 24.304688 19.769531 44.074219 44.070312 44.074219h118.617188.039062.039063 118.613281c24.308594 0 44.082032-19.769531 44.082032-44.074219v-183.246093c0-4.242188-3.4375-7.683594-7.679688-7.683594s-7.683594 3.441406-7.683594 7.683594v183.246093c0 15.832031-12.882812 28.710938-28.71875 28.710938h-87.332031c5.230469-6.722657 8.355469-15.15625 8.355469-24.308594 0-9.15625-3.128906-17.589844-8.355469-24.3125h75.054687c14.359376 0 26.042969-11.675781 26.042969-26.035156v-258.46875c4.839844 1.089843 9.835938 1.753906 14.953125 1.953125v93.605468c0 4.242188 3.441406 7.683594 7.683594 7.683594s7.679688-3.441406 7.679688-7.683594v-94.421874c39.90625-5.890626 70.636718-40.355469 70.636718-81.875zm-233.410156 413.863281c-13.386719-.023438-24.273438-10.917969-24.273438-24.308594 0-13.40625 10.90625-24.308594 24.3125-24.308594 13.402344 0 24.308594 10.902344 24.308594 24.308594 0 13.390625-10.882812 24.285156-24.269531 24.308594zm117.09375-74.65625c0 5.886719-4.792969 10.671875-10.683594 10.671875h-212.746094c-5.886718 0-10.671874-4.785156-10.671874-10.671875v-284.269531c0-4.242188-3.441407-7.679688-7.683594-7.679688-4.242188 0-7.679688 3.4375-7.679688 7.679688v284.269531c0 14.359375 11.679688 26.035156 26.035156 26.035156h75.054688c-5.226562 6.722656-8.351562 15.15625-8.351562 24.3125 0 9.152344 3.121093 17.589844 8.351562 24.308594h-87.335938c-15.828124 0-28.707031-12.878907-28.707031-28.710938v-423.855469c0-15.828124 12.878907-28.707031 28.707031-28.707031h221.308594c-16.070312 11.464844-27.882812 28.515625-32.578125 48.300781h-176.449219c-14.355468 0-26.035156 11.679688-26.035156 26.035157v22.40625c0 4.242187 3.4375 7.679687 7.679688 7.679687 4.242187 0 7.683594-3.4375 7.683594-7.679687v-22.40625c0-5.882813 4.785156-10.671875 10.671874-10.671875h174.292969c-.054687 1.242187-.09375 2.488281-.09375 3.746094 0 33.703124 20.257813 62.746093 49.230469 75.644531zm33.542969-271.796875c-37.171875 0-67.410157-30.238282-67.410157-67.410156 0-37.171876 30.238282-67.410157 67.410157-67.410157s67.410156 30.238281 67.410156 67.410157c0 37.171874-30.238281 67.410156-67.410156 67.410156zm0 0"/><path d="m334.632812 61.464844c-3-3-7.863281-3-10.863281 0l-31.75 31.75c-3 3-3 7.867187 0 10.863281 1.5 1.5 3.464844 2.25 5.429688 2.25 1.964843 0 3.933593-.75 5.433593-2.25l31.75-31.75c3-3 3-7.863281 0-10.863281zm0 0"/><path d="m291.855469 70.332031c6.796875 1.417969 11.714843-6.652343 7.652343-12.121093-2.066406-2.78125-5.894531-3.832032-9.09375-2.503907-2.894531 1.199219-4.804687 4.125-4.742187 7.253907.074219 3.582031 2.699219 6.648437 6.183594 7.371093zm0 0"/><path d="m340.394531 99.808594c-1.277343-3.023438-4.378906-4.960938-7.664062-4.722656-3.265625.238281-6.089844 2.617187-6.882813 5.789062-1.664062 6.667969 5.964844 12.058594 11.710938 8.253906 3.035156-2.011718 4.179687-5.960937 2.835937-9.320312zm0 0"/></svg>