<svg height="496pt" viewBox="-104 0 496 496" width="496pt" xmlns="http://www.w3.org/2000/svg"><path d="m283.742188 428.902344-18.445313-40.574219c-11.472656-25.257813-17.296875-52.136719-17.296875-79.871094 0-23.226562 4.136719-46.03125 12.296875-67.785156l8.175781-21.816406c2.34375-6.238281 3.527344-12.785157 3.527344-19.449219 0-30.558594-24.847656-55.40625-55.398438-55.40625h-16.601562v-32c0-8.824219-7.175781-16-16-16h-16v-32h32c17.648438 0 32-14.351562 32-32s-14.351562-32-32-32h-7.015625c-1.335937 0-2.664063.167969-4.351563.601562-41.242187 10.300782-83.503906 18.199219-125.625 23.460938l-7.007812.875v39.0625h64v32h-16c-8.824219 0-16 7.175781-16 16v32h-16.601562c-30.550782 0-55.398438 24.847656-55.398438 55.40625 0 6.664062 1.183594 13.210938 3.527344 19.449219l8.175781 21.832031c8.160156 21.738281 12.296875 44.535156 12.296875 67.769531 0 27.742188-5.824219 54.613281-17.304688 79.871094l-18.449218 40.574219c-2.773438 6.128906-4.246094 12.921875-4.246094 19.640625 0 26.167969 21.289062 47.457031 47.457031 47.457031h193.09375c26.160157 0 47.449219-21.289062 47.449219-47.457031 0-6.71875-1.472656-13.511719-4.257812-19.640625zm-99.742188-284.902344h-16v-32h16zm-32-32v32h-16v-32zm-80-72.960938c40.433594-5.328124 80.960938-13.039062 120.984375-23.039062h7.015625c8.824219 0 16 7.175781 16 16s-7.175781 16-16 16h-128zm64 24.960938h16v32h-16zm-32 48h16v32h-16zm136.542969 368h-193.085938c-17.34375 0-31.457031-14.113281-31.457031-31.457031 0-4.464844.976562-8.957031 2.816406-13.015625l18.449219-40.574219c12.429687-27.351563 18.734375-56.457031 18.734375-86.496094 0-25.152343-4.480469-49.839843-13.3125-73.394531l-8.183594-21.832031c-1.664062-4.429688-2.503906-9.078125-2.503906-13.824219 0-21.726562 17.671875-39.40625 39.398438-39.40625h145.195312c21.734375 0 39.40625 17.679688 39.40625 39.40625 0 4.746094-.839844 9.394531-2.511719 13.832031l-8.175781 21.816407c-8.832031 23.554687-13.3125 48.25-13.3125 73.402343 0 30.046875 6.304688 59.152344 18.734375 86.496094l18.441406 40.574219c1.847657 4.058594 2.824219 8.5625 2.824219 13.015625 0 17.34375-14.113281 31.457031-31.457031 31.457031zm0 0"/><path d="m144 200c-39.695312 0-72 32.296875-72 72v168h144v-168c0-39.703125-32.304688-72-72-72zm56 224h-112v-152c0-30.871094 25.121094-56 56-56s56 25.128906 56 56zm0 0"/><path d="m160 296c-13.230469 0-24 10.769531-24 24s10.769531 24 24 24 24-10.769531 24-24-10.769531-24-24-24zm0 32c-4.40625 0-8-3.585938-8-8s3.59375-8 8-8 8 3.585938 8 8-3.59375 8-8 8zm0 0"/><path d="m136 232h16v16h-16zm0 0"/><path d="m104 392h16v16h-16zm0 0"/><path d="m104 280h16v16h-16zm0 0"/><path d="m136 392h48v16h-48zm0 0"/><path d="m104 360h80v16h-80zm0 0"/></svg>