<svg height="496pt" viewBox="-48 0 496 496" width="496pt" xmlns="http://www.w3.org/2000/svg"><path d="m393.761719 392c3.839843-4.257812 6.238281-9.832031 6.238281-16 0-13.230469-10.769531-24-24-24h-136v-32h-16v-296c0-13.230469-10.769531-24-24-24s-24 10.769531-24 24v296h-16v32h-136c-13.230469 0-24 10.769531-24 24 0 6.167969 2.40625 11.742188 6.238281 16-3.832031 4.257812-6.238281 9.832031-6.238281 16s2.40625 11.742188 6.238281 16c-3.832031 4.257812-6.238281 9.832031-6.238281 16 0 13.230469 10.769531 24 24 24h8v8c0 13.230469 10.769531 24 24 24 6.167969 0 11.742188-2.40625 16-6.238281 4.257812 3.839843 9.832031 6.238281 16 6.238281s11.742188-2.40625 16-6.238281c4.257812 3.839843 9.832031 6.238281 16 6.238281s11.742188-2.40625 16-6.238281c4.257812 3.839843 9.832031 6.238281 16 6.238281s11.742188-2.40625 16-6.238281c4.257812 3.839843 9.832031 6.238281 16 6.238281s11.742188-2.40625 16-6.238281c4.257812 3.839843 9.832031 6.238281 16 6.238281s11.742188-2.40625 16-6.238281c4.257812 3.839843 9.832031 6.238281 16 6.238281s11.742188-2.40625 16-6.238281c4.257812 3.839843 9.832031 6.238281 16 6.238281s11.742188-2.40625 16-6.238281c4.257812 3.839843 9.832031 6.238281 16 6.238281s11.742188-2.40625 16-6.238281c4.257812 3.839843 9.832031 6.238281 16 6.238281 13.230469 0 24-10.769531 24-24v-8h8c13.230469 0 24-10.769531 24-24 0-6.167969-2.40625-11.742188-6.238281-16 3.839843-4.257812 6.238281-9.832031 6.238281-16s-2.40625-11.742188-6.238281-16zm-9.761719 16c0 4.414062-3.59375 8-8 8h-8v-16h8c4.40625 0 8 3.585938 8 8zm-8-40c4.40625 0 8 3.585938 8 8s-3.59375 8-8 8h-8v-16zm-176-352c4.40625 0 8 3.585938 8 8v16h-16v-16c0-4.414062 3.59375-8 8-8zm-8 40h16v264h-16zm-16 280h48v32h-48zm-128 32h112v16h80v-16h112v80h-304zm-32 40c0-4.414062 3.59375-8 8-8h8v16h-8c-4.40625 0-8-3.585938-8-8zm8-40h8v16h-8c-4.40625 0-8-3.585938-8-8s3.59375-8 8-8zm0 80c-4.40625 0-8-3.585938-8-8s3.59375-8 8-8h8v16zm32 32c-4.40625 0-8-3.585938-8-8v-8h16v8c0 4.414062-3.59375 8-8 8zm32 0c-4.40625 0-8-3.585938-8-8v-8h16v8c0 4.414062-3.59375 8-8 8zm32 0c-4.40625 0-8-3.585938-8-8v-8h16v8c0 4.414062-3.59375 8-8 8zm32 0c-4.40625 0-8-3.585938-8-8v-8h16v8c0 4.414062-3.59375 8-8 8zm32 0c-4.40625 0-8-3.585938-8-8v-8h16v8c0 4.414062-3.59375 8-8 8zm32 0c-4.40625 0-8-3.585938-8-8v-8h16v8c0 4.414062-3.59375 8-8 8zm32 0c-4.40625 0-8-3.585938-8-8v-8h16v8c0 4.414062-3.59375 8-8 8zm32 0c-4.40625 0-8-3.585938-8-8v-8h16v8c0 4.414062-3.59375 8-8 8zm32 0c-4.40625 0-8-3.585938-8-8v-8h16v8c0 4.414062-3.59375 8-8 8zm32 0c-4.40625 0-8-3.585938-8-8v-8h16v8c0 4.414062-3.59375 8-8 8zm32-32h-8v-16h8c4.40625 0 8 3.585938 8 8s-3.59375 8-8 8zm0 0"/><path d="m64 416h272v16h-272zm0 0"/><path d="m256 384h80v16h-80zm0 0"/><path d="m64 384h80v16h-80zm0 0"/></svg>