<svg height="512pt" viewBox="0 -1 512.00002 512" width="512pt" xmlns="http://www.w3.org/2000/svg"><path d="m504.394531 429.679688h-24.84375v-270.171876c0-26.273437-21.382812-47.652343-47.664062-47.652343h-8.027344v-18.019531c0-12.066407-9.816406-21.886719-21.882813-21.886719h-19.238281c-4.199219 0-7.605469 3.40625-7.605469 7.605469 0 4.199218 3.40625 7.605468 7.605469 7.605468h19.238281c3.679688 0 6.675782 2.996094 6.675782 6.675782v126.558593c0 3.679688-2.996094 6.675781-6.675782 6.675781h-291.953124c-3.679688 0-6.675782-2.996093-6.675782-6.675781v-126.558593c0-3.679688 2.996094-6.675782 6.675782-6.675782h247.367187c4.199219 0 7.601563-3.40625 7.601563-7.605468 0-4.199219-3.402344-7.605469-7.601563-7.605469h-247.367187c-12.066407 0-21.882813 9.820312-21.882813 21.886719v18.019531h-8.03125c-26.277344 0-47.652344 21.378906-47.652344 47.652343v270.171876h-24.851562c-4.199219 0-7.605469 3.40625-7.605469 7.605468v10.660156c0 33.8125 27.507812 61.320313 61.320312 61.320313h389.359376c33.8125 0 61.320312-27.507813 61.320312-61.320313v-10.660156c0-4.199218-3.40625-7.605468-7.605469-7.605468zm-80.535156-209.285157v-62.914062h8.027344c1.125 0 2.039062.910156 2.039062 2.027343v239.757813h-55.503906v-156.984375h23.554687c12.066407 0 21.882813-9.820312 21.882813-21.886719zm-60.644531 21.886719v156.984375h-13.179688v-156.984375zm-186.042969 156.984375v-156.984375h157.65625v156.984375zm-67.148437-156.984375h23.554687v63.363281c0 4.199219 3.402344 7.605469 7.601563 7.605469 4.199218 0 7.605468-3.40625 7.605468-7.605469v-63.363281h13.179688v156.984375h-13.179688v-68.273437c0-4.199219-3.40625-7.605469-7.605468-7.605469-4.199219 0-7.601563 3.40625-7.601563 7.605469v68.273437h-55.496094v-239.757813c0-1.117187.90625-2.027343 2.027344-2.027343h8.03125v62.914062c0 12.066407 9.816406 21.886719 21.882813 21.886719zm-62.359376-82.773438c0-17.890624 14.554688-32.445312 32.445313-32.445312h8.03125v15.210938h-8.03125c-9.503906 0-17.238281 7.730468-17.238281 17.234374v247.363282c0 4.199218 3.40625 7.601562 7.605468 7.601562h371.054688c4.199219 0 7.601562-3.402344 7.601562-7.601562v-247.363282c0-9.503906-7.734374-17.234374-17.246093-17.234374h-8.027344v-15.210938h8.027344c17.894531 0 32.453125 14.554688 32.453125 32.445312v270.171876h-416.675782zm254.546876 285.382813c-1.207032 8.582031-8.597657 15.207031-17.503907 15.207031h-57.414062c-8.910157 0-16.296875-6.625-17.503907-15.207031zm194.582031 3.054687c0 25.425782-20.6875 46.113282-46.113281 46.113282h-389.359376c-25.425781 0-46.113281-20.6875-46.113281-46.113282v-3.054687h179.304688c1.269531 16.980469 15.480469 30.414063 32.78125 30.414063h57.414062c17.300781 0 31.511719-13.433594 32.78125-30.414063h179.304688zm0 0"/><path d="m69.632812 70.773438c1.484376 1.484374 3.429688 2.226562 5.375 2.226562 1.945313 0 3.894532-.742188 5.378907-2.226562 2.96875-2.96875 2.96875-7.785157 0-10.753907l-47.652344-47.652343c-2.96875-2.96875-7.785156-2.96875-10.753906 0s-2.96875 7.785156 0 10.753906zm0 0"/><path d="m436.992188 73c1.945312 0 3.890624-.742188 5.375-2.226562l47.652343-47.652344c2.96875-2.96875 2.96875-7.785156 0-10.753906s-7.785156-2.96875-10.753906 0l-47.648437 47.652343c-2.972657 2.96875-2.972657 7.785157 0 10.753907 1.484374 1.484374 3.429687 2.226562 5.375 2.226562zm0 0"/><path d="m162.464844 58.542969c1.304687 2.726562 4.023437 4.320312 6.863281 4.320312 1.101563 0 2.21875-.238281 3.277344-.75 3.789062-1.8125 5.386719-6.351562 3.574219-10.140625l-22.820313-47.652344c-1.816406-3.785156-6.359375-5.386718-10.140625-3.570312-3.789062 1.8125-5.390625 6.351562-3.574219 10.140625zm0 0"/><path d="m339.394531 62.113281c1.058594.507813 2.175781.75 3.277344.75 2.835937 0 5.558594-1.59375 6.863281-4.320312l22.824219-47.652344c1.8125-3.789063.210937-8.328125-3.574219-10.144531-3.789062-1.8125-8.328125-.210938-10.144531 3.574218l-22.820313 47.652344c-1.8125 3.785156-.214843 8.328125 3.574219 10.140625zm0 0"/><path d="m256 62.859375c4.199219 0 7.605469-3.402344 7.605469-7.601563v-47.652343c0-4.199219-3.40625-7.605469-7.605469-7.605469s-7.605469 3.40625-7.605469 7.605469v47.652343c0 4.199219 3.40625 7.601563 7.605469 7.601563zm0 0"/><path d="m148.632812 118.492188c-6.414062 0-11.496093 1.582031-15.105468 4.710937-4.070313 3.523437-6.132813 8.933594-6.132813 16.074219v25.175781c0 7.140625 2.0625 12.550781 6.132813 16.074219 3.613281 3.125 8.691406 4.710937 15.105468 4.710937 6.421876 0 11.519532-1.585937 15.152344-4.710937 4.097656-3.53125 6.175782-8.9375 6.175782-16.074219v-25.175781c0-7.136719-2.078126-12.542969-6.175782-16.074219-3.632812-3.125-8.730468-4.710937-15.152344-4.710937zm0 56.207031c-6.140624 0-9.257812-3.445313-9.257812-10.246094v-25.175781c0-6.800782 3.117188-10.246094 9.257812-10.246094 6.113282 0 9.347657 3.542969 9.347657 10.246094v25.175781c0 6.703125-3.234375 10.246094-9.347657 10.246094zm0 0"/><path d="m221.894531 129.03125c2.199219 0 3.738281-2.207031 3.738281-5.363281 0-2.574219-1.15625-5.175781-3.738281-5.175781h-31.488281c-3.621094 0-5.269531 1.980468-5.269531 3.824218v58.554688c0 1.84375 1.875 3.824218 5.992187 3.824218 2.976563 0 5.992188-1.3125 5.992188-3.824218v-24.59375h13.675781c2.566406 0 3.738281-2.402344 3.738281-4.636719 0-2.320313-1.171875-4.816406-3.738281-4.816406h-13.675781v-17.792969zm0 0"/><path d="m273.144531 129.03125c2.199219 0 3.734375-2.207031 3.734375-5.363281 0-2.574219-1.152344-5.175781-3.734375-5.175781h-31.488281c-3.621094 0-5.269531 1.980468-5.269531 3.824218v58.554688c0 1.84375 1.875 3.824218 5.988281 3.824218 2.980469 0 5.992188-1.3125 5.992188-3.824218v-24.59375h13.679687c2.566406 0 3.734375-2.402344 3.734375-4.636719 0-2.320313-1.167969-4.816406-3.734375-4.816406h-13.679687v-17.792969zm0 0"/><path d="m325.023438 129.03125c2.25 0 3.824218-2.207031 3.824218-5.363281 0-2.492188-1.195312-5.175781-3.824218-5.175781h-32.121094c-3.621094 0-5.269532 1.980468-5.269532 3.824218v58.554688c0 1.84375 1.648438 3.824218 5.269532 3.824218h32.121094c2.628906 0 3.824218-2.683593 3.824218-5.179687 0-3.15625-1.574218-5.359375-3.824218-5.359375h-25.40625v-17.878906h13.585937c2.511719 0 3.824219-2.332032 3.824219-4.636719 0-2.394531-1.3125-4.816406-3.824219-4.816406h-13.585937v-17.792969zm0 0"/><path d="m384.15625 137.472656c0-6.730468-2.125-11.746094-6.308594-14.90625-3.582031-2.703125-8.695312-4.074218-15.203125-4.074218h-17.863281c-2.449219 0-3.914062 1.898437-3.914062 3.734374v58.644532c0 2.511718 3.011718 3.824218 5.988281 3.824218 4.117187 0 5.992187-1.980468 5.992187-3.824218v-23.421875h7.375l12.777344 24.832031c.894531 1.796875 2.457031 2.867188 4.171875 2.867188 3.542969 0 7.433594-3.277344 7.433594-6.261719 0-.21875-.035157-.96875-.464844-1.503907l-11.746094-21.789062c7.585938-2.390625 11.761719-8.820312 11.761719-18.121094zm-11.984375 1.085938c0 6.4375-3.027344 9.4375-9.527344 9.4375h-9.796875v-18.964844h9.796875c6.414063 0 9.527344 3.117188 9.527344 9.527344zm0 0"/></svg>