<svg height="496pt" viewBox="-48 0 496 496" width="496pt" xmlns="http://www.w3.org/2000/svg"><path d="m192 449.472656v-9.472656c0-37.222656-23.273438-69.046875-56-81.886719v-38.113281h-8v-296c0-13.230469-10.769531-24-24-24s-24 10.769531-24 24v296h-8v38.113281c-32.726562 12.839844-56 44.664063-56 81.886719v9.472656c-9.289062 3.3125-16 12.113282-16 22.527344 0 13.230469 10.769531 24 24 24h160c13.230469 0 24-10.769531 24-24 0-10.414062-6.710938-19.214844-16-22.527344zm-96-425.472656c0-4.414062 3.585938-8 8-8s8 3.585938 8 8v296h-16zm-8 312h32v17.527344c-5.199219-.960938-10.527344-1.527344-16-1.527344s-10.800781.566406-16 1.527344zm16 32c39.703125 0 72 32.296875 72 72v8h-144v-8c0-39.703125 32.296875-72 72-72zm80 112h-160c-4.414062 0-8-3.585938-8-8s3.585938-8 8-8h160c4.414062 0 8 3.585938 8 8s-3.585938 8-8 8zm0 0"/><path d="m141.71875 426.664062 15.097656-5.328124c-7.894531-22.335938-29.121094-37.335938-52.816406-37.335938v16c16.929688 0 32.089844 10.71875 37.71875 26.664062zm0 0"/><path d="m393.761719 424c3.839843-4.257812 6.238281-9.832031 6.238281-16 0-13.230469-10.769531-24-24-24h-8v-16c0-8.824219-7.175781-16-16-16h-16v-328c0-13.230469-10.769531-24-24-24s-24 10.769531-24 24v328h-16c-8.824219 0-16 7.175781-16 16v16h-8c-13.230469 0-24 10.769531-24 24 0 6.167969 2.40625 11.742188 6.238281 16-3.839843 4.257812-6.238281 9.832031-6.238281 16s2.40625 11.742188 6.238281 16c-3.839843 4.257812-6.238281 9.832031-6.238281 16 0 13.230469 10.769531 24 24 24h128c13.230469 0 24-10.769531 24-24 0-6.167969-2.40625-11.742188-6.238281-16 3.839843-4.257812 6.238281-9.832031 6.238281-16s-2.40625-11.742188-6.238281-16zm-153.761719 16c0-4.414062 3.585938-8 8-8h128c4.414062 0 8 3.585938 8 8s-3.585938 8-8 8h-128c-4.414062 0-8-3.585938-8-8zm64-416c0-4.414062 3.585938-8 8-8s8 3.585938 8 8v328h-16zm-32 344h80v16h-80zm-24 32h128c4.414062 0 8 3.585938 8 8s-3.585938 8-8 8h-128c-4.414062 0-8-3.585938-8-8s3.585938-8 8-8zm128 80h-128c-4.414062 0-8-3.585938-8-8s3.585938-8 8-8h128c4.414062 0 8 3.585938 8 8s-3.585938 8-8 8zm0 0"/></svg>