<svg height="512pt" viewBox="0 0 512 512.00001" width="512pt" xmlns="http://www.w3.org/2000/svg"><path d="m433.761719 426.175781c-4.195313 0-7.597657 3.402344-7.597657 7.597657v63.03125h-410.96875v-410.96875h56.214844c4.195313 0 7.597656-3.402344 7.597656-7.597657 0-4.195312-3.402343-7.597656-7.597656-7.597656h-63.8125c-4.195312 0-7.597656 3.402344-7.597656 7.597656v426.164063c0 4.195312 3.402344 7.597656 7.597656 7.597656h426.164063c4.195312 0 7.597656-3.402344 7.597656-7.597656v-70.628906c0-4.195313-3.402344-7.597657-7.597656-7.597657zm0 0"/><path d="m429.65625 0c-41.328125 0-75.582031 30.792969-81.070312 70.640625h-251.851563c-4.195313 0-7.59375 3.402344-7.59375 7.597656 0 4.195313 3.398437 7.597657 7.59375 7.597657h251.164063c2.082031 43.300781 37.953124 77.886718 81.761718 77.886718 45.136719 0 81.859375-36.722656 81.859375-81.859375 0-45.140625-36.722656-81.863281-81.863281-81.863281zm0 148.527344c-36.757812 0-66.664062-29.90625-66.664062-66.664063 0-36.761719 29.90625-66.667969 66.664062-66.667969 36.761719 0 66.667969 29.90625 66.667969 66.664063 0 36.761719-29.90625 66.667969-66.667969 66.667969zm0 0"/><path d="m450.730469 60.789062c-2.96875-2.964843-7.777344-2.964843-10.742188 0l-31.402343 31.402344c-2.964844 2.964844-2.964844 7.773438 0 10.742188 1.484374 1.480468 3.429687 2.222656 5.371093 2.222656 1.945313 0 3.890625-.738281 5.375-2.222656l31.398438-31.402344c2.96875-2.964844 2.96875-7.773438 0-10.742188zm0 0"/><path d="m408.417969 69.5625c3.0625.558594 6.230469-.742188 7.898437-3.390625 1.734375-2.75 1.515625-6.359375-.539062-8.882813-4.246094-5.203124-12.957032-2.414062-13.445313 4.261719-.273437 3.796875 2.371094 7.238281 6.085938 8.011719zm0 0"/><path d="m456.421875 98.703125c-2.371094-5.9375-10.953125-6.125-13.792969-.503906-1.519531 3.003906-.824218 6.785156 1.675782 9.042969 2.453124 2.214843 6.175781 2.585937 9.011718.886718 3.1875-1.914062 4.527344-5.988281 3.105469-9.425781zm0 0"/><path d="m220.675781 329.355469c4.203125 0 7.597657-3.394531 7.597657-7.597657 0-4.195312-3.394532-7.597656-7.597657-7.597656-4.195312 0-7.597656 3.402344-7.597656 7.597656 0 4.203126 3.402344 7.597657 7.597656 7.597657zm0 0"/><path d="m220.675781 420.679688c4.203125 0 7.597657-3.40625 7.597657-7.597657 0-4.195312-3.394532-7.597656-7.597657-7.597656-4.195312 0-7.597656 3.402344-7.597656 7.597656 0 4.191407 3.402344 7.597657 7.597656 7.597657zm0 0"/><path d="m220.675781 268.476562c4.203125 0 7.597657-3.402343 7.597657-7.597656 0-4.191406-3.394532-7.59375-7.597657-7.59375-4.195312 0-7.597656 3.402344-7.597656 7.59375 0 4.195313 3.402344 7.597656 7.597656 7.597656zm0 0"/><path d="m220.675781 359.800781c4.203125 0 7.597657-3.402343 7.597657-7.59375 0-4.207031-3.394532-7.597656-7.597657-7.597656-4.195312 0-7.597656 3.390625-7.597656 7.597656 0 4.191407 3.402344 7.59375 7.597656 7.59375zm0 0"/><path d="m220.675781 390.242188c4.203125 0 7.597657-3.40625 7.597657-7.597657 0-4.203125-3.394532-7.597656-7.597657-7.597656-4.195312 0-7.597656 3.394531-7.597656 7.597656 0 4.191407 3.402344 7.597657 7.597656 7.597657zm0 0"/><path d="m220.675781 238.039062c4.203125 0 7.597657-3.402343 7.597657-7.597656 0-4.203125-3.394532-7.59375-7.597657-7.59375-4.195312 0-7.597656 3.390625-7.597656 7.59375 0 4.195313 3.402344 7.597656 7.597656 7.597656zm0 0"/><path d="m220.675781 451.117188c4.203125 0 7.597657-3.402344 7.597657-7.597657 0-4.191406-3.394532-7.597656-7.597657-7.597656-4.195312 0-7.597656 3.40625-7.597656 7.597656 0 4.195313 3.402344 7.597657 7.597656 7.597657zm0 0"/><path d="m220.675781 146.714844c4.203125 0 7.597657-3.402344 7.597657-7.597656 0-4.191407-3.394532-7.597657-7.597657-7.597657-4.195312 0-7.597656 3.40625-7.597656 7.597657 0 4.195312 3.402344 7.597656 7.597656 7.597656zm0 0"/><path d="m220.675781 116.277344c4.203125 0 7.597657-3.402344 7.597657-7.597656 0-4.191407-3.394532-7.597657-7.597657-7.597657-4.195312 0-7.597656 3.40625-7.597656 7.597657 0 4.195312 3.402344 7.597656 7.597656 7.597656zm0 0"/><path d="m220.675781 177.152344c4.203125 0 7.597657-3.390625 7.597657-7.597656 0-4.191407-3.394532-7.59375-7.597657-7.59375-4.195312 0-7.597656 3.402343-7.597656 7.59375 0 4.207031 3.402344 7.597656 7.597656 7.597656zm0 0"/><path d="m220.675781 207.589844c4.203125 0 7.597657-3.390625 7.597657-7.59375 0-4.195313-3.394532-7.597656-7.597657-7.597656-4.195312 0-7.597656 3.402343-7.597656 7.597656 0 4.203125 3.402344 7.59375 7.597656 7.59375zm0 0"/><path d="m220.675781 481.554688c4.203125 0 7.597657-3.394532 7.597657-7.597657 0-4.191406-3.394532-7.597656-7.597657-7.597656-4.195312 0-7.597656 3.40625-7.597656 7.597656 0 4.203125 3.402344 7.597657 7.597656 7.597657zm0 0"/><path d="m45.632812 291.320312c0 4.195313-3.402343 7.59375-7.597656 7.59375-4.195312 0-7.597656-3.398437-7.597656-7.59375 0-4.195312 3.402344-7.597656 7.597656-7.597656 4.195313 0 7.597656 3.402344 7.597656 7.597656zm0 0"/><path d="m197.835938 291.320312c0 4.195313-3.402344 7.59375-7.597657 7.59375-4.195312 0-7.597656-3.398437-7.597656-7.59375 0-4.195312 3.402344-7.597656 7.597656-7.597656 4.195313 0 7.597657 3.402344 7.597657 7.597656zm0 0"/><path d="m410.921875 291.320312c0-4.195312-3.402344-7.597656-7.597656-7.597656-4.203125 0-7.597657 3.402344-7.597657 7.597656 0 4.191407 3.394532 7.59375 7.597657 7.59375 4.195312 0 7.597656-3.402343 7.597656-7.59375zm0 0"/><path d="m167.394531 291.320312c0 4.195313-3.398437 7.59375-7.597656 7.59375-4.195313 0-7.59375-3.398437-7.59375-7.59375 0-4.195312 3.398437-7.597656 7.59375-7.597656 4.199219 0 7.597656 3.402344 7.597656 7.597656zm0 0"/><path d="m136.957031 291.320312c0-4.195312-3.402343-7.597656-7.597656-7.597656-4.203125 0-7.59375 3.402344-7.59375 7.597656 0 4.191407 3.390625 7.59375 7.59375 7.59375 4.195313 0 7.597656-3.402343 7.597656-7.59375zm0 0"/><path d="m98.914062 283.722656c-4.195312 0-7.597656 3.402344-7.597656 7.597656 0 4.191407 3.402344 7.59375 7.597656 7.59375 4.203126 0 7.59375-3.402343 7.59375-7.59375 0-4.195312-3.390624-7.597656-7.59375-7.597656zm0 0"/><path d="m350.035156 291.320312c0 4.195313-3.402344 7.59375-7.597656 7.59375s-7.597656-3.398437-7.597656-7.59375c0-4.195312 3.402344-7.597656 7.597656-7.597656s7.597656 3.402344 7.597656 7.597656zm0 0"/><path d="m68.472656 298.914062c4.207032 0 7.597656-3.402343 7.597656-7.59375 0-4.195312-3.390624-7.597656-7.597656-7.597656-4.191406 0-7.59375 3.402344-7.59375 7.597656 0 4.191407 3.402344 7.59375 7.59375 7.59375zm0 0"/><path d="m319.597656 291.320312c0 4.195313-3.402344 7.59375-7.597656 7.59375s-7.597656-3.398437-7.597656-7.59375c0-4.195312 3.402344-7.597656 7.597656-7.597656s7.597656 3.402344 7.597656 7.597656zm0 0"/><path d="m258.710938 291.320312c0-4.195312-3.394532-7.597656-7.585938-7.597656-4.203125 0-7.597656 3.402344-7.597656 7.597656 0 4.191407 3.394531 7.59375 7.597656 7.59375 4.191406 0 7.585938-3.402343 7.585938-7.59375zm0 0"/><path d="m289.160156 291.320312c0 4.195313-3.402344 7.59375-7.597656 7.59375s-7.597656-3.398437-7.597656-7.59375c0-4.195312 3.402344-7.597656 7.597656-7.597656s7.597656 3.402344 7.597656 7.597656zm0 0"/><path d="m380.472656 291.320312c0-4.195312-3.394531-7.597656-7.597656-7.597656-4.191406 0-7.59375 3.402344-7.59375 7.597656 0 4.191407 3.402344 7.59375 7.59375 7.59375 4.203125 0 7.597656-3.402343 7.597656-7.59375zm0 0"/><path d="m220.675781 298.914062c4.203125 0 7.597657-3.402343 7.597657-7.59375 0-4.195312-3.394532-7.597656-7.597657-7.597656-4.195312 0-7.597656 3.402344-7.597656 7.597656 0 4.191407 3.402344 7.59375 7.597656 7.59375zm0 0"/><path d="m441.359375 181.324219c0-4.195313-3.402344-7.597657-7.597656-7.597657-4.195313 0-7.597657 3.402344-7.597657 7.597657v227.125c0 4.195312 3.402344 7.597656 7.597657 7.597656 4.195312 0 7.597656-3.402344 7.597656-7.597656zm0 0"/><path d="m298.519531 218.03125c-7.988281 0-11.566406-4.152344-11.566406-8.261719 0-3.75-1.992187-5.277343-6.875-5.277343-3.746094 0-6.238281.988281-6.238281 5.808593 0 4.882813 2.132812 9.71875 5.859375 13.273438 4.457031 4.253906 10.929687 6.503906 18.714843 6.503906 16.328126 0 25.320313-8.613281 25.320313-24.253906v-2.027344c0-7.765625-3.332031-13.484375-9.671875-16.652344 4.625-3.234375 7.328125-9.664062 7.328125-17.675781 0-13.265625-7.550781-19.992188-22.445313-19.992188-18.472656 0-23.402343 11.964844-23.402343 19.03125 0 4.839844 1.542969 6.238282 6.878906 6.238282 4.207031 0 6.34375-1.882813 6.34375-5.597656 0-5.058594 3.484375-7.730469 10.074219-7.730469 6.675781 0 9.648437 3.074219 9.648437 9.96875 0 8.921875-3.855469 10.714843-10.074219 10.714843-2.859374 0-4.636718 2.144532-4.636718 5.597657 0 3.335937 1.820312 5.492187 4.636718 5.492187 8.183594 0 11.996094 3.367188 11.996094 10.605469v2.027344c0 8.554687-3.554687 12.207031-11.890625 12.207031zm0 0"/><path d="m387.378906 174.265625c0-15.984375-8.878906-24.789063-25-24.789063-16.054687 0-24.894531 8.804688-24.894531 24.789063v31.023437c0 15.984376 8.84375 24.789063 24.894531 24.789063 16.121094 0 25-8.804687 25-24.789063zm-13.324218 31.023437c0 8.453126-3.929688 12.742188-11.675782 12.742188-7.675781 0-11.566406-4.289062-11.566406-12.742188v-31.023437c0-8.453125 3.890625-12.742187 11.566406-12.742187 7.746094 0 11.675782 4.289062 11.675782 12.742187zm0 0"/><path d="m83.789062 389.265625h-8.402343l1.347656-18.65625h23.6875c2.667969 0 4.53125-2.476563 4.53125-6.023437 0-2.992188-1.558594-6.023438-4.53125-6.023438h-31.667969c-2.085937 0-3.285156 1.5625-3.566406 4.660156l-2.449219 28.941406c-.101562.722657-.222656 1.867188-.222656 2.699219 0 3.625 1.902344 5.382813 5.8125 5.382813h15.457031c7.640625 0 11.675782 4.296875 11.675782 12.421875v2.027343c0 8.242188-3.964844 12.417969-11.78125 12.417969-5.707032 0-11.460938-2.652343-11.460938-8.582031 0-3.695312-2.214844-5.488281-6.769531-5.488281-4.414063 0-6.558594 2.039062-6.558594 6.234375 0 9.578125 7.824219 19.886718 25.003906 19.886718 15.820313 0 24.894531-8.917968 24.894531-24.46875v-2.027343c0-15.089844-8.878906-23.402344-25-23.402344zm0 0"/><path d="m121.472656 414.375c0 15.984375 8.839844 24.789062 24.894532 24.789062 16.121093 0 25-8.804687 25-24.789062v-31.027344c0-15.984375-8.878907-24.789062-25-24.789062-16.054688 0-24.894532 8.804687-24.894532 24.789062zm36.566406 0c0 8.453125-3.925781 12.738281-11.671874 12.738281-7.675782 0-11.570313-4.285156-11.570313-12.738281v-31.027344c0-8.453125 3.894531-12.738281 11.570313-12.738281 7.746093 0 11.671874 4.285156 11.671874 12.738281zm0 0"/><path d="m282.394531 429.648438c-.445312.785156-.664062 1.644531-.664062 2.636718 0 4.050782 4.175781 6.558594 8.046875 6.558594 2.550781 0 3.746094-1.214844 4.3125-2.253906l28.675781-55.539063c.800781-1.523437 2.144531-4.421875 2.144531-6.765625v-10.980468c0-2.511719-3.371094-4.742188-6.027344-4.742188h-37.847656c-3.039062 0-6.023437 2.347656-6.023437 4.742188v16.3125c0 2.660156 2.882812 4.746093 6.558593 4.746093 3.734376 0 6.769532-2.128906 6.769532-4.746093v-9.007813h23.242187v5.339844zm0 0"/><path d="m336.3125 383.347656v31.027344c0 15.984375 8.84375 24.785156 24.894531 24.785156 16.121094 0 25-8.800781 25-24.785156v-31.027344c0-15.984375-8.878906-24.789062-25-24.789062-16.050781.003906-24.894531 8.804687-24.894531 24.789062zm36.570312 31.027344c0 8.453125-3.929687 12.738281-11.675781 12.738281-7.675781 0-11.566406-4.285156-11.566406-12.738281v-31.027344c0-8.453125 3.890625-12.738281 11.566406-12.738281 7.746094 0 11.675781 4.285156 11.675781 12.738281zm0 0"/><path d="m89.171875 149.421875c-1.453125 0-2.59375.46875-3.582031 1.457031l-11.03125 10.609375c-1.5625 1.121094-2.605469 3.179688-2.605469 5.152344 0 2.703125 1.949219 5.597656 4.851563 5.597656.820312 0 2.054687-.359375 3.058593-1.359375l2.003907-2.507812v56.375c0 2.792968 2.742187 4.746094 6.664062 4.746094 3.3125 0 6.664062-1.628907 6.664062-4.746094v-70.578125c0-2.929688-3.128906-4.746094-6.023437-4.746094zm0 0"/><path d="m133.199219 218.082031c-5.703125 0-11.460938-2.652343-11.460938-8.582031 0-3.695312-2.214843-5.492188-6.769531-5.492188-4.410156 0-6.558594 2.042969-6.558594 6.238282 0 9.578125 7.824219 19.882812 25.003906 19.882812 15.820313 0 24.894532-8.914062 24.894532-24.464844v-2.027343c0-15.089844-8.878906-23.402344-25.003906-23.402344h-8.398438l1.347656-18.65625h23.683594c2.667969 0 4.535156-2.476563 4.535156-6.023437 0-2.996094-1.558594-6.023438-4.535156-6.023438h-31.664062c-2.085938 0-3.285157 1.5625-3.566407 4.65625l-2.449219 28.945312c-.101562.722657-.222656 1.863282-.222656 2.699219 0 3.625 1.902344 5.382813 5.8125 5.382813h15.457032c7.636718 0 11.675781 4.296875 11.675781 12.421875v2.027343c0 8.242188-3.964844 12.417969-11.78125 12.417969zm0 0"/></svg>