<svg height="511pt" viewBox="-11 0 511 511.99794" width="511pt" xmlns="http://www.w3.org/2000/svg"><path d="m315.175781 352.417969c-8.171875-8.171875-21.464843-8.171875-29.636719 0l-46.503906 46.503906c-26.246094-13.714844-45.261718-25.214844-72.722656-52.679687-27.453125-27.453126-38.957031-46.460938-52.679688-72.703126l46.515626-46.515624c8.167968-8.167969 8.167968-21.464844 0-29.632813l-74.585938-74.585937c-8.171875-8.167969-21.46875-8.167969-29.636719 0l-20.050781 20.046874c-41.21875 41.21875-46.761719 107.886719-14.828125 178.339844 1.734375 3.828125 6.238281 5.523438 10.070313 3.789063 3.828124-1.734375 5.523437-6.242188 3.789062-10.070313-27.769531-61.261718-25.152344-118.761718 6.570312-155.695312l82.480469 82.480468-25.027343 25.027344c-2.34375 2.34375-2.898438 5.929688-1.375 8.875 15.152343 29.289063 27.375 50.78125 57.996093 81.402344 30.636719 30.636719 52.132813 42.855469 81.425781 58 2.945313 1.519531 6.53125.964844 8.875-1.378906l25.015626-25.015625 82.484374 82.484375c-26.640624 22.867187-64.371093 30.828125-107.207031 22.40625-48.179687-9.472656-99.160156-39.136719-143.554687-83.53125-22.445313-22.445313-41.078125-46.382813-55.371094-71.152344-2.101562-3.636719-6.753906-4.882812-10.394531-2.785156-3.636719 2.101562-4.882813 6.753906-2.785157 10.394531 14.960938 25.917969 34.40625 50.914063 57.792969 74.300781 46.503907 46.507813 100.265625 77.652344 151.375 87.703125 12.164063 2.390625 23.984375 3.570313 35.339844 3.570313 36.308594 0 67.914063-12.078125 91.152344-35.320313l20.050781-20.046875c8.171875-8.171875 8.171875-21.464844 0-29.636718zm-263.160156-204.183594 14.667969-14.667969c2.238281-2.238281 5.882812-2.238281 8.117187 0l74.585938 74.582032c1.085937 1.085937 1.679687 2.527343 1.679687 4.058593 0 1.535157-.59375 2.976563-1.679687 4.058594l-14.667969 14.671875zm326.976563 297.636719-14.671876 14.667968-82.691406-82.691406 14.671875-14.671875c1.082031-1.082031 2.523438-1.679687 4.058594-1.679687 1.53125 0 2.972656.597656 4.054687 1.679687l74.578126 74.578125c2.238281 2.238282 2.238281 5.878906 0 8.117188zm0 0"/><path d="m342.382812 29.09375c-13.703124 0-24.851562 11.148438-24.851562 24.851562v22.824219h-61.488281c-10 0-18.136719 8.136719-18.136719 18.136719v12.414062c0 8.023438 5.242188 14.835938 12.476562 17.222657l10.417969 79.394531c2.019531 15.402344 15.257813 27.015625 30.789063 27.015625h101.585937c15.535157 0 28.769531-11.613281 30.792969-27.015625l10.417969-79.394531c7.234375-2.386719 12.476562-9.199219 12.476562-17.222657v-12.414062c0-10-8.136719-18.136719-18.136719-18.136719h-61.492187v-22.824219c0-13.703124-11.144531-24.851562-24.851563-24.851562zm-9.636718 24.851562c0-5.3125 4.324218-9.636718 9.636718-9.636718 5.316407 0 9.636719 4.324218 9.636719 9.636718v82.164063c0 5.3125-4.320312 9.636719-9.636719 9.636719-5.3125 0-9.636718-4.324219-9.636718-9.636719zm-79.625 40.960938c0-1.613281 1.308594-2.921875 2.921875-2.921875h61.488281v18.257813h-61.488281c-1.613281 0-2.921875-1.308594-2.921875-2.921876zm155.757812 107.050781c-1.027344 7.855469-7.78125 13.777344-15.699218 13.777344h-101.589844c-7.921875 0-14.671875-5.921875-15.699219-13.777344l-10.039063-76.5h51.679688v10.652344c0 13.703125 11.148438 24.851563 24.851562 24.851563 13.707032 0 24.851563-11.148438 24.851563-24.851563v-10.652344h51.683594zm19.847656-109.972656c1.609376 0 2.921876 1.308594 2.921876 2.921875v12.414062c0 1.613282-1.3125 2.921876-2.921876 2.921876h-61.492187v-18.257813zm0 0"/><path d="m482.773438 165.613281c4.203124 0 7.609374-3.40625 7.609374-7.609375v-125.648437c0-17.839844-14.515624-32.355469-32.355468-32.355469h-233.515625c-17.839844 0-32.355469 14.515625-32.355469 32.355469v207.414062c0 17.84375 14.515625 32.359375 32.355469 32.359375h6.878906v49.195313c0 3.078125 1.855469 5.851562 4.695313 7.027343.941406.390626 1.929687.578126 2.910156.578126 1.980468 0 3.925781-.769532 5.382812-2.226563l54.574219-54.574219h159.074219c17.839844 0 32.355468-14.515625 32.355468-32.359375v-56.40625c0-4.199219-3.40625-7.605469-7.609374-7.605469-4.203126 0-7.605469 3.40625-7.605469 7.605469v56.40625c0 9.453125-7.691407 17.140625-17.140625 17.140625h-162.222656c-2.019532 0-3.953126.804688-5.382813 2.230469l-43.816406 43.816406v-38.4375c0-4.203125-3.402344-7.609375-7.605469-7.609375h-14.488281c-9.453125 0-17.140625-7.6875-17.140625-17.140625v-207.414062c0-9.453125 7.6875-17.140625 17.140625-17.140625h233.515625c9.449218 0 17.140625 7.691406 17.140625 17.140625v125.648437c0 4.203125 3.40625 7.609375 7.605469 7.609375zm0 0"/></svg>