<svg height="496pt" viewBox="0 0 496 496" width="496pt" xmlns="http://www.w3.org/2000/svg"><path d="m432 408h16v16h-16zm0 0"/><path d="m408 448h16v16h-16zm0 0"/><path d="m336 416h16v16h-16zm0 0"/><path d="m272 448h16v16h-16zm0 0"/><path d="m264 192c13.230469 0 24-10.769531 24-24s-10.769531-24-24-24-24 10.769531-24 24 10.769531 24 24 24zm0-32c4.414062 0 8 3.585938 8 8s-3.585938 8-8 8-8-3.585938-8-8 3.585938-8 8-8zm0 0"/><path d="m104 112h16v16h-16zm0 0"/><path d="m368 144h16v16h-16zm0 0"/><path d="m320 112h16v16h-16zm0 0"/><path d="m184 80h16v16h-16zm0 0"/><path d="m168 152h16v16h-16zm0 0"/><path d="m464 104c17.648438 0 32-14.351562 32-32s-14.351562-32-32-32-32 14.351562-32 32 14.351562 32 32 32zm0-48c8.824219 0 16 7.175781 16 16s-7.175781 16-16 16-16-7.175781-16-16 7.175781-16 16-16zm0 0"/><path d="m392 48c13.230469 0 24-10.769531 24-24s-10.769531-24-24-24-24 10.769531-24 24 10.769531 24 24 24zm0-32c4.414062 0 8 3.585938 8 8s-3.585938 8-8 8-8-3.585938-8-8 3.585938-8 8-8zm0 0"/><path d="m24 128c13.230469 0 24-10.769531 24-24s-10.769531-24-24-24-24 10.769531-24 24 10.769531 24 24 24zm0-32c4.414062 0 8 3.585938 8 8s-3.585938 8-8 8-8-3.585938-8-8 3.585938-8 8-8zm0 0"/><path d="m96 64c17.648438 0 32-14.351562 32-32s-14.351562-32-32-32-32 14.351562-32 32 14.351562 32 32 32zm0-48c8.824219 0 16 7.175781 16 16s-7.175781 16-16 16-16-7.175781-16-16 7.175781-16 16-16zm0 0"/><path d="m419.214844 184.6875c7.625-8.214844 12.417968-19.121094 12.769531-31.28125.359375-12.621094-4.382813-24.78125-13.351563-34.238281-8.976562-9.472657-20.871093-14.847657-33.503906-15.160157h-.007812c-4.03125-.078124-7.832032.304688-11.648438 1.183594-6.257812-19.457031-24.375-33.191406-45.472656-33.191406-7.039062 0-13.863281 1.550781-20.167969 4.550781-7.527343-17.046875-24.527343-28.550781-43.832031-28.550781-6.59375 0-13.070312 1.390625-19.097656 4.0625-11.824219-17.496094-31.429688-28.0625-52.902344-28.0625-30.144531 0-55.425781 20.457031-62.191406 48.894531-5.90625-1.070312-11.921875-1.167969-17.96875-.308593-24.71875 3.535156-44.6875 24.125-47.480469 48.964843-1.792969 15.9375 3.265625 31.890625 13.871094 43.761719 4.425781 4.945312 9.753906 8.863281 15.539062 11.910156-54.664062 20.449219-93.769531 73.066406-93.769531 134.777344 0 79.398438 64.601562 144 144 144h96c0 22.054688 17.945312 40 40 40h152c35.289062 0 64-28.710938 64-64 0-18.34375-7.800781-34.871094-20.214844-46.550781 13.199219-22.191407 20.214844-47.417969 20.214844-73.449219 0-53.921875-29.769531-102.535156-76.785156-127.3125zm-338.949219-61.351562c1.980469-17.710938 16.214844-32.390626 33.839844-34.902344 6.582031-.953125 13.132812-.28125 19.414062 2l9.777344 3.550781.925781-10.351563c2.25-24.871093 22.785156-43.632812 47.777344-43.632812 18.175781 0 34.585938 10.121094 42.824219 26.414062l4.085937 8.089844 7.523438-5.0625c5.285156-3.5625 11.359375-5.441406 17.566406-5.441406 15.425781 0 28.625 11.023438 31.40625 26.214844l2.402344 13.121094 10.449218-8.289063c5.796876-4.605469 12.621094-7.046875 19.742188-7.046875 16.222656 0 29.816406 12.246094 31.601562 28.496094l1.207032 10.960937 10.039062-4.546875c4.496094-2.03125 9.167969-3.070312 13.886719-2.894531 8.21875.191406 16.34375 3.894531 22.28125 10.167969 5.929687 6.257812 9.199219 14.550781 8.960937 22.769531-.488281 17.40625-14.542968 31.046875-31.976562 31.046875-7.9375 0-15.601562-3.03125-21.574219-8.535156l-8.089843-7.457032-4.601563 9.992188c-3.917969 8.496094-12.453125 14-21.734375 14-2.351562 0-4.832031-.457031-7.585938-1.375l-7.773437-2.617188-2.425781 7.832032c-5.207032 16.839844-20.566406 28.160156-38.214844 28.160156-6.984375 0-13.894531-1.863281-19.984375-5.398438l-12.015625-6.960937v68.359375c0 8.824219-7.175781 16-16 16s-16-7.175781-16-16v-94.113281l-10.671875 3.785156c-19.761719 6.992187-41.609375-2.910156-49.863281-21.457031l-3.3125-7.4375-7.382813 3.4375c-16.058593 7.480468-35.183593 3.191406-46.601562-9.566406-7.6875-8.601563-11.207031-19.71875-9.902344-31.3125zm333.65625 239.152343c-4.320313-3.464843-9.167969-6.128906-14.378906-7.894531 10.351562-11.609375 16.457031-26.746094 16.457031-42.59375 0-35.289062-28.710938-64-64-64h-96v-10.359375c5.175781 1.550781 10.566406 2.359375 16 2.359375 10.472656 0 20.3125-2.929688 28.792969-8h51.207031c44.113281 0 80 35.886719 80 80 0 18.535156-6.414062 36.230469-18.078125 50.488281zm-121.601563 29.511719h-148.320312c-44.113281 0-80-35.886719-80-80s35.886719-80 80-80h48v16h-48c-35.289062 0-64 28.710938-64 64s28.710938 64 64 64h198.71875c-.390625.6875-.855469 1.320312-1.214844 2.03125-4.425781-1.351562-8.945312-2.03125-13.503906-2.03125-14.167969 0-26.878906 6.207031-35.679688 16zm65.953126-32.449219c-2.066407.273438-4.167969.449219-6.273438.449219h-208c-26.472656 0-48-21.527344-48-48s21.527344-48 48-48h48v16c0 17.648438 14.351562 32 32 32s32-14.351562 32-32v-16h96c26.472656 0 48 21.527344 48 48 0 16.304688-8.535156 31.640625-22.289062 40.441406-7.054688.917969-13.648438 3.398438-19.4375 7.109375zm-114.882813 80.449219h-99.390625c-70.574219 0-128-57.425781-128-128 0-68.703125 54.457031-124.785156 122.457031-127.71875 11.925781 16.75 32.679688 26.214844 53.542969 23.132812v8.585938h-48c-52.9375 0-96 43.0625-96 96s43.0625 96 96 96h138.800781c-.921875 2.601562-1.625 5.289062-2.089843 8.070312-.238282-.007812-.472657-.070312-.710938-.070312-16.359375 0-30.414062 9.894531-36.609375 24zm236.609375-8c0 26.472656-21.527344 48-48 48h-152c-13.230469 0-24-10.769531-24-24s10.769531-24 24-24 24 10.769531 24 24h16c0-16.183594-9.703125-30.078125-23.558594-36.367188 2.160156-15.570312 15.40625-27.632812 31.558594-27.632812 4.832031 0 9.632812 1.191406 14.296875 3.550781l8.496094 4.296875 2.773437-9.113281c4.128906-13.589844 16.363282-22.734375 30.433594-22.734375 7.222656 0 13.960938 2.449219 19.480469 6.734375-5.921875 2.953125-11.417969 6.800781-16.273438 11.554687l11.199219 11.421876c9.035156-8.847657 20.960938-13.710938 33.59375-13.710938 26.472656 0 48 21.527344 48 48zm-48-64c-.761719 0-1.503906.078125-2.257812.113281 11.785156-16.28125 18.257812-35.769531 18.257812-56.113281 0-52.9375-43.0625-96-96-96h-34.105469c1.832031-2.640625 3.519531-5.398438 4.898438-8.382812 14.238281 2.078124 27.824219-3.992188 36.359375-14.65625 7.480468 4.574218 16.039062 7.039062 24.847656 7.039062 7.398438 0 14.367188-1.6875 20.609375-4.632812 45.894531 20.703124 75.390625 66.03125 75.390625 116.632812 0 22.625-5.9375 44.558594-17.152344 63.960938-9.152344-5.066407-19.664062-7.960938-30.847656-7.960938zm0 0"/></svg>