<svg height="512pt" viewBox="0 -57 512.00002 512" width="512pt" xmlns="http://www.w3.org/2000/svg"><path d="m137.988281 302.621094h303.539063c4.199218 0 7.601562-3.402344 7.601562-7.605469v-247.363281c0-9.503906-7.730468-17.238282-17.234375-17.238282h-351.785156c-9.507813 0-17.238281 7.734376-17.238281 17.238282v247.363281c0 4.203125 3.40625 7.605469 7.605468 7.605469h42.160157c4.199219 0 7.605469-3.402344 7.605469-7.605469 0-4.199219-3.40625-7.601563-7.605469-7.601563h-34.558594v-239.761718c0-1.117188.910156-2.027344 2.027344-2.027344h351.785156c1.121094 0 2.03125.910156 2.03125 2.027344v239.761718h-295.933594c-4.199219 0-7.605469 3.402344-7.605469 7.601563 0 4.203125 3.40625 7.605469 7.605469 7.605469zm0 0"/><path d="m504.394531 317.828125h-24.847656v-201.246094c0-4.199219-3.40625-7.601562-7.605469-7.601562-4.199218 0-7.605468 3.402343-7.605468 7.601562v201.25h-416.671876v-270.179687c0-17.890625 14.554688-32.445313 32.445313-32.445313h351.785156c17.890625 0 32.445313 14.554688 32.445313 32.445313v43.582031c0 4.199219 3.402344 7.605469 7.601562 7.605469 4.203125 0 7.605469-3.40625 7.605469-7.605469v-43.582031c0-26.273438-21.378906-47.652344-47.652344-47.652344h-351.785156c-26.277344 0-47.65625 21.378906-47.65625 47.652344v270.175781h-24.847656c-4.199219 0-7.605469 3.40625-7.605469 7.605469v10.660156c0 33.808594 27.507812 61.320312 61.320312 61.320312h389.359376c33.8125 0 61.320312-27.511718 61.320312-61.320312v-10.660156c0-4.199219-3.402344-7.605469-7.605469-7.605469zm-202.1875 15.210937c-1.203125 8.578126-8.59375 15.203126-17.5 15.203126h-57.414062c-8.910157 0-16.296875-6.625-17.503907-15.203126zm194.585938 3.054688c0 25.425781-20.6875 46.113281-46.113281 46.113281h-389.359376c-25.425781 0-46.113281-20.6875-46.113281-46.113281v-3.054688h179.304688c1.269531 16.980469 15.480469 30.410157 32.78125 30.410157h57.414062c17.300781 0 31.511719-13.429688 32.78125-30.410157h179.304688zm0 0"/><path d="m314.3125 62.5c-13.695312 0-24.835938 11.144531-24.835938 24.839844v22.8125h-61.460937c-9.996094 0-18.128906 8.128906-18.128906 18.125v12.410156c0 8.019531 5.238281 14.828125 12.472656 17.214844l10.414063 79.355468c2.019531 15.394532 15.25 27 30.773437 27h101.535156c15.527344 0 28.753907-11.605468 30.777344-27l10.414063-79.355468c7.230468-2.382813 12.46875-9.195313 12.46875-17.214844v-12.410156c0-9.996094-8.132813-18.125-18.128907-18.125h-61.457031v-22.8125c-.003906-13.695313-11.144531-24.839844-24.84375-24.839844zm-9.628906 24.839844c0-5.3125 4.320312-9.632813 9.628906-9.632813 5.3125 0 9.632812 4.320313 9.632812 9.632813v82.121094c0 5.3125-4.320312 9.632812-9.632812 9.632812-5.308594 0-9.628906-4.320312-9.628906-9.632812zm-79.589844 40.9375c0-1.609375 1.3125-2.917969 2.921875-2.917969h61.460937v18.25h-61.460937c-1.609375 0-2.921875-1.3125-2.921875-2.921875zm155.683594 107.003906c-1.03125 7.847656-7.777344 13.769531-15.695313 13.769531h-101.539062c-7.917969 0-14.664063-5.921875-15.695313-13.769531l-10.03125-76.464844h51.660156v10.644532c0 13.695312 11.140626 24.839843 24.835938 24.839843 13.699219 0 24.839844-11.144531 24.839844-24.839843v-10.644532h51.660156zm19.835937-109.921875c1.609375 0 2.921875 1.308594 2.921875 2.917969v12.410156c0 1.609375-1.3125 2.921875-2.921875 2.921875h-61.460937v-18.25zm0 0"/><path d="m108.386719 92.453125c-4.84375-4.84375-13.386719-.980469-12.960938 5.851563.199219 3.199218 2.460938 5.996093 5.554688 6.847656 3.148437.863281 6.609375-.417969 8.398437-3.164063 1.933594-2.972656 1.53125-7.027343-.992187-9.535156zm0 0"/><path d="m127.472656 105.433594h40.925782c4.203124 0 7.605468-3.40625 7.605468-7.605469s-3.402344-7.601563-7.605468-7.601563h-40.925782c-4.199218 0-7.605468 3.402344-7.605468 7.601563s3.40625 7.605469 7.605468 7.605469zm0 0"/><path d="m108.386719 127.433594c-4.640625-4.640625-12.832031-1.332032-12.972657 5.214844-.074218 3.300781 2.078126 6.347656 5.210938 7.371093 3.074219 1.011719 6.566406-.070312 8.492188-2.6875 2.199218-2.996093 1.917968-7.269531-.730469-9.898437zm0 0"/><path d="m127.472656 140.410156h40.925782c4.203124 0 7.605468-3.402344 7.605468-7.601562 0-4.203125-3.402344-7.605469-7.605468-7.605469h-40.925782c-4.199218 0-7.605468 3.402344-7.605468 7.605469 0 4.199218 3.40625 7.601562 7.605468 7.601562zm0 0"/><path d="m110.464844 166.292969c-1.378906-6.613281-10.480469-8.320313-13.976563-2.417969-1.71875 2.902344-1.320312 6.699219 1.015625 9.148438 2.0625 2.167968 5.3125 2.929687 8.121094 1.894531 3.457031-1.269531 5.582031-4.996094 4.839844-8.625zm0 0"/><path d="m127.472656 175.386719h40.925782c4.203124 0 7.605468-3.40625 7.605468-7.605469s-3.402344-7.601562-7.605468-7.601562h-40.925782c-4.199218 0-7.605468 3.402343-7.605468 7.601562s3.40625 7.605469 7.605468 7.605469zm0 0"/><path d="m110.464844 201.273438c-1.371094-6.585938-10.390625-8.320313-13.9375-2.488282-1.703125 2.800782-1.402344 6.453125.726562 8.9375 2.070313 2.414063 5.558594 3.277344 8.515625 2.121094 3.367188-1.316406 5.4375-5.007812 4.695313-8.570312zm0 0"/><path d="m127.472656 210.363281h40.925782c4.203124 0 7.605468-3.40625 7.605468-7.605469 0-4.199218-3.402344-7.601562-7.605468-7.601562h-40.925782c-4.199218 0-7.605468 3.402344-7.605468 7.601562 0 4.199219 3.40625 7.605469 7.605468 7.605469zm0 0"/><path d="m110.03125 234.832031c-2.535156-6.121093-11.507812-6.144531-14.042969 0-1.289062 3.121094-.316406 6.820313 2.34375 8.894531 2.449219 1.910157 5.894531 2.117188 8.566407.539063 3.191406-1.890625 4.578124-6.007813 3.132812-9.433594zm0 0"/><path d="m127.472656 245.339844h40.925782c4.203124 0 7.605468-3.40625 7.605468-7.605469s-3.402344-7.601563-7.605468-7.601563h-40.925782c-4.199218 0-7.605468 3.402344-7.605468 7.601563s3.40625 7.605469 7.605468 7.605469zm0 0"/></svg>