<svg height="496pt" viewBox="0 0 496 496.008" width="496pt" xmlns="http://www.w3.org/2000/svg"><path d="m400.003906 200c0-71.777344-54.65625-120-136-120h-40v.054688c-8.75 0-17.382812.984374-25.855468 2.855468-5.71875-20.117187-24.214844-34.910156-46.144532-34.910156-4.558594 0-9.078125.679688-13.503906 2.03125-8.089844-15.863281-24.265625-26.03125-42.496094-26.03125-26.472656 0-48 21.527344-48 48 0 5.839844 1.121094 11.601562 3.328125 17.175781-7.34375 8.648438-11.328125 19.390625-11.328125 30.824219 0 27.398438 23.167969 49.535156 50.792969 47.910156 2.800781 8 7.6875 14.867188 13.863281 20.242188-.390625 3.945312-.65625 7.910156-.65625 11.847656 0 10.703125 1.425782 21.328125 4.214844 31.59375 10.304688 37.703125 10.433594 76.261719.359375 111.527344-4.695313 16.464844-5.789063 33.582031-3.253906 50.886718 7.71875 52.785157 51.894531 95.351563 105.046875 101.230469 4.640625.503907 9.25.769531 13.832031.769531.121094 0 .234375-.015624.34375-.015624h39.457031c81.34375 0 136-48.222657 136-120 0-10.703126-1.425781-21.328126-4.214844-31.59375-5.128906-18.742188-7.777343-37.726563-7.855468-56.367188.085937-18.71875 2.734375-37.703125 7.855468-56.445312 2.789063-10.257813 4.214844-20.882813 4.214844-31.585938zm-296.871094-50.640625-8.160156 1.816406c-2.496094.550781-4.785156.824219-6.96875.824219-17.648437 0-32-14.351562-32-32 0-8.902344 3.664063-17.199219 10.3125-23.375l4.527344-4.199219-2.910156-5.441406c-2.609375-4.863281-3.929688-9.914063-3.929688-14.984375 0-17.648438 14.351563-32 32-32 14.070313 0 26.304688 9.144531 30.441406 22.742188l2.773438 9.113281 8.496094-4.296875c4.65625-2.367188 9.457031-3.558594 14.289062-3.558594 17.648438 0 32 14.351562 32 32 0 11.9375-6.703125 22.800781-17.503906 28.335938l-7.617188 3.910156 4.425782 7.339844c3.121094 5.167968 4.695312 10.6875 4.695312 16.414062 0 17.648438-14.351562 32-32 32-15.496094 0-28.710937-11.113281-31.425781-26.414062zm17.792969 239.914063c-1.105469-8.945313-1.058593-17.800782.054688-26.503907 4.230469 2.878907 7.023437 7.734375 7.023437 13.230469 0 5.519531-2.816406 10.398438-7.078125 13.273438zm91.207031 90.070312c-41.273437-4.558594-76.226562-34.695312-87.839843-73.816406 11.558593-4.824219 19.710937-16.230469 19.710937-29.527344 0-13.3125-8.175781-24.734375-19.769531-29.550781 10.570313-37.785157 10.394531-78.929688-.574219-119.082031-2.433594-8.871094-3.65625-18.085938-3.65625-27.367188 0-.929688.070313-1.855469.097656-2.785156 5.007813 1.761718 10.34375 2.785156 15.902344 2.785156 26.472656 0 48-21.527344 48-48 0-5.984375-1.175781-11.953125-3.464844-17.601562 11.375-8.382813 18.410157-21.285157 19.289063-35.4375 11.703125-2.792969 23.800781-3.648438 36.046875-2.304688 46.03125 5.085938 84.289062 41.945312 90.976562 87.640625 1.167969 7.992187 1.382813 15.917969.785157 23.742187-21.878907.199219-39.632813 18.03125-39.632813 39.960938 0 17.542969 11.449219 32.824219 28.007813 38.046875-.097657 20.730469 2.648437 41.785156 8.335937 62.585937 2.433594 8.871094 3.65625 18.085938 3.65625 27.367188 0 29.527344-12.625 57.785156-34.640625 77.503906-22.3125 19.984375-51.191406 29.183594-81.230469 25.839844zm104.648438-210.207031c-7.707031-4.082031-12.777344-12.097657-12.777344-21.136719 0-12.199219 9.183594-22.191406 20.984375-23.695312-.335937 1.390624-.558593 2.800781-.953125 4.175781-3.765625 13.191406-6.121094 26.824219-7.253906 40.65625zm63.566406 79.488281c2.433594 8.878906 3.65625 18.09375 3.65625 27.375 0 55.414062-38.328125 94.542969-97.425781 102.449219 6.121094-3.769531 11.960937-8.113281 17.457031-13.035157 25.402344-22.75 39.96875-55.335937 39.96875-89.414062 0-10.703125-1.425781-21.328125-4.214844-31.59375-10.304687-37.703125-10.433593-76.261719-.359374-111.527344 4.695312-16.464844 5.789062-33.582031 3.253906-50.886718-5.191406-35.480469-26.894532-66.289063-56.679688-84.496094 59.417969 7.71875 98 46.910156 98 102.503906 0 9.28125-1.222656 18.496094-3.65625 27.375-5.496094 20.089844-8.328125 40.472656-8.421875 60.664062.09375 20.121094 2.925781 40.496094 8.421875 60.585938zm0 0"/><path d="m224.003906 48c13.230469 0 24-10.769531 24-24s-10.769531-24-24-24c-13.230468 0-24 10.769531-24 24s10.769532 24 24 24zm0-32c4.417969 0 8 3.585938 8 8s-3.582031 8-8 8c-4.414062 0-8-3.585938-8-8s3.585938-8 8-8zm0 0"/><path d="m456.003906 80c-22.054687 0-40 17.945312-40 40s17.945313 40 40 40c22.054688 0 40-17.945312 40-40s-17.945312-40-40-40zm0 64c-13.230468 0-24-10.769531-24-24s10.769532-24 24-24c13.230469 0 24 10.769531 24 24s-10.769531 24-24 24zm0 0"/><path d="m64.003906 264c0-17.648438-14.351562-32-32-32-17.648437 0-31.99999975 14.351562-31.99999975 32s14.35156275 32 31.99999975 32c17.648438 0 32-14.351562 32-32zm-32 16c-8.824218 0-16-7.175781-16-16s7.175782-16 16-16c8.824219 0 16 7.175781 16 16s-7.175781 16-16 16zm0 0"/><path d="m88.003906 56h16v16h-16zm0 0"/><path d="m128.003906 152h16v16h-16zm0 0"/><path d="m144.003906 88h16v16h-16zm0 0"/><path d="m80.003906 112h16v16h-16zm0 0"/><path d="m456.003906 416c-13.230468 0-24 10.769531-24 24s10.769532 24 24 24c13.230469 0 24-10.769531 24-24s-10.769531-24-24-24zm0 32c-4.414062 0-8-3.585938-8-8s3.585938-8 8-8c4.417969 0 8 3.585938 8 8s-3.582031 8-8 8zm0 0"/><path d="m72.003906 416c-13.230468 0-24 10.769531-24 24s10.769532 24 24 24c13.230469 0 24-10.769531 24-24s-10.769531-24-24-24zm0 32c-4.414062 0-8-3.585938-8-8s3.585938-8 8-8c4.417969 0 8 3.585938 8 8s-3.582031 8-8 8zm0 0"/><path d="m216.003906 344c17.648438 0 32-14.351562 32-32h-16c0 8.824219-7.175781 16-16 16-8.824218 0-16-7.175781-16-16s7.175782-16 16-16v-16c-17.648437 0-32 14.351562-32 32s14.351563 32 32 32zm0 0"/><path d="m224.003906 432c-17.648437 0-32 14.351562-32 32h16c0-8.824219 7.175782-16 16-16 8.824219 0 16 7.175781 16 16h16c0-17.648438-14.351562-32-32-32zm0 0"/><path d="m240.003906 128c-13.230468 0-24 10.769531-24 24s10.769532 24 24 24c13.230469 0 24-10.769531 24-24s-10.769531-24-24-24zm0 32c-4.414062 0-8-3.585938-8-8s3.585938-8 8-8c4.417969 0 8 3.585938 8 8s-3.582031 8-8 8zm0 0"/><path d="m248.003906 264h16v16h-16zm0 0"/><path d="m160.003906 216h16v16h-16zm0 0"/><path d="m280.003906 368h16v16h-16zm0 0"/><path d="m200.003906 384h16v16h-16zm0 0"/><path d="m288.003906 176h16v16h-16zm0 0"/></svg>