<svg height="496pt" viewBox="-96 0 496 496" width="496pt" xmlns="http://www.w3.org/2000/svg"><path d="m279.0625 227.097656c-14.4375-9.632812-23.0625-25.746094-23.0625-43.097656v-72h8c8.824219 0 16-7.175781 16-16v-14.703125c0-1.730469-.28125-3.433594-.824219-5.058594l-21.769531-65.300781c-2.175781-6.546875-8.277344-10.9375-15.175781-10.9375h-242.230469v62.863281l46.894531 7.214844c-.789062 6.65625-2 13.335937-3.679687 20.082031-6.832032 27.320313-20.96875 52.28125-40.871094 72.183594l-2.34375 2.34375v27.3125h18.496094c20.976562 0 41.015625-10.015625 53.609375-26.808594 4.742187-6.328125 8.300781-13.367187 10.574219-20.953125l19.6875-65.628906 4.328124.664063 13.304688 26.613281v42.800781l-23.238281 23.242188c-10.808594 10.804687-16.761719 25.175781-16.761719 40.453124 0 8.839844 2.089844 17.6875 6.039062 25.585938l7.601563 15.199219c1.542969 3.089843 2.359375 6.542969 2.359375 10 0 7.761719-3.929688 14.855469-10.511719 18.96875l-23.128906 14.457031c-19.015625 11.878906-30.359375 32.359375-30.359375 54.765625 0 6.542969.992188 13.023437 2.9375 19.265625l32.167969 102.910156c4.191406 13.441406 16.460937 22.464844 30.542969 22.464844h174.351562c17.648438 0 32-14.351562 32-32v-190.3125c0-18.765625-9.328125-36.183594-24.9375-46.589844zm-39.0625-83.097656h-24v-32h24zm-104-32h24v32h-24zm40 0h24v32h-24zm-160-62.863281v-33.136719h32v35.886719c0 .722656-.054688 1.441406-.0625 2.160156zm51.351562 90.511719c-1.726562 5.777343-4.441406 11.136718-8.046874 15.953124-9.585938 12.765626-24.839844 20.398438-40.808594 20.398438h-2.496094v-4.734375c20.726562-21.554687 35.480469-48.203125 42.878906-77.816406 1.722656-6.890625 3.007813-13.890625 3.863282-20.9375l23.65625 3.640625zm-3.496093-83.152344c.039062-1.535156.144531-3.070313.144531-4.609375v-35.886719h178.230469l21.769531 65.296875v14.703125h-131.054688l-15.640624-31.28125zm224.144531 407.503906c0 8.824219-7.175781 16-16 16h-174.351562c-7.03125 0-13.167969-4.511719-15.273438-11.222656l-32.167969-102.921875c-1.464843-4.695313-2.207031-9.566407-2.207031-14.496094 0-16.863281 8.535156-32.261719 22.839844-41.199219l23.128906-14.457031c11.289062-7.054687 18.03125-19.214844 18.03125-32.535156 0-5.929688-1.398438-11.855469-4.046875-17.160157l-7.601563-15.199218c-2.847656-5.6875-4.351562-12.054688-4.351562-18.425782 0-11.007812 4.289062-21.351562 12.070312-29.144531l23.242188-23.238281h108.6875v24c0 22.71875 11.289062 43.808594 30.183594 56.40625 11.152344 7.433594 17.816406 19.875 17.816406 33.28125zm0 0"/><path d="m122.265625 238.847656 14.300781-7.167968-7.582031-15.152344c-.648437-1.289063-.984375-2.726563-.984375-4.144532 0-2.421874.984375-4.796874 2.695312-6.511718l25.585938-25.582032-11.3125-11.3125-25.585938 25.582032c-4.695312 4.6875-7.382812 11.183594-7.382812 17.824218 0 3.875.921875 7.777344 2.664062 11.296876zm0 0"/><path d="m232 256h-66c-11.34375 0-21.015625 8.390625-23.007812 19.953125-3.335938 19.414063-14.726563 36.0625-32.082032 46.894531l-23.109375 14.457032c-4.890625 3.039062-7.800781 8.304687-7.800781 14.0625 0 1.695312.257812 3.359374.742188 4.914062l25.152343 80.496094c2.105469 6.710937 8.242188 11.222656 15.273438 11.222656h118.832031c8.824219 0 16-7.175781 16-16v-152c0-13.230469-10.769531-24-24-24zm8 176h-118.832031l-24.894531-81.128906 23.109374-14.457032c21.265626-13.269531 35.25-33.78125 39.371094-57.75.679688-3.921874 3.652344-6.664062 7.246094-6.664062h66c4.40625 0 8 3.59375 8 8zm0 0"/><path d="m128 360h16v16h-16zm0 0"/><path d="m168 360h16v16h-16zm0 0"/><path d="m208 360h16v16h-16zm0 0"/><path d="m128 392h96v16h-96zm0 0"/><path d="m152 328h72v16h-72zm0 0"/><path d="m168 296h56v16h-56zm0 0"/></svg>