<svg height="512pt" viewBox="-9 0 512 512.00097" width="512pt" xmlns="http://www.w3.org/2000/svg"><path d="m50.125 36.132812c-1.234375-2.925781-4.207031-4.839843-7.398438-4.6875-3.183593.15625-5.964843 2.351563-6.902343 5.386719-2.085938 6.773438 5.835937 12.449219 11.617187 8.445313 2.921875-2.023438 3.996094-5.863282 2.683594-9.144532zm0 0"/><path d="m101.847656 36.132812c-1.214844-2.867187-4.085937-4.765624-7.214844-4.691406-3.320312.082032-6.246093 2.378906-7.136718 5.570313-1.832032 6.558593 5.601562 12.046875 11.34375 8.480469 3.140625-1.949219 4.367187-5.949219 3.007812-9.359376zm0 0"/><path d="m75.988281 36.132812c-1.238281-2.925781-4.210937-4.839843-7.402343-4.6875-3.179688.15625-5.964844 2.351563-6.902344 5.386719-2.082032 6.773438 5.835937 12.449219 11.617187 8.445313 2.921875-2.023438 3.996094-5.863282 2.6875-9.144532zm0 0"/><path d="m44.351562 114.625h117.125c4.199219 0 7.605469-3.402344 7.605469-7.605469 0-4.199219-3.40625-7.605469-7.605469-7.605469h-117.125c-4.199218 0-7.605468 3.40625-7.605468 7.605469 0 4.203125 3.402344 7.605469 7.605468 7.605469zm0 0"/><path d="m44.351562 151.179688h117.125c4.199219 0 7.605469-3.40625 7.605469-7.605469s-3.40625-7.605469-7.605469-7.605469h-117.125c-4.199218 0-7.605468 3.40625-7.605468 7.605469s3.402344 7.605469 7.605468 7.605469zm0 0"/><path d="m44.351562 187.734375h96.839844c4.199219 0 7.605469-3.40625 7.605469-7.609375 0-4.199219-3.40625-7.605469-7.605469-7.605469h-96.839844c-4.199218 0-7.605468 3.40625-7.605468 7.605469 0 4.203125 3.402344 7.609375 7.605468 7.609375zm0 0"/><path d="m44.351562 224.285156h63.886719c4.199219 0 7.605469-3.402344 7.605469-7.605468 0-4.199219-3.40625-7.605469-7.605469-7.605469h-63.886719c-4.199218 0-7.605468 3.40625-7.605468 7.605469 0 4.203124 3.402344 7.605468 7.605468 7.605468zm0 0"/><path d="m490.503906 450.632812c-6.785156-20.152343-20.894531-41.617187-39.722656-60.445312-2.933594-2.933594-5.9375-5.738281-8.984375-8.433594 1.558594-3.972656 2.382813-8.21875 2.382813-12.546875v-334.796875c0-18.972656-15.433594-34.410156-34.410157-34.410156h-375.359375c-18.972656 0-34.410156 15.4375-34.410156 34.410156v89.617188c0 4.203125 3.40625 7.605468 7.605469 7.605468 4.203125 0 7.605469-3.402343 7.605469-7.605468v-49.996094h413.757812v295.175781c0 .683594-.050781 1.363281-.121094 2.039063-9.769531-7.214844-19.816406-13.089844-29.679687-17.363282 15.726562-30.03125 20.753906-64.945312 13.40625-99.191406-.878907-4.105468-4.921875-6.722656-9.03125-5.839844-4.105469.878907-6.722657 4.921876-5.839844 9.03125 9.449219 44.0625-3.90625 89.363282-35.726563 121.183594-51.484374 51.484375-135.246093 51.484375-186.730468 0-51.480469-51.480468-51.480469-135.246094 0-186.726562 51.484375-51.480469 135.246094-51.480469 186.730468 0 12.605469 12.605468 22.363282 27.300781 29.003907 43.671875 1.582031 3.894531 6.019531 5.769531 9.910156 4.191406s5.765625-6.011719 4.1875-9.90625c-7.410156-18.269531-18.289063-34.660156-32.34375-48.714844-57.414063-57.410156-150.828125-57.414062-208.242187 0-56.945313 56.945313-57.398438 149.296875-1.386719 206.820313h-128.695313c-10.585937 0-19.199218-8.613282-19.199218-19.199219v-219.820313c0-4.199218-3.402344-7.605468-7.605469-7.605468-4.199219 0-7.605469 3.40625-7.605469 7.605468v219.824219c0 18.972657 15.4375 34.40625 34.410156 34.40625h146c26.039063 19.507813 57.117188 29.269531 88.203125 29.269531 23.441407 0 46.886719-5.550781 68.167969-16.648437 7.570312 17.492187 20.214844 35.535156 36.316406 51.636719 11.050782 11.050781 22.886719 20.402344 35.175782 27.796875 1.226562.738281 2.578124 1.089843 3.914062 1.089843 2.582031 0 5.097656-1.3125 6.523438-3.683593 2.167968-3.601563 1.003906-8.273438-2.59375-10.441407-11.234376-6.753906-22.089844-15.339843-32.261719-25.515624-15.34375-15.34375-27.183594-32.421876-33.855469-48.6875 8.03125-5.328126 15.65625-11.527344 22.730469-18.605469 7.027343-7.027344 13.234375-14.652344 18.609375-22.730469 16.261718 6.667969 33.34375 18.507812 48.6875 33.847656 17.199218 17.203125 30.007812 36.574219 36.058594 54.546875 5.371093 15.945313 4.613281 28.925781-2.074219 35.613281-7.203125 7.207032-21.355469 7.546876-38.824219.929688-3.929688-1.488281-8.320312.488281-9.808594 4.417969-1.488281 3.929687.492188 8.316406 4.417969 9.804687 10.132813 3.839844 19.503906 5.746094 27.839844 5.746094 11.121093 0 20.390625-3.398438 27.132812-10.140625 11.089844-11.089844 13.125-29.28125 5.734375-51.226563zm-475.292968-391.816406v-24.40625c0-10.585937 8.613281-19.199218 19.199218-19.199218h375.359375c10.585938 0 19.199219 8.613281 19.199219 19.199218v24.40625zm0 0"/><path d="m192.949219 210.042969c-41.71875 41.71875-41.71875 109.605469 0 151.324219 20.863281 20.859374 48.257812 31.289062 75.664062 31.289062 27.394531 0 54.800781-10.433594 75.660157-31.289062 41.71875-41.722657 41.71875-109.605469 0-151.324219-41.722657-41.71875-109.601563-41.71875-151.324219 0zm140.566406 140.566406c-35.789063 35.789063-94.019531 35.789063-129.808594 0-35.789062-35.789063-35.789062-94.019531 0-129.808594 17.894531-17.894531 41.398438-26.84375 64.90625-26.84375 23.503907 0 47.007813 8.949219 64.902344 26.84375 35.789063 35.789063 35.789063 94.019531 0 129.808594zm0 0"/><path d="m327.171875 278.097656h-50.957031v-50.957031c0-4.199219-3.40625-7.605469-7.605469-7.605469s-7.605469 3.40625-7.605469 7.605469v50.957031h-50.957031c-4.199219 0-7.605469 3.40625-7.605469 7.605469s3.40625 7.605469 7.605469 7.605469h50.957031v50.957031c0 4.199219 3.40625 7.605469 7.605469 7.605469s7.605469-3.40625 7.605469-7.605469v-50.957031h50.957031c4.199219 0 7.605469-3.40625 7.605469-7.605469s-3.40625-7.605469-7.605469-7.605469zm0 0"/></svg>