<svg height="496pt" viewBox="0 0 495 496" width="496pt" xmlns="http://www.w3.org/2000/svg"><path d="m179.148438 323.375-2.304688-6.917969c3.671875-2.9375 6.082031-7.402343 6.082031-12.457031v-32c0-8.824219-7.179687-16-16-16h-8v-232c0-13.230469-10.769531-24-24-24-13.234375 0-24 10.769531-24 24v232h-8c-8.824219 0-16 7.175781-16 16v32c0 5.054688 2.40625 9.519531 6.078125 12.457031l-2.304687 6.917969c-17 50.992188-34.757813 95.671875-80.207031 125.96875l-9.992188 6.65625 9.984375 6.65625c2.046875 1.359375 50.863281 33.34375 124.441406 33.34375 73.574219 0 122.390625-31.984375 124.4375-33.34375l9.984375-6.65625-9.984375-6.65625c-45.449219-30.296875-63.214843-74.976562-80.214843-125.96875zm-70.761719 21.898438 1.945312-25.273438h.566407c-.101563 52.464844-5.308594 105.128906-15.476563 156.601562-7.089844-1.21875-13.785156-2.671874-20.042969-4.304687 18.457032-40.152344 29.609375-82.800781 33.007813-127.023437zm34.539062-73.273438v32h-16v-32zm-16.019531 48h.019531v159.839844c-5.371093-.183594-10.570312-.566406-15.632812-1.078125 10.253906-52.195313 15.511719-105.578125 15.613281-158.761719zm16.019531 5.710938c0 49.769531 4.511719 99.832031 13.414063 148.816406l.792968 4.375c-4.617187.441406-9.34375.777344-14.21875.945312v-154.136718zm29.160157 145.953124c-8.738282-48.039062-13.160157-97.152343-13.160157-145.953124v-5.710938h.589844l1.945313 25.273438c3.398437 44.222656 14.550781 86.871093 33 127.023437-6.664063 1.734375-13.832032 3.277344-21.441407 4.535156zm-5.152344-167.664062h-8.007813v-32h8zm-40.007813-280c0-4.414062 3.589844-8 8-8 4.40625 0 8 3.585938 8 8v232h-16zm-24 248h8v32h-8zm-14.21875 102.535156c-5.269531 32.234375-14.933593 63.417969-28.832031 93.152344-12.925781-4.320312-23.191406-8.976562-30.136719-12.519531 28.304688-22.054688 45.714844-50.039063 58.96875-80.632813zm121.265625 93.152344c-13.898437-29.734375-23.5625-60.925781-28.832031-93.152344 13.253906 30.585938 30.65625 58.578125 58.96875 80.632813-6.9375 3.542969-17.210937 8.199219-30.136719 12.519531zm0 0"/><path d="m452.925781 363.648438c-16.234375-22.320313-42.402343-35.648438-70-35.648438-27.601562 0-53.769531 13.328125-70 35.648438l-2.824219 3.886718c-25.632812 35.242188-39.175781 76.898438-39.175781 120.464844v8h224v-8c0-43.566406-13.546875-85.222656-39.167969-120.464844zm-165.832031 116.351562c1.542969-37.246094 13.894531-72.726562 35.949219-103.054688l2.824219-3.890624c13.226562-18.199219 34.5625-29.054688 57.058593-29.054688 22.496094 0 43.832031 10.855469 57.054688 29.054688l2.832031 3.890624c22.046875 30.328126 34.398438 65.808594 35.953125 103.054688zm0 0"/><path d="m398.925781 360h16v16h-16zm0 0"/><path d="m310.925781 416h16v16h-16zm0 0"/><path d="m430.925781 424h16v16h-16zm0 0"/><path d="m366.925781 448h16v16h-16zm0 0"/><path d="m342.925781 224v-16c-8.824219 0-16-7.175781-16-16s7.175781-16 16-16c2.925781 0 5.742188.824219 8.367188 2.449219l7.632812 4.71875 3.8125-8.128907c6.578125-13.992187 20.785157-23.039062 36.1875-23.039062 22.054688 0 40 17.945312 40 40h16c0-30.871094-25.121093-56-56-56-18.9375 0-36.578125 9.753906-46.832031 25.382812-2.976562-.910156-6.066406-1.382812-9.167969-1.382812-17.648437 0-32 14.351562-32 32s14.351563 32 32 32zm0 0"/><path d="m406.925781 176h16v16h-16zm0 0"/><path d="m358.925781 200h16v16h-16zm0 0"/><path d="m238.925781 336v-16c-8.824219 0-16-7.175781-16-16s7.175781-16 15.503907-16.023438l12.160156.558594-2.761719-10.464844c-.617187-2.335937-.902344-4.261718-.902344-6.070312 0-13.230469 10.765625-24 24-24 8.445313 0 16.125 4.414062 20.527344 11.800781l4.832031 8.128907 7.207032-6.121094c3.128906-2.648438 8.335937-5.808594 15.433593-5.808594 13.230469 0 24 10.769531 24 24s-10.769531 24-24 24v16c22.054688 0 40-17.945312 40-40s-17.945312-40-40-40c-6.539062 0-12.992187 1.679688-18.785156 4.816406-7.472656-8.136718-17.921875-12.816406-29.214844-12.816406-22.058593 0-40 17.945312-40 40 0 .335938 0 .671875.015625 1.007812-13.792968 3.550782-24.015625 16.105469-24.015625 30.992188 0 17.648438 14.351563 32 32 32zm0 0"/><path d="m310.925781 272h16v16h-16zm0 0"/><path d="m262.925781 264h16v16h-16zm0 0"/><path d="m430.925781 248c-17.648437 0-32 14.351562-32 32h16c0-8.824219 7.175781-16 16-16 7.148438 0 13.460938 4.871094 15.351563 11.839844l2.34375 8.6875 8.351562-3.351563c10.648438-4.238281 21.953125 4.007813 21.953125 14.824219 0 8.824219-7.179687 16-16 16v16c17.644531 0 32-14.351562 32-32s-14.355469-32-32-32c-1.417969 0-2.824219.097656-4.226562.289062-5.574219-9.875-16.109375-16.289062-27.773438-16.289062zm0 0"/></svg>