<svg height="512pt" viewBox="0 -12 512.00002 512" width="512pt" xmlns="http://www.w3.org/2000/svg"><path d="m70.480469 295.703125c4.199219 0 7.601562-3.402344 7.601562-7.601563v-149.359374c0-1.117188.910157-2.027344 2.027344-2.027344h57.636719c4.199218 0 7.605468-3.40625 7.605468-7.605469s-3.40625-7.605469-7.605468-7.605469h-57.636719c-9.503906 0-17.234375 7.734375-17.234375 17.238282v149.359374c0 4.199219 3.402344 7.601563 7.605469 7.601563zm0 0"/><path d="m504.394531 408.914062h-24.855469v-270.171874c0-26.277344-21.375-47.652344-47.648437-47.652344h-64.160156c-2.519531-13.136719-8.867188-25.523438-18.664063-35.316406-17.507812-17.507813-43.28125-24.03125-66.859375-17.277344l-36.269531-36.269532c-1.683594-1.683593-4.0625-2.480468-6.417969-2.1562495-2.359375.3281255-4.429687 1.7421875-5.59375 3.8203125l-48.804687 87.199219h-105.011719c-26.273437 0-47.652344 21.375-47.652344 47.652344v270.171874h-24.851562c-4.199219 0-7.605469 3.40625-7.605469 7.605469v10.660157c0 33.808593 27.507812 61.320312 61.320312 61.320312h389.359376c33.8125 0 61.320312-27.511719 61.320312-61.320312v-10.660157c0-4.199219-3.402344-7.605469-7.605469-7.605469zm-166.082031-342.386718c11.460938 11.457031 16.851562 27.480468 15.121094 43.195312l-58.316406-58.316406c15.714843-1.730469 31.738281 3.660156 43.195312 15.121094zm-96.023438-46.441406 142.46875 142.46875-97.742187 54.707031-99.433594-99.429688zm63.488282 249.351562-30.820313-21.226562 15.382813-15.382813 13.40625-7.503906c7.878906 13.394531 8.625 30.085937 2.03125 44.113281zm-90.761719 17.207031c-2.757813 2.753907-6.421875 4.273438-10.316406 4.273438-3.898438 0-7.5625-1.519531-10.320313-4.273438l-76.179687-76.179687c-2.757813-2.757813-4.273438-6.421875-4.273438-10.320313 0-3.894531 1.515625-7.558593 4.273438-10.316406l59.9375-59.9375 96.816406 96.816406zm49.007813-27.5 39.851562 27.449219c.011719.007812.023438.019531.03125.027344.011719.007812.019531.007812.027344.015625l38.828125 26.746093c1.796875 1.234376 2.207031 2.980469 2.289062 3.910157.085938.929687 0 2.722656-1.542969 4.261719l-24.117187 24.121093c-1.820313 1.820313-4.683594 2.082031-6.804687.621094l-80.359376-55.355469zm232.769531 168.035157c0 25.425781-20.6875 46.109374-46.113281 46.109374h-389.359376c-25.425781 0-46.113281-20.683593-46.113281-46.109374v-3.054688h179.304688c1.269531 16.980469 15.480469 30.414062 32.78125 30.414062h57.414062c17.300781 0 31.511719-13.433593 32.78125-30.414062h55.195313c4.199218 0 7.601562-3.40625 7.601562-7.605469s-3.402344-7.605469-7.601562-7.605469h-325.015625v-270.171874c0-17.890626 14.550781-32.445313 32.441406-32.445313h96.5l-4.59375 8.207031-64.570313 64.570313c-5.628906 5.628906-8.730468 13.113281-8.730468 21.070312 0 7.960938 3.101562 15.445313 8.730468 21.074219l76.179688 76.179688c5.628906 5.628906 13.113281 8.726562 21.074219 8.726562 5.757812 0 11.261719-1.628906 16-4.65625l83.261719 57.351562c3.535156 2.433594 7.601562 3.625 11.648437 3.625 5.300781 0 10.5625-2.042968 14.535156-6.019531l24.121094-24.117187c4.324219-4.328125 6.488281-10.304688 5.933594-16.398438-.558594-6.09375-3.769531-11.578125-8.808594-15.050781l-32.964844-22.710937c9.820313-18.882813 9.246094-41.871094-1.410156-60.25l83.9375-46.980469c2.078125-1.164063 3.492187-3.234375 3.816406-5.59375.328125-2.359375-.46875-4.734375-2.152343-6.421875l-22.191407-22.191406h51.464844c1.117187 0 2.027344.910156 2.027344 2.03125v239.757812h-355.835938v-59.984375c0-4.199219-3.402343-7.601563-7.601562-7.601563-4.203125 0-7.605469 3.402344-7.605469 7.601563v67.585937c0 4.199219 3.402344 7.605469 7.605469 7.605469h371.039062c4.203125 0 7.605469-3.40625 7.605469-7.605469v-247.359374c0-9.503907-7.730469-17.238282-17.234375-17.238282h-65.246094c1.34375-5.011718 2.097657-10.113281 2.269531-15.207031h62.976563c17.890625 0 32.441406 14.554687 32.441406 32.445313v270.171874h-66.300781c-4.199219 0-7.605469 3.40625-7.605469 7.605469s3.40625 7.601563 7.605469 7.601563h98.761719zm-287.003907-3.054688h92.421876c-1.207032 8.578125-8.597657 15.203125-17.503907 15.203125h-57.414062c-8.910157 0-16.296875-6.625-17.503907-15.203125zm0 0"/><path d="m184.605469 168.621094c-2.96875-2.96875-7.78125-2.96875-10.75 0l-34.410157 34.410156c-2.96875 2.96875-2.96875 7.785156 0 10.753906 1.484376 1.484375 3.429688 2.226563 5.375 2.226563 1.945313 0 3.894532-.742188 5.378907-2.226563l34.40625-34.410156c2.972656-2.96875 2.972656-7.785156 0-10.753906zm0 0"/><path d="m204.503906 188.519531c-2.96875-2.972656-7.785156-2.96875-10.753906 0l-34.40625 34.410157c-2.972656 2.96875-2.972656 7.78125 0 10.75 1.484375 1.488281 3.429688 2.230468 5.375 2.230468s3.890625-.742187 5.375-2.230468l34.410156-34.40625c2.972656-2.96875 2.972656-7.785157 0-10.753907zm0 0"/><path d="m213.648438 208.417969-34.40625 34.410156c-2.972657 2.96875-2.972657 7.78125 0 10.75 1.484374 1.484375 3.429687 2.230469 5.375 2.230469 1.945312 0 3.890624-.742188 5.375-2.230469l34.410156-34.40625c2.96875-2.972656 2.96875-7.785156 0-10.753906s-7.78125-2.96875-10.753906 0zm0 0"/></svg>