<svg height="496pt" viewBox="0 -52 496 496" width="496pt" xmlns="http://www.w3.org/2000/svg"><path d="m349.59375 184 71.664062-128.984375c1.796876-3.246094 2.742188-6.910156 2.742188-10.609375 0-11.085938-7.550781-20.496094-18.375-22.902344l-58.25-12.945312c-1.671875-.375-3.375-.558594-5.070312-.558594h-14.03125c-7.859376 0-15.160157 3.902344-19.519532 10.449219l-7.289062 10.933593c-2.34375 3.503907-8.265625 3.136719-10.144532-.628906l-7.886718-15.785156c-4-8-12.042969-12.96875-20.984375-12.96875h-38.714844c-7.351563 0-14.367187 3.503906-18.773437 9.390625l-14.722657 19.625c-1.40625 1.863281-3.636719 2.984375-5.972656 2.984375h-7.992187c-2.496094 0-4.824219-1.238281-6.210938-3.3125l-6.816406-10.238281c-4.367188-6.546875-11.660156-10.449219-19.519532-10.449219h-48.261718c-12.945313 0-23.464844 10.519531-23.464844 23.464844v12.527344c0 3.96875 1.023438 7.902343 2.953125 11.390624l71.453125 128.617188h-146.40625v208h496v-208zm-260.648438-136.382812c-.617187-1.113282-.945312-2.359376-.945312-3.625v-12.527344c0-4.121094 3.34375-7.464844 7.464844-7.464844h48.261718c2.496094 0 4.824219 1.238281 6.210938 3.3125l6.816406 10.238281c4.367188 6.546875 11.660156 10.449219 19.519532 10.449219h7.992187c7.351563 0 14.367187-3.503906 18.773437-9.390625l14.722657-19.625c1.40625-1.863281 3.636719-2.984375 5.972656-2.984375h38.714844c2.796875 0 5.421875 1.617188 6.671875 4.128906l7.886718 15.78125c3.734376 7.457032 11.222657 12.089844 19.566407 12.089844 7.328125 0 14.136719-3.640625 18.195312-9.742188l7.285157-10.9375c1.402343-2.082031 3.722656-3.320312 6.21875-3.320312h14.03125c.535156 0 1.085937.0625 1.617187.175781l58.230469 12.945313c3.449218.757812 5.847656 3.757812 5.847656 7.285156 0 .992188-.257812 1.984375-.734375 2.851562l-75.96875 136.742188h-14.984375l43-96.753906-14.625-6.492188-45.886719 103.246094h-15.921875l26.753906-85.617188-15.265624-4.765624-28.246094 90.382812h-10.121094v-64h-16v64h-10.121094l-28.246094-90.382812-15.265624 4.765624 26.753906 85.617188h-15.921875l-29.886719-67.246094-14.625 6.492188 27 60.753906h-14.984375zm-72.945312 312.382812h32v-16h-32v-144h320v120h-115.3125l-24 24h-132.6875v16h139.3125l24-24h108.6875v40h-320zm336 16v-28.6875l12.6875 12.6875h75.3125v-16h-68.6875l-19.3125-19.3125v-124.6875h128v144h-24v16h24v16zm0 0"/><path d="m32 216h104v16h-104zm0 0"/><path d="m152 216h16v16h-16zm0 0"/><path d="m32 248h136v16h-136zm0 0"/><path d="m176.375 66.382812 15.261719-4.773437 5 16-15.261719 4.769531zm0 0"/><path d="m352.675781 62.75 7.996094-18 14.628906 6.503906-7.996093 17.996094zm0 0"/><path d="m240 40h16v56h-16zm0 0"/></svg>