<svg height="496pt" viewBox="-40 0 496 496" width="496pt" xmlns="http://www.w3.org/2000/svg"><path d="m360 0h-304c-30.871094 0-56 25.128906-56 56v384c0 30.871094 25.128906 56 56 56h304c30.871094 0 56-25.128906 56-56v-384c0-30.871094-25.128906-56-56-56zm0 104c19.34375 0 35.511719 13.808594 39.199219 32.078125-10.109375-9.925781-23.941407-16.078125-39.199219-16.078125h-304c-15.257812 0-29.089844 6.152344-39.199219 16.078125 3.6875-18.269531 19.855469-32.078125 39.199219-32.078125h48v-16h-48c-15.257812 0-29.089844 6.152344-39.199219 16.078125 3.6875-18.269531 19.855469-32.078125 39.199219-32.078125h304c19.34375 0 35.511719 13.808594 39.199219 32.078125-10.109375-9.925781-23.941407-16.078125-39.199219-16.078125h-240v16zm0 192c19.34375 0 35.511719 13.808594 39.199219 32.078125-10.109375-9.925781-23.941407-16.078125-39.199219-16.078125h-304c-15.257812 0-29.089844 6.152344-39.199219 16.078125 3.6875-18.269531 19.855469-32.078125 39.199219-32.078125h248v-16h-248c-15.257812 0-29.089844 6.152344-39.199219 16.078125 3.6875-18.269531 19.855469-32.078125 39.199219-32.078125h304c19.34375 0 35.511719 13.808594 39.199219 32.078125-10.109375-9.925781-23.941407-16.078125-39.199219-16.078125h-40v16zm40 104.839844c-10.167969-10.382813-24.34375-16.839844-40-16.839844h-248c-17.648438 0-32 14.351562-32 32s14.351562 32 32 32h256v-16h-256c-8.824219 0-16-7.175781-16-16s7.175781-16 16-16h248c22.054688 0 40 17.945312 40 40s-17.945312 40-40 40h-304c-22.054688 0-40-17.945312-40-40v-72c0-22.054688 17.945312-40 40-40h304c22.054688 0 40 17.945312 40 40zm0-135.953125c-10.175781-10.40625-24.335938-16.886719-40-16.886719h-304c-15.664062 0-29.824219 6.480469-40 16.886719v-88.886719c0-22.054688 17.945312-40 40-40h304c22.054688 0 40 17.945312 40 40zm-40-208.886719h-304c-15.664062 0-29.824219 6.480469-40 16.886719v-16.886719c0-22.054688 17.945312-40 40-40h304c22.054688 0 40 17.945312 40 40v16.886719c-10.175781-10.40625-24.335938-16.886719-40-16.886719zm0 0"/></svg>