<svg height="496pt" viewBox="-48 0 496 496" width="496pt" xmlns="http://www.w3.org/2000/svg"><path d="m392 438.703125v-366.703125l-17.753906-72h-348.492188l-17.753906 71.015625v367.6875l-8 24v33.296875h400v-33.296875zm-368-38.703125v-240h352v240h-32v16h32v16h-352v-16h304v-16zm88-320v64h-88v-64zm264 64h-248v-64h248zm-14.246094-128 12 48h-347.507812l12-48zm22.246094 464h-368v-14.703125l5.769531-17.296875h356.46875l5.761719 17.296875zm0 0"/><path d="m200 176c-57.34375 0-104 46.65625-104 104s46.65625 104 104 104 104-46.65625 104-104-46.65625-104-104-104zm0 192c-48.519531 0-88-39.480469-88-88s39.480469-88 88-88c34.113281 0 63.6875 19.550781 78.289062 48h-18.601562c-13.304688-19.792969-35.671875-32-59.6875-32-39.695312 0-72 32.296875-72 72s32.304688 72 72 72c24.007812 0 46.375-12.207031 59.6875-32h18.601562c-14.601562 28.449219-44.175781 48-78.289062 48zm0-32c-30.878906 0-56-25.128906-56-56s25.121094-56 56-56c19.625 0 37.902344 10.441406 48 27.246094v57.515625c-10.097656 16.796875-28.375 27.238281-48 27.238281zm84.59375-32h-20.59375v-48h20.59375c2.167969 7.640625 3.40625 15.671875 3.40625 24s-1.238281 16.359375-3.40625 24zm0 0"/><path d="m160 120h17.472656c3.3125 9.289062 12.113282 16 22.527344 16s19.214844-6.710938 22.527344-16h17.472656v-16h-17.472656c-3.3125-9.289062-12.113282-16-22.527344-16s-19.214844 6.710938-22.527344 16h-17.472656zm40-16c4.40625 0 8 3.585938 8 8s-3.59375 8-8 8-8-3.585938-8-8 3.59375-8 8-8zm0 0"/><path d="m280 104h16v16h-16zm0 0"/><path d="m312 104h16v16h-16zm0 0"/><path d="m344 104h16v16h-16zm0 0"/><path d="m56 32h96v16h-96zm0 0"/><path d="m168 32h16v16h-16zm0 0"/><path d="m40 104h56v16h-56zm0 0"/></svg>