<svg height="511pt" viewBox="1 0 511.99998 511" width="511pt" xmlns="http://www.w3.org/2000/svg"><path d="m49.40625 143.269531c-3.65625-5.566406-12.449219-3.726562-13.777344 2.726563-1.398437 6.792968 6.71875 11.679687 12.125 7.492187 3.09375-2.402343 3.855469-6.964843 1.652344-10.21875zm0 0"/><path d="m101.113281 143.269531c-3.605469-5.625-12.472656-3.671875-13.777343 2.726563-1.40625 6.882812 6.890624 11.757812 12.28125 7.367187 2.976562-2.429687 3.65625-6.90625 1.496093-10.09375zm0 0"/><path d="m75.261719 143.269531c-3.601563-5.613281-12.488281-3.683593-13.78125 2.726563-1.382813 6.882812 6.882812 11.765625 12.28125 7.367187 2.972656-2.425781 3.652343-6.910156 1.5-10.09375zm0 0"/><path d="m481.488281 211.457031v-32.105469c0-4.199218-3.402343-7.601562-7.601562-7.601562-4.203125 0-7.605469 3.402344-7.605469 7.601562v31.34375h-165.605469v-71.5c0-45.65625 37.144531-82.804687 82.804688-82.804687 45.65625 0 82.800781 37.148437 82.800781 82.804687v14.808594c0 4.199219 3.40625 7.605469 7.605469 7.605469s7.605469-3.40625 7.605469-7.605469v-14.808594c0-45.15625-30.703126-83.273437-72.328126-94.589843v-22.164063c0-12.097656-9.839843-21.941406-21.941406-21.941406h-7.492187c-12.097657 0-21.9375 9.84375-21.9375 21.941406v22.164063c-31.730469 8.625-57.109375 32.824219-67.382813 63.84375h-256.007812c-18.96875 0-34.402344 15.433593-34.402344 34.402343v259.03125c0 4.199219 3.402344 7.601563 7.605469 7.601563 4.199219 0 7.601562-3.402344 7.601562-7.601563v-219.417968h252.515625c4.199219 0 7.601563-3.40625 7.601563-7.605469s-3.402344-7.605469-7.601563-7.605469h-252.515625v-24.402344c0-10.582031 8.609375-19.191406 19.195313-19.191406h252.300781c-.808594 5.0625-1.234375 10.25-1.234375 15.535156v72.261719c-17.386719 3.535157-30.511719 18.9375-30.511719 37.351563 0 21.019531 17.097657 38.117187 38.117188 38.117187h49.957031c3.578125 19.078125 20.347656 33.5625 40.449219 33.5625 20.101562 0 36.871093-14.484375 40.449219-33.5625h4.9375v190.644531c0 10.582032-8.609376 19.191407-19.195313 19.191407h-375.269531c-10.585938 0-19.195313-8.609375-19.195313-19.191407v-50.339843c0-4.199219-3.402343-7.605469-7.601562-7.605469-4.203125 0-7.605469 3.40625-7.605469 7.605469v50.339843c0 18.96875 15.433594 34.398438 34.402344 34.398438h375.269531c18.96875 0 34.402344-15.429688 34.402344-34.398438v-190.644531h29.808593c21.015626 0 38.117188-17.097656 38.117188-38.113281 0-18.414062-13.125-33.820312-30.511719-37.355469zm-108.488281-189.015625c0-3.714844 3.019531-6.734375 6.730469-6.734375h7.492187c3.714844 0 6.734375 3.019531 6.734375 6.734375v19.304688c-3.441406-.367188-6.9375-.5625-10.476562-.5625-3.539063 0-7.035157.195312-10.476563.5625v-19.304688zm10.480469 282.839844c-11.671875 0-21.5625-7.742188-24.820313-18.355469h49.640625c-3.261719 10.613281-13.152343 18.355469-24.820312 18.355469zm90.402343-33.5625h-180.8125c-12.628906 0-22.90625-10.277344-22.90625-22.90625 0-12.621094 10.257813-22.890625 22.875-22.910156.011719 0 .019532.003906.03125.003906.015626 0 .03125-.003906.050782-.003906h180.714844c.015624 0 .03125.003906.046874.003906.011719 0 .023438-.003906.035157-.003906 12.613281.019531 22.871093 10.289062 22.871093 22.910156.003907 12.628906-10.273437 22.90625-22.90625 22.90625zm0 0"/><path d="m42.949219 339.460938v12.410156c0 8.019531 5.238281 14.828125 12.472656 17.210937l10.410156 79.359375c2.023438 15.394532 15.253907 27 30.777344 27h101.535156c15.527344 0 28.757813-11.605468 30.777344-27l10.410156-79.359375c7.234375-2.382812 12.472657-9.191406 12.472657-17.210937v-12.410156c0-9.996094-8.132813-18.128907-18.128907-18.128907h-61.460937v-22.8125c0-13.695312-11.140625-24.839843-24.839844-24.839843-13.695312 0-24.839844 11.144531-24.839844 24.839843v22.8125h-61.457031c-9.996094.003907-18.128906 8.132813-18.128906 18.128907zm170.894531 107.003906c-1.03125 7.847656-7.777344 13.769531-15.695312 13.769531h-101.539063c-7.917969 0-14.667969-5.921875-15.695313-13.769531l-10.035156-76.464844h51.65625v10.644531c0 13.699219 11.144532 24.839844 24.839844 24.839844 13.699219 0 24.839844-11.140625 24.839844-24.839844v-10.644531h51.660156zm19.832031-109.921875c1.613281 0 2.921875 1.308593 2.921875 2.917969v12.410156c0 1.609375-1.308594 2.921875-2.921875 2.921875h-61.460937v-18.25zm-95.929687-38.019531c0-5.3125 4.320312-9.632813 9.628906-9.632813 5.3125 0 9.632812 4.320313 9.632812 9.632813v82.121093c0 5.3125-4.320312 9.632813-9.632812 9.632813-5.308594 0-9.628906-4.320313-9.628906-9.632813zm-79.589844 40.9375c0-1.609376 1.308594-2.917969 2.921875-2.917969h61.457031v18.25h-61.457031c-1.613281 0-2.921875-1.3125-2.921875-2.921875zm0 0"/><path d="m63.949219 217.371094h144.46875c4.199219 0 7.601562-3.40625 7.601562-7.605469s-3.402343-7.601563-7.601562-7.601563h-144.46875c-4.203125 0-7.605469 3.402344-7.605469 7.601563s3.40625 7.605469 7.605469 7.605469zm0 0"/><path d="m63.949219 253.128906h97.324219c4.199218 0 7.605468-3.402344 7.605468-7.601562 0-4.199219-3.40625-7.605469-7.605468-7.605469h-97.324219c-4.203125 0-7.605469 3.40625-7.605469 7.605469 0 4.199218 3.40625 7.601562 7.605469 7.601562zm0 0"/><path d="m290.535156 403.40625h97.324219c4.203125 0 7.605469-3.40625 7.605469-7.605469s-3.402344-7.605469-7.605469-7.605469h-97.324219c-4.199218 0-7.605468 3.40625-7.605468 7.605469s3.40625 7.605469 7.605468 7.605469zm0 0"/><path d="m290.535156 439.164062h97.324219c4.203125 0 7.605469-3.402343 7.605469-7.601562s-3.402344-7.605469-7.605469-7.605469h-97.324219c-4.199218 0-7.605468 3.40625-7.605468 7.605469s3.40625 7.601562 7.605468 7.601562zm0 0"/></svg>