<svg height="512pt" viewBox="0 -3 512.00002 512" width="512pt" xmlns="http://www.w3.org/2000/svg"><path d="m187.953125 33.628906h-53.734375c-4.199219 0-7.601562 3.40625-7.601562 7.605469s3.402343 7.605469 7.601562 7.605469h53.734375c4.203125 0 7.605469-3.40625 7.605469-7.605469s-3.40625-7.605469-7.605469-7.605469zm0 0"/><path d="m470.675781 163.089844h-148.503906v-119.460938c0-24.058594-19.570313-43.628906-43.625-43.628906h-234.917969c-24.058594 0-43.628906 19.570312-43.628906 43.628906v419.574219c0 24.054687 19.570312 43.628906 43.628906 43.628906h234.917969c24.054687 0 43.625-19.574219 43.625-43.628906v-89.359375h94.582031c4.203125 0 7.605469-3.40625 7.605469-7.605469s-3.402344-7.605469-7.605469-7.605469h-94.582031v-95.425781h174.621094v69.3125c0 14.398438-11.71875 26.113281-26.117188 26.113281h-28.570312c-4.203125 0-7.605469 3.40625-7.605469 7.605469s3.402344 7.601563 7.605469 7.601563h28.570312c22.785157 0 41.324219-18.535156 41.324219-41.320313v-128.105469c0-22.785156-18.539062-41.324218-41.324219-41.324218zm0 15.210937c14.398438 0 26.117188 11.714844 26.117188 26.113281v2.6875h-174.621094v-28.800781zm-333.65625 289.257813c0-13.269532 10.796875-24.0625 24.066407-24.0625 13.269531 0 24.0625 10.792968 24.0625 24.0625 0 13.269531-10.792969 24.066406-24.0625 24.066406-13.269532 0-24.066407-10.796875-24.066407-24.066406zm169.945313-4.355469c0 15.671875-12.75 28.421875-28.417969 28.421875h-86.457031c5.175781-6.65625 8.269531-15.003906 8.269531-24.066406s-3.09375-17.410156-8.269531-24.0625h74.296875c14.214843 0 25.777343-11.566406 25.777343-25.777344v-328.921875c0-14.210937-11.5625-25.773437-25.777343-25.773437h-210.601563c-14.210937 0-25.777344 11.5625-25.777344 25.773437v37.957031c0 4.199219 3.40625 7.601563 7.605469 7.601563s7.605469-3.402344 7.605469-7.601563v-37.957031c0-5.828125 4.738281-10.566406 10.566406-10.566406h210.601563c5.828125 0 10.570312 4.738281 10.570312 10.566406v32.65625h-139.867187c-30.703125 0-55.683594 24.984375-55.683594 55.691406v182.644531c0 30.710938 24.980469 55.691407 55.683594 55.691407h139.867187v2.238281c0 5.828125-4.742187 10.566406-10.570312 10.566406h-210.601563c-5.828125 0-10.566406-4.738281-10.566406-10.566406v-265.617188c0-4.199218-3.40625-7.605468-7.605469-7.605468s-7.605469 3.40625-7.605469 7.605468v265.617188c0 14.214844 11.566407 25.777344 25.777344 25.777344h74.296875c-5.175781 6.652344-8.269531 15-8.269531 24.0625s3.09375 17.410156 8.269531 24.066406h-86.453125c-15.671875 0-28.421875-12.75-28.421875-28.421875v-419.574219c0-15.671875 12.75-28.421875 28.421875-28.421875h234.917969c15.667969 0 28.417969 12.75 28.417969 28.421875zm-30.007813-220.683594h-180.339843v-43.101562h180.339843zm0-58.308593h-180.339843v-7.066407c0-22.324219 18.152343-40.484375 40.472656-40.484375h139.867187zm-180.339843 73.515624h180.339843v36.140626h-14.398437c-4.203125 0-7.605469 3.402343-7.605469 7.601562s3.402344 7.605469 7.605469 7.605469h14.398437v91.199219h-139.867187c-22.320313 0-40.472656-18.160157-40.472656-40.480469zm225.554687-9.726562v-25.691406h174.621094v25.691406zm0 0"/><path d="m336.382812 284.011719c-4.203124 0-7.605468 3.402343-7.605468 7.601562s3.402344 7.605469 7.605468 7.605469h46.300782c4.199218 0 7.601562-3.40625 7.601562-7.605469s-3.402344-7.601562-7.601562-7.601562zm0 0"/><path d="m462.171875 291.613281c0-4.199219-3.40625-7.601562-7.605469-7.601562h-46.300781c-4.203125 0-7.605469 3.402343-7.605469 7.601562s3.402344 7.605469 7.605469 7.605469h46.300781c4.199219 0 7.605469-3.40625 7.605469-7.605469zm0 0"/><path d="m160.058594 309.074219h66.019531c4.199219 0 7.605469-3.402344 7.605469-7.605469 0-4.199219-3.40625-7.601562-7.605469-7.601562h-66.019531c-4.199219 0-7.601563 3.402343-7.601563 7.601562 0 4.203125 3.402344 7.605469 7.601563 7.605469zm0 0"/><path d="m391.90625 145.847656c1.457031 1.457032 3.398438 2.230469 5.378906 2.230469.980469 0 1.96875-.191406 2.910156-.582031 2.839844-1.175782 4.691407-3.949219 4.691407-7.023438v-20.308594h72.992187c4.199219 0 7.605469-3.40625 7.605469-7.605468v-51.703125c0-4.199219-3.40625-7.605469-7.605469-7.605469h-72.992187v-20.308594c0-3.074218-1.851563-5.847656-4.691407-7.023437-2.84375-1.179688-6.113281-.527344-8.289062 1.648437l-53.765625 53.761719c-2.96875 2.972656-2.96875 7.785156 0 10.753906zm-2.226562-94.546875v9.554688c0 4.199219 3.402343 7.601562 7.605468 7.601562h72.992188v36.5h-72.992188c-4.203125 0-7.605468 3.402344-7.605468 7.601563v9.558594l-35.40625-35.410157zm0 0"/></svg>