<svg height="511pt" viewBox="-65 1 511 511.999" width="511pt" xmlns="http://www.w3.org/2000/svg"><path d="m381.371094 184.949219c-1.21875-57.105469-22.371094-105.070313-61.164063-138.714844-34.382812-29.8125-80.277343-46.234375-129.230469-46.234375-48.949218 0-94.84375 16.421875-129.226562 46.234375-38.792969 33.644531-59.945312 81.609375-61.164062 138.710937-.058594 2.625-.085938 5.292969-.085938 7.929688 0 66.011719 17.84375 130.675781 51.605469 187 32.785156 54.691406 79.523437 100.046875 135.160156 131.15625 1.152344.644531 2.429687.96875 3.710937.96875s2.558594-.324219 3.710938-.96875c40.449219-22.617188 75.824219-52.347656 105.144531-88.367188 2.652344-3.253906 2.160157-8.046874-1.097656-10.695312-3.253906-2.652344-8.046875-2.160156-10.695313 1.097656-27.203124 33.414063-59.84375 61.183594-97.0625 82.589844-51.691406-29.742188-95.136718-72.402344-125.824218-123.601562-32.347656-53.960938-49.445313-115.917969-49.445313-179.175782 0-2.53125.027344-5.089844.082031-7.605468 1.125-52.691407 20.464844-96.796876 55.921876-127.546876 31.617187-27.417968 73.972656-42.519531 119.265624-42.519531 45.292969 0 87.648438 15.101563 119.265626 42.519531 35.460937 30.75 54.800781 74.855469 55.925781 127.546876.050781 2.515624.078125 5.074218.078125 7.605468 0 71.601563-21.523438 140.414063-62.246094 198.988282-2.394531 3.445312-1.542969 8.183593 1.902344 10.582031 3.449218 2.398437 8.1875 1.542969 10.585937-1.902344 42.5-61.136719 64.964844-132.945313 64.964844-207.671875.003906-2.636719-.027344-5.304688-.082031-7.925781zm0 0"/><path d="m341.585938 193.523438c0-39.402344-15.15625-76.628907-42.671876-104.820313-27.46875-28.144531-64.21875-44.203125-103.46875-45.214844-1.304687-.035156-2.625-.046875-3.945312-.046875-29.023438 0-57.1875 8.300782-81.441406 24-6.507813 4.214844-12.738282 8.96875-18.503906 14.128906-31.863282 28.453126-50.140626 69.261719-50.140626 111.953126 0 82.761718 67.328126 150.09375 150.085938 150.09375 10.289062 0 20.566406-1.046876 30.558594-3.121094.0625-.011719.121094-.023438.179687-.035156 11.277344-2.347657 22.273438-6.003907 32.6875-10.867188 20.941407-9.777344 39.640625-24.535156 54.078125-42.679688 21.316406-26.792968 32.582032-59.085937 32.582032-93.390624zm-44.480469 83.921874c-12.980469 16.3125-29.792969 29.578126-48.613281 38.371094-9.300782 4.339844-19.117188 7.609375-29.1875 9.722656-.058594.011719-.121094.023438-.179688.035157-9.023438 1.882812-18.316406 2.835937-27.625 2.835937-74.367188 0-134.875-60.507812-134.875-134.886718 0-38.363282 16.421875-75.035157 45.066406-100.613282 5.183594-4.640625 10.78125-8.914062 16.632813-12.699218 21.785156-14.105469 47.089843-21.5625 73.175781-21.5625 1.179688 0 2.359375.007812 3.542969.042968 35.277343.910156 68.304687 15.339844 92.988281 40.632813 24.730469 25.335937 38.347656 58.789062 38.347656 94.199219 0 30.828124-10.125 59.851562-29.273437 83.921874zm0 0"/><path d="m277.273438 134.8125h-61.460938v-22.8125c0-13.695312-11.140625-24.839844-24.835938-24.839844-13.699218 0-24.839843 11.144532-24.839843 24.839844v22.8125h-61.460938c-9.996093 0-18.128906 8.132812-18.128906 18.128906v12.410156c0 8.019532 5.238281 14.828126 12.472656 17.210938l3.445313 26.265625c.503906 3.828125 3.769531 6.617187 7.53125 6.617187.328125 0 .660156-.023437.996094-.066406 4.164062-.546875 7.097656-4.367187 6.550781-8.53125l-3.066407-23.371094h51.65625v10.644532c0 13.699218 11.144532 24.839844 24.839844 24.839844 13.699219 0 24.839844-11.140626 24.839844-24.839844v-10.644532h51.65625l-10.03125 76.464844c-1.03125 7.851563-7.777344 13.769532-15.695312 13.769532h-101.539063c-7.917969 0-14.664063-5.917969-15.691406-13.769532l-4.378907-33.371094c-.546874-4.164062-4.375-7.101562-8.53125-6.550781-4.160156.546875-7.09375 4.363281-6.546874 8.527344l4.378906 33.371094c2.015625 15.394531 15.246094 27 30.773437 27h101.535157c15.523437 0 28.753906-11.605469 30.773437-27l10.414063-79.355469c7.234374-2.386719 12.472656-9.195312 12.472656-17.214844v-12.410156c0-9.992188-8.132813-18.125-18.128906-18.125zm-172.601563 33.457031c-1.609375 0-2.917969-1.308593-2.917969-2.917969v-12.410156c0-1.609375 1.308594-2.921875 2.917969-2.921875h61.460937v18.25zm95.933594 25.855469c0 5.308594-4.320313 9.628906-9.628907 9.628906-5.3125 0-9.632812-4.316406-9.632812-9.628906v-82.125c0-5.308594 4.320312-9.628906 9.632812-9.628906 5.308594 0 9.628907 4.320312 9.628907 9.628906zm15.207031-44.105469h61.460938c1.609374 0 2.921874 1.3125 2.921874 2.921875v12.410156c0 1.609376-1.3125 2.917969-2.921874 2.917969h-61.460938zm0 0"/></svg>