<svg height="512.00002pt" viewBox="0 0 512.00002 512.00002" width="512.00002pt" xmlns="http://www.w3.org/2000/svg"><path d="m508.410156 189.015625-57.757812-35.921875v-145.488281c0-4.199219-3.40625-7.605469-7.605469-7.605469h-374.09375c-4.199219 0-7.605469 3.40625-7.605469 7.605469v56.683593c0 4.199219 3.40625 7.605469 7.605469 7.605469s7.605469-3.40625 7.605469-7.605469v-49.082031h358.882812v214.1875l-62.667968 38.972657c-3.566407 2.21875-4.660157 6.910156-2.441407 10.476562 1.4375 2.316406 3.921875 3.589844 6.460938 3.589844 1.375 0 2.761719-.371094 4.011719-1.148438l115.988281-72.128906v287.636719h-481.585938v-287.636719l236.777344 147.234375c1.230469.765625 2.621094 1.148437 4.015625 1.148437s2.785156-.382812 4.015625-1.148437l100.390625-62.425781c3.566406-2.21875 4.660156-6.90625 2.445312-10.472656-2.21875-3.566407-6.90625-4.65625-10.476562-2.441407l-96.375 59.929688-179.441406-111.585938v-139.757812c0-4.199219-3.40625-7.601563-7.605469-7.601563s-7.605469 3.402344-7.605469 7.601563v63.457031l-57.757812 35.921875c-2.230469 1.386719-3.589844 3.828125-3.589844 6.457031v308.921875c0 4.199219 3.40625 7.605469 7.605469 7.605469h496.789062c4.203125 0 7.605469-3.40625 7.605469-7.605469v-308.921875c0-2.628906-1.355469-5.070312-3.589844-6.457031zm-447.0625 30.921875-39.34375-24.464844 39.34375-24.46875zm389.304688-48.933594 39.34375 24.46875-39.34375 24.464844zm0 0"/><path d="m259.640625 45.652344c-13.695313 0-24.839844 11.144531-24.839844 24.839844v22.8125h-61.460937c-9.996094 0-18.125 8.132812-18.125 18.128906v12.410156c0 8.019531 5.238281 14.828125 12.472656 17.210938l10.410156 79.359374c2.019532 15.390626 15.25 26.996094 30.773438 26.996094h101.539062c15.523438 0 28.753906-11.605468 30.773438-26.996094l10.414062-79.359374c7.230469-2.382813 12.472656-9.191407 12.472656-17.210938v-12.410156c0-9.996094-8.132812-18.128906-18.128906-18.128906h-61.460937v-22.8125c0-13.695313-11.144531-24.839844-24.839844-24.839844zm-9.632813 24.839844c0-5.308594 4.324219-9.632813 9.632813-9.632813 5.3125 0 9.632813 4.324219 9.632813 9.632813v82.125c0 5.308593-4.320313 9.628906-9.632813 9.628906-5.308594 0-9.632813-4.320313-9.632813-9.628906zm-79.585937 40.941406c0-1.609375 1.308594-2.921875 2.917969-2.921875h61.460937v18.25h-61.460937c-1.609375 0-2.917969-1.308594-2.917969-2.917969zm155.679687 107c-1.027343 7.851562-7.777343 13.769531-15.691406 13.769531h-101.539062c-7.917969 0-14.664063-5.917969-15.695313-13.769531l-10.03125-76.464844h51.65625v10.648438c0 13.695312 11.144531 24.839843 24.839844 24.839843 13.699219 0 24.839844-11.144531 24.839844-24.839843v-10.648438h51.65625zm19.839844-109.921875c1.609375 0 2.917969 1.3125 2.917969 2.921875v12.410156c0 1.609375-1.308594 2.917969-2.917969 2.917969h-61.460937v-18.25zm0 0"/><path d="m174.59375 443.527344c-5.46875 0-8.453125-2.507813-10.851562-4.523438-1.566407-1.316406-2.921876-2.453125-4.546876-2.453125-3.234374 0-5.671874 4.15625-5.671874 6.847657 0 5.542968 9.167968 11.742187 21.433593 11.742187 13.613281 0 22.070313-7.730469 22.070313-20.167969 0-14.203125-10.414063-18.621094-18.777344-22.167968-5.757812-2.441407-10.304688-4.371094-10.304688-8.632813 0-4.109375 3.546876-6.464844 9.730469-6.464844 4.609375 0 7.074219 1.265625 9.058594 2.28125 1.210937.621094 2.257813 1.160157 3.441406 1.160157 3.644531 0 5.21875-4.476563 5.21875-6.757813 0-6.121094-11.136719-7.753906-17.71875-7.753906-10.886719 0-22.519531 4.894531-22.519531 18.625 0 12.289062 9.195312 16.371093 17.3125 19.976562 6.3125 2.804688 11.765625 5.222657 11.765625 10.914063 0 5.4375-4.980469 7.375-9.640625 7.375zm0 0"/><path d="m230.585938 386.542969h-.003907c-3.089843 0-7.042969 1.140625-8.003906 4.347656l-17.488281 57.003906c-.121094.472657-.199219.800781-.199219 1.03125 0 3.34375 4.625 5.398438 7.9375 5.398438 3.105469 0 4.148437-1.488281 4.472656-2.722657l3.335938-11.683593h19.984375l3.332031 11.671875c.328125 1.246094 1.371094 2.734375 4.476563 2.734375 3.234374 0 7.9375-2.105469 7.9375-5.398438 0-.28125-.070313-.539062-.140626-.8125l-17.546874-57.222656c-.960938-3.203125-4.8125-4.347656-8.09375-4.347656zm7.207031 43.125h-14.421875l7.210937-25.445313zm0 0"/><path d="m273.4375 387.089844c-3.886719 0-6.394531 1.621094-6.394531 4.128906v58.882812c0 2.902344 2.9375 4.222657 5.667969 4.222657h28.71875c2.652343 0 4.039062-2.851563 4.039062-5.671875 0-1.460938-.339844-2.820313-.957031-3.828125-.738281-1.207031-1.800781-1.839844-3.082031-1.839844h-21.597657v-51.765625c0-2.851562-3.210937-4.128906-6.394531-4.128906zm0 0"/><path d="m354.25 398.429688c1.273438 0 2.394531-.640626 3.164062-1.800782.679688-1.035156 1.054688-2.441406 1.054688-3.960937 0-2.6875-1.320312-5.578125-4.21875-5.578125h-32.25c-2.730469 0-5.671875 1.320312-5.671875 4.21875v58.792968c0 2.902344 2.9375 4.222657 5.671875 4.222657h32.25c1.34375 0 2.464844-.640625 3.234375-1.855469.636719-1 .984375-2.324219.984375-3.722656 0-3.394532-1.734375-5.765625-4.21875-5.765625h-25.132812v-17.191407h13.265624c2.769532 0 4.21875-2.535156 4.21875-5.035156 0-1.355468-.378906-2.625-1.070312-3.570312-.773438-1.0625-1.890625-1.648438-3.148438-1.648438h-13.265624v-17.105468zm0 0"/><path d="m400.050781 326.863281c10.96875 0 16.898438-5.1875 21.230469-8.976562 3.714844-3.253907 5.957031-5.214844 11.210938-5.214844 5.253906 0 7.5 1.960937 11.214843 5.214844 4.332031 3.789062 10.261719 8.976562 21.230469 8.976562 4.199219 0 7.601562-3.402343 7.601562-7.601562s-3.402343-7.605469-7.601562-7.605469c-5.253906 0-7.5-1.964844-11.214844-5.214844-4.332031-3.789062-10.261718-8.980468-21.230468-8.980468-10.964844 0-16.894532 5.191406-21.226563 8.980468-3.714844 3.253906-5.960937 5.214844-11.214844 5.214844-4.199219 0-7.601562 3.40625-7.601562 7.605469s3.402343 7.601562 7.601562 7.601562zm0 0"/><path d="m400.050781 361.085938c10.96875 0 16.898438-5.191407 21.230469-8.980469 3.714844-3.253907 5.957031-5.214844 11.210938-5.214844 5.253906 0 7.5 1.964844 11.214843 5.214844 4.332031 3.789062 10.261719 8.980469 21.230469 8.980469 4.199219 0 7.601562-3.40625 7.601562-7.605469s-3.402343-7.605469-7.601562-7.605469c-5.253906 0-7.5-1.960938-11.214844-5.214844-4.332031-3.789062-10.261718-8.976562-21.230468-8.976562-10.964844 0-16.894532 5.1875-21.226563 8.976562-3.714844 3.253906-5.960937 5.214844-11.214844 5.214844-4.199219 0-7.601562 3.40625-7.601562 7.605469s3.402343 7.605469 7.601562 7.605469zm0 0"/></svg>