<svg height="512pt" viewBox="0 0 512.00002 512" width="512pt" xmlns="http://www.w3.org/2000/svg"><path d="m512 84.089844c0-1.125-.011719-2.246094-.035156-3.367188-.53125-24.871094-9.796875-45.804687-26.789063-60.542968-15.007812-13.015626-34.992187-20.179688-56.277343-20.179688-21.28125 0-41.269532 7.167969-56.273438 20.179688-10.367188 8.988281-17.839844 20.292968-22.222656 33.378906-29.785156-14.066406-62.722656-21.484375-95.859375-21.484375-35.148438 0-68.804688 7.902343-100.035157 23.488281-3.757812 1.875-5.285156 6.441406-3.40625 10.199219 1.871094 3.757812 6.4375 5.285156 10.199219 3.40625 16.0625-8.015625 32.816407-13.839844 50.117188-17.457031-11.792969 11.445312-22.511719 27.714843-31.648438 48.355468-4.855469 10.972656-9.136719 22.890625-12.816406 35.554688-18.90625-8.730469-36.535156-20.347656-52.332031-34.597656 6.886718-6.210938 14.214844-12.015626 21.984375-17.332032 3.464843-2.371094 4.355469-7.105468 1.980469-10.570312-2.371094-3.464844-7.101563-4.351563-10.566407-1.980469-61.222656 41.898437-97.769531 111.140625-97.769531 185.226563 0 32.476562 7.105469 64.710937 20.605469 93.996093h-32.226563c-10.273437 0-18.628906 8.355469-18.628906 18.628907v13c0 8.324218 5.488281 15.386718 13.035156 17.765624l10.9375 83.355469c2.089844 15.945313 15.796875 27.96875 31.878906 27.96875h13.714844c4.199219 0 7.605469-3.402343 7.605469-7.601562s-3.40625-7.605469-7.605469-7.605469h-13.714844c-8.476562 0-15.699218-6.335938-16.800781-14.738281l-10.566406-80.515625h54.890625v11.511718c0 14.152344 11.511719 25.664063 25.664062 25.664063 14.148438 0 25.660157-11.511719 25.660157-25.664063v-11.511718h54.890625l-10.566406 80.511718c-1.101563 8.40625-8.324219 14.742188-16.800782 14.742188h-67.308594c-4.199218 0-7.601562 3.402344-7.601562 7.601562 0 4.203126 3.402344 7.605469 7.601562 7.605469h67.308594c16.082032 0 29.789063-12.023437 31.882813-27.96875l1.351562-10.320312c19.175781 5.222656 39.007813 7.871093 59.085938 7.871093 83.496093 0 159.570312-45.917968 198.539062-119.839843 1.957031-3.714844.535157-8.316407-3.179687-10.273438-3.71875-1.957031-8.316406-.535156-10.273438 3.179688-9.285156 17.609375-20.828125 33.511719-34.167968 47.429687-17.816407-16.234375-37.84375-29.308594-59.363282-38.9375 7.277344-29.960937 11.375-63.421875 11.898438-98.246094h105.488281c-.824219 23.132813-5.390625 45.714844-13.640625 67.21875-1.503906 3.921876.457031 8.320313 4.378906 9.824219.894532.34375 1.816406.503907 2.722656.503907 3.058594 0 5.941407-1.855469 7.101563-4.882813 9.816406-25.601563 14.792969-52.613281 14.792969-80.273437 0-22.28125-3.257813-44.25-9.683594-65.378907 27.085938-28.421875 42.84375-66.566406 42.84375-106.898437zm-165.914062 66.390625c4.082031-1.824219 8.105468-3.773438 12.074218-5.84375 13.242188 31.121093 36.535156 57.648437 67.027344 74.699219 1.15625.644531 2.433594.964843 3.710938.964843 1.28125 0 2.558593-.320312 3.714843-.964843 8.621094-4.820313 16.652344-10.414063 24.058594-16.640626 3.976563 15.011719 6.261719 30.441407 6.820313 46.074219h-105.496094c-.523438-34.839843-4.621094-68.316406-11.910156-98.289062zm-3.300782 98.289062h-176.484375c.503907-32.796875 4.257813-64.261719 10.917969-92.46875 24.46875 8.96875 50.5625 13.664063 77.324219 13.664063 26.480469 0 52.683593-4.6875 77.308593-13.710938 6.671876 28.21875 10.429688 59.703125 10.933594 92.515625zm86.113282-233.5625c32.007812 0 66.894531 20.605469 67.859374 65.839844.023438 1.011719.035157 2.027344.035157 3.042969 0 49.105468-25.90625 94.625-67.894531 119.820312-41.988282-25.195312-67.894532-70.714844-67.894532-119.820312 0-1.015625.011719-2.03125.035156-3.042969.964844-45.234375 35.855469-65.839844 67.859376-65.839844zm-82.0625 53.5c-.5625 3.894531-.914063 7.894531-1.003907 12.015625-.023437 1.121094-.035156 2.242188-.035156 3.367188 0 15.875 2.449219 31.410156 7.058594 46.148437-3.527344 1.882813-7.117188 3.648438-10.742188 5.320313-3.675781-12.636719-7.949219-24.535156-12.800781-35.492188-9.109375-20.582031-19.792969-36.820312-31.546875-48.261718 16.996094 3.578124 33.519531 9.253906 49.070313 16.902343zm-153.160157 37.515625c16.578125-37.460937 38.761719-58.941406 60.867188-58.941406 22.097656 0 44.285156 21.480469 60.863281 58.941406 4.796875 10.832032 9 22.648438 12.59375 35.242188-23.359375 8.746094-48.269531 13.296875-73.457031 13.296875-25.453125 0-50.265625-4.550781-73.472657-13.25 3.59375-12.613281 7.804688-24.445313 12.605469-35.289063zm-90 5.40625c17.804688 16.207032 37.8125 29.265625 59.3125 38.886719-7.277343 29.960937-11.375 63.425781-11.898437 98.253906h-105.484375c1.875-51.683593 22.804687-100.371093 58.070312-137.140625zm-58.066406 152.347656h105.480469c.460937 29.890626 3.632812 59.421876 9.253906 86.386719h-25.644531v-24.261719c0-14.148437-11.511719-25.660156-25.660157-25.660156-14.148437 0-25.664062 11.511719-25.664062 25.660156v24.261719h-15.632812c-13.449219-26.695312-21.035157-56.324219-22.132813-86.386719zm-26.980469 121.4375c-1.886718 0-3.421875-1.535156-3.421875-3.421874v-13c0-1.886719 1.535157-3.421876 3.421875-3.421876h44.4375.035156.042969 20.234375v19.84375zm100.859375 26.722657c0 5.765625-4.6875 10.453125-10.449219 10.453125-5.765624 0-10.453124-4.6875-10.453124-10.453125v-86.035157c0-5.761718 4.6875-10.449218 10.453124-10.449218 5.761719 0 10.449219 4.6875 10.449219 10.449218zm15.210938-46.566407h64.746093c1.886719 0 3.421876 1.535157 3.421876 3.421876v13c0 1.886718-1.535157 3.421874-3.421876 3.421874h-64.746093zm119.84375 99.886719c-18.578125 0-37.183594-15.007812-52.570313-42.324219l3.070313-23.375c7.542969-2.378906 13.035156-9.441406 13.035156-17.765624v-13c0-2.6875-.585937-5.238282-1.617187-7.550782 12.515624-2.300781 25.265624-3.464844 38.082031-3.464844 25.457031 0 50.261719 4.550782 73.46875 13.25-3.59375 12.609376-7.804688 24.445313-12.605469 35.289063-16.578125 37.457031-38.765625 58.941406-60.863281 58.941406zm-57.085938-7.898437 1.449219-11.027344c3.980469 5.453125 8.117188 10.269531 12.390625 14.441406-4.652344-.976562-9.265625-2.117187-13.839844-3.414062zm197.066407-45.785156c-27.234376 24.558593-60.578126 41.613281-96.816407 49.214843 11.773438-11.441406 22.480469-27.703125 31.605469-48.316406 4.859375-10.972656 9.136719-22.890625 12.816406-35.554687 18.933594 8.746093 36.582032 20.378906 52.394532 34.65625zm-62.660157-55.335938c-24.464843-8.972656-50.558593-13.667969-77.320312-13.667969-19.667969 0-39.1875 2.558594-58.039063 7.59375h-20.625c-5.824218-26.78125-9.101562-56.378906-9.578125-86.386719h176.484375c-.503906 32.792969-4.257812 64.253907-10.921875 92.460938zm0 0"/><path d="m429.117188 133.296875c3.335937 0 6.667968-.339844 9.914062-1.007813.035156-.007812.066406-.015624.105469-.023437 3.675781-.765625 7.261719-1.957031 10.660156-3.542969 6.828125-3.191406 12.925781-8 17.628906-13.914062 6.851563-8.613282 10.625-19.425782 10.625-30.449219 0-12.847656-4.941406-24.988281-13.914062-34.179687-8.953125-9.175782-20.9375-14.410157-33.726563-14.738282-.429687-.015625-.863281-.019531-1.292968-.019531-9.464844 0-18.648438 2.707031-26.558594 7.832031-2.121094 1.371094-4.152344 2.921875-6.03125 4.601563-10.386719 9.277343-16.347656 22.582031-16.347656 36.5 0 26.988281 21.953124 48.941406 48.9375 48.941406zm-22.457032-74.101563c1.296875-1.160156 2.699219-2.226562 4.160156-3.175781 5.445313-3.523437 11.769532-5.386719 18.296876-5.386719.289062 0 .582031 0 .886718.007813 18.414063.476563 32.839844 15.289063 32.839844 33.71875 0 7.707031-2.53125 14.964844-7.316406 20.980469-3.25 4.082031-7.457032 7.402344-12.164063 9.601562-2.308593 1.078125-4.746093 1.890625-7.25 2.421875-.027343.003907-.054687.011719-.085937.015625-2.257813.472656-4.582032.710938-6.910156.710938-18.597657 0-33.726563-15.132813-33.726563-33.730469-.003906-9.59375 4.105469-18.765625 11.269531-25.164063zm0 0"/></svg>