<svg height="511pt" viewBox="0 1 511 511.99998" width="511pt" xmlns="http://www.w3.org/2000/svg"><path d="m50.519531 36.058594c-1.117187-2.792969-3.953125-4.640625-6.9375-4.679688-3.261719-.042968-6.253906 2.117188-7.273437 5.207032-.988282 3.003906.039062 6.417968 2.535156 8.363281 2.582031 2.011719 6.246094 2.113281 8.945312.28125 2.949219-1.996094 4.089844-5.890625 2.730469-9.171875zm0 0"/><path d="m102.140625 36.058594c-1.121094-2.792969-3.957031-4.640625-6.941406-4.679688-3.261719-.042968-6.253907 2.117188-7.273438 5.207032-.988281 3.003906.039063 6.417968 2.535157 8.363281 2.582031 2.011719 6.246093 2.113281 8.945312.28125 2.949219-1.996094 4.089844-5.890625 2.734375-9.171875zm0 0"/><path d="m76.328125 36.058594c-2.535156-6.34375-11.867187-5.984375-14.152344.351562-1.070312 2.972656-.109375 6.421875 2.332031 8.425782 2.535157 2.078124 6.214844 2.261718 8.960938.484374 3.035156-1.964843 4.238281-5.925781 2.859375-9.261718zm0 0"/><path d="m469.550781 301.613281h-25.746093v-267.273437c0-18.933594-15.402344-34.339844-34.339844-34.339844h-374.621094c-18.933594 0-34.339844 15.40625-34.339844 34.339844v31.894531c0 .019531-.003906.039063-.003906.058594s.003906.039062.003906.058593v51.4375c0 4.191407 3.398438 7.589844 7.589844 7.589844s7.589844-3.398437 7.589844-7.589844v-43.90625h412.941406v227.730469h-184.710938c-22.746093 0-41.253906 18.503907-41.253906 41.25v44.773438h-167.816406c-10.5625 0-19.160156-8.59375-19.160156-19.160157v-225.382812c0-4.191406-3.398438-7.589844-7.589844-7.589844s-7.589844 3.398438-7.589844 7.589844v225.382812c0 18.9375 15.40625 34.339844 34.339844 34.339844h167.816406v67.933594c0 22.746094 18.507813 41.25 41.253906 41.25h225.636719c22.746094 0 41.25-18.503906 41.25-41.25v-127.882812c.003907-22.746094-18.503906-41.253907-41.25-41.253907zm-453.867187-242.910156v-24.363281c0-10.5625 8.597656-19.160156 19.160156-19.160156h374.621094c10.5625 0 19.160156 8.597656 19.160156 19.160156v24.363281zm228.230468 258.09375h225.636719c14.375 0 26.070313 11.695313 26.070313 26.070313v3.941406h-277.777344v-3.941406c0-14.375 11.695312-26.070313 26.070312-26.070313zm225.636719 180.023437h-225.636719c-14.375 0-26.070312-11.695312-26.070312-26.070312v-67.933594h221.214844c4.191406 0 7.589844-3.398437 7.589844-7.589844 0-4.191406-3.398438-7.589843-7.589844-7.589843h-221.214844v-25.644531h277.78125v25.644531h-31.261719c-4.191406 0-7.59375 3.398437-7.59375 7.589843 0 4.191407 3.402344 7.589844 7.59375 7.589844h31.261719v67.933594c-.003906 14.375-11.699219 26.070312-26.074219 26.070312zm0 0"/><path d="m379.84375 422.324219h-46.222656c-4.191406 0-7.589844 3.398437-7.589844 7.589843 0 4.191407 3.398438 7.589844 7.589844 7.589844h46.222656c4.191406 0 7.589844-3.398437 7.589844-7.589844 0-4.191406-3.398438-7.589843-7.589844-7.589843zm0 0"/><path d="m453.46875 422.324219h-46.21875c-4.195312 0-7.59375 3.398437-7.59375 7.589843 0 4.191407 3.398438 7.589844 7.59375 7.589844h46.21875c4.191406 0 7.59375-3.398437 7.59375-7.589844 0-4.191406-3.402344-7.589843-7.59375-7.589843zm0 0"/><path d="m306.21875 422.324219h-46.222656c-4.191406 0-7.589844 3.398437-7.589844 7.589843 0 4.191407 3.398438 7.589844 7.589844 7.589844h46.222656c4.191406 0 7.589844-3.398437 7.589844-7.589844 0-4.191406-3.398438-7.589843-7.589844-7.589843zm0 0"/><path d="m89.4375 284.691406h137.777344c4.195312 0 7.59375-3.398437 7.59375-7.59375v-84.882812l11.753906 6.347656c1.769531.957031 3.851562 1.171875 5.777344.59375 1.929687-.574219 3.550781-1.894531 4.507812-3.664062l26.964844-49.914063c1.992188-3.691406.617188-8.296875-3.074219-10.289063l-49.914062-26.960937c-1.109375-.597656-2.347657-.914063-3.609375-.914063h-137.777344c-1.261719 0-2.5.316407-3.609375.914063l-49.914063 26.960937c-3.691406 1.992188-5.0625 6.597657-3.070312 10.289063l26.960938 49.914063c.957031 1.769531 2.578124 3.089843 4.507812 3.664062 1.929688.578125 4.007812.363281 5.777344-.59375l11.757812-6.347656v84.882812c0 4.195313 3.398438 7.59375 7.589844 7.59375zm107.84375-162.09375c-3.550781 18.265625-19.664062 32.101563-38.953125 32.101563-19.292969 0-35.402344-13.835938-38.957031-32.101563zm-127.726562 59-19.746094-36.558594 41.546875-22.441406h12.636719c3.707031 26.675782 26.65625 47.285156 54.335937 47.285156s50.628906-20.609374 54.332031-47.285156h12.636719l41.550781 22.441406-19.746094 36.558594-16.277343-8.789062c-2.351563-1.273438-5.199219-1.210938-7.492188.15625-2.296875 1.371094-3.703125 3.847656-3.703125 6.519531v90.023437h-122.601562v-90.023437c0-2.671875-1.40625-5.148437-3.703125-6.519531s-5.144531-1.429688-7.496094-.15625zm0 0"/><path d="m310.523438 148.226562h87.046874c4.191407 0 7.59375-3.398437 7.59375-7.59375 0-4.191406-3.402343-7.589843-7.59375-7.589843h-87.046874c-4.191407 0-7.589844 3.398437-7.589844 7.589843 0 4.195313 3.398437 7.59375 7.589844 7.59375zm0 0"/><path d="m310.523438 184.707031h87.046874c4.191407 0 7.59375-3.398437 7.59375-7.589843 0-4.195313-3.402343-7.59375-7.59375-7.59375h-87.046874c-4.191407 0-7.589844 3.398437-7.589844 7.59375 0 4.191406 3.398437 7.589843 7.589844 7.589843zm0 0"/><path d="m310.523438 221.1875h87.046874c4.191407 0 7.59375-3.398438 7.59375-7.589844s-3.402343-7.589844-7.59375-7.589844h-87.046874c-4.191407 0-7.589844 3.398438-7.589844 7.589844s3.398437 7.589844 7.589844 7.589844zm0 0"/><path d="m310.523438 257.667969h47.480468c4.191406 0 7.589844-3.398438 7.589844-7.589844s-3.398438-7.589844-7.589844-7.589844h-47.480468c-4.191407 0-7.589844 3.398438-7.589844 7.589844s3.398437 7.589844 7.589844 7.589844zm0 0"/></svg>