<svg height="512pt" viewBox="-17 0 512 512.00002" width="512pt" xmlns="http://www.w3.org/2000/svg"><path d="m433.445312 89.386719c1.839844-3.777344.265626-8.328125-3.511718-10.164063-3.78125-1.835937-8.328125-.261718-10.164063 3.515625l-29.09375 59.855469-13.183593-23.726562c-2.039063-3.671876-6.664063-4.992188-10.339844-2.953126-3.667969 2.039063-4.992188 6.667969-2.953125 10.339844l20.277343 36.5c1.34375 2.417969 3.890626 3.910156 6.648438 3.910156.066406 0 .136719 0 .207031-.003906 2.835938-.078125 5.390625-1.726562 6.632813-4.277344zm0 0"/><path d="m446.40625 249.671875c-.414062-3.867187-3.675781-6.796875-7.5625-6.796875h-66.753906l-4.730469-45.550781c9.210937 3.589843 19.210937 5.582031 29.675781 5.582031 45.179688 0 81.9375-36.753906 81.9375-81.933594 0-45.183594-36.757812-81.9375-81.9375-81.9375-45.179687 0-81.9375 36.753906-81.9375 81.9375 0 .1875.011719.378906.015625.570313h-25.335937v-31.375c0-49.71875-40.449219-90.167969-90.167969-90.167969s-90.167969 40.449219-90.167969 90.167969v31.371093h-62.84375c-3.894531 0-7.160156 2.945313-7.5625 6.820313l-9.585937 92.253906c-.433594 4.179688 2.597656 7.917969 6.777343 8.351563.265626.027344.53125.039062.792969.039062 3.847657 0 7.148438-2.90625 7.554688-6.816406l8.878906-85.4375h55.988281v29.097656c0 4.199219 3.40625 7.601563 7.605469 7.601563s7.605469-3.402344 7.605469-7.601563v-29.097656h149.917968v29.097656c0 4.199219 3.402344 7.601563 7.605469 7.601563 4.199219 0 7.601563-3.402344 7.601563-7.601563v-29.097656h26.859375c4.230469 21.589844 16.957031 40.175781 34.554687 52.097656l5.609375 54.027344h-130.683593c-3.886719 0-7.148438 2.929688-7.5625 6.796875l-26.375 247.121094h-176.140626l25.546876-245.863281c.4375-4.179688-2.597657-7.917969-6.777344-8.351563-4.175782-.429687-7.914063 2.601563-8.347656 6.777344l-26.4218755 254.253906c-.2187505 2.140625.4765625 4.277344 1.9179685 5.878906 1.441407 1.597657 3.492188 2.511719 5.648438 2.511719h191.390625.019531 167.25c4.203125 0 7.605469-3.40625 7.605469-7.605469s-3.402344-7.601562-7.605469-7.601562h-158.789063l25.476563-238.710938h199.054687l25.480469 238.710938h-65.875c-4.199219 0-7.601562 3.402343-7.601562 7.601562s3.402343 7.605469 7.601562 7.605469h74.332031c2.15625 0 4.210938-.917969 5.65625-2.519531 1.441407-1.605469 2.132813-3.746094 1.90625-5.890625zm-321.757812-128.132813v-31.371093c0-41.332031 33.628906-74.960938 74.960937-74.960938s74.960937 33.628907 74.960937 74.960938v31.371093zm205.65625-.570312c0-36.792969 29.933593-66.726562 66.730468-66.726562 36.792969 0 66.726563 29.933593 66.726563 66.726562 0 36.796875-29.933594 66.730469-66.726563 66.730469-36.796875 0-66.730468-29.933594-66.730468-66.730469zm0 0"/><path d="m283.171875 289.175781c-4.199219 0-7.601563 3.40625-7.601563 7.605469v49.308594c0 31.382812 25.53125 56.914062 56.910157 56.914062 31.382812 0 56.914062-25.53125 56.914062-56.914062v-49.308594c0-4.199219-3.402343-7.605469-7.605469-7.605469-4.199218 0-7.601562 3.40625-7.601562 7.605469v49.308594c0 22.996094-18.710938 41.703125-41.707031 41.703125-22.996094 0-41.703125-18.707031-41.703125-41.703125v-49.308594c0-4.199219-3.40625-7.605469-7.605469-7.605469zm0 0"/></svg>