<svg height="512pt" viewBox="0 -12 512.00008 512" width="512pt" xmlns="http://www.w3.org/2000/svg"><path d="m38.597656 118.011719c-2.59375 1.816406-3.792968 5.167969-2.9375 8.21875.910156 3.242187 3.917969 5.554687 7.296875 5.554687 3.636719 0 6.851563-2.6875 7.46875-6.28125 1.121094-6.515625-6.40625-11.292968-11.828125-7.492187zm0 0"/><path d="m89.289062 118.71875c-4.84375 4.617188-1.472656 13.066406 5.222657 13.066406 3.703125 0 6.964843-2.789062 7.503906-6.464844.457031-3.132812-1.125-6.308593-3.929687-7.796874-2.855469-1.511719-6.453126-1.039063-8.796876 1.195312zm0 0"/><path d="m63.929688 118.347656c-5.363282 4.402344-2.1875 13.445313 4.804687 13.445313 3.695313 0 6.972656-2.804688 7.5-6.472657.96875-6.695312-7.035156-11.296874-12.304687-6.972656zm0 0"/><path d="m116.039062 400.226562h-74.296874c-4.1875 0-7.582032 3.394532-7.582032 7.582032s3.394532 7.582031 7.582032 7.582031h74.296874c4.1875 0 7.582032-3.394531 7.582032-7.582031s-3.394532-7.582032-7.582032-7.582032zm0 0"/><path d="m116.039062 436.34375h-74.296874c-4.1875 0-7.582032 3.394531-7.582032 7.582031s3.394532 7.582031 7.582032 7.582031h74.296874c4.1875 0 7.582032-3.394531 7.582032-7.582031s-3.394532-7.582031-7.582032-7.582031zm0 0"/><path d="m293.792969 316.320312c-2.347657-1.269531-5.191407-1.207031-7.484375.160157-2.292969 1.367187-3.699219 3.84375-3.699219 6.511719v89.914062h-20.277344c-4.191406 0-7.582031 3.394531-7.582031 7.582031s3.390625 7.582031 7.582031 7.582031h27.859375c4.1875 0 7.582032-3.394531 7.582032-7.582031v-84.785156l11.742187 6.34375c3.683594 1.992187 8.28125.617187 10.273437-3.066406l26.929688-49.859375c.957031-1.769532 1.171875-3.84375.59375-5.769532-.574219-1.929687-1.890625-3.546874-3.660156-4.503906l-49.855469-26.929687c-1.109375-.597657-2.347656-.910157-3.605469-.910157h-137.613281c-1.257813 0-2.5.3125-3.605469.910157l-49.855468 26.929687c-1.769532.957032-3.085938 2.574219-3.660157 4.503906-.574219 1.925782-.363281 4 .59375 5.769532l26.929688 49.859375c1.992187 3.683593 6.59375 5.058593 10.273437 3.066406l11.742188-6.34375v84.785156c0 4.1875 3.394531 7.582031 7.582031 7.582031h84.476563c4.1875 0 7.582031-3.394531 7.582031-7.582031s-3.394531-7.582031-7.582031-7.582031h-76.894532v-89.914062c0-2.671876-1.40625-5.144532-3.699218-6.511719-2.292969-1.367188-5.136719-1.429688-7.488282-.160157l-16.253906 8.78125-19.722656-36.515624 41.5-22.414063h12.621094c3.703124 26.644531 26.621093 47.226563 54.269531 47.226563 27.644531 0 50.5625-20.582032 54.265625-47.226563h12.621094l41.503906 22.414063-19.726563 36.515624zm-72.410157-18.082031c-19.265624 0-35.359374-13.820312-38.90625-32.066406h77.8125c-3.546874 18.246094-19.636718 32.066406-38.90625 32.066406zm0 0"/><path d="m228.964844 224.558594v-24.261719c0-4.183594-3.394532-7.582031-7.582032-7.582031s-7.582031 3.398437-7.582031 7.582031v24.261719c0 4.1875 3.394531 7.582031 7.582031 7.582031s7.582032-3.394531 7.582032-7.582031zm0 0"/><path d="m297.273438 231.558594c.953124.398437 1.941406.585937 2.914062.585937 2.96875 0 5.789062-1.757812 7-4.667969l10.109375-24.261718c1.613281-3.867188-.214844-8.304688-4.082031-9.914063-3.863282-1.609375-8.300782.214844-9.914063 4.082031l-10.109375 24.261719c-1.609375 3.863281.21875 8.304688 4.082032 9.914063zm0 0"/><path d="m386.363281 230.320312-25.273437 25.269532c-2.960938 2.960937-2.960938 7.761718 0 10.722656 1.480468 1.480469 3.421875 2.222656 5.359375 2.222656 1.941406 0 3.882812-.742187 5.363281-2.222656l25.273438-25.273438c2.960937-2.960937 2.960937-7.761718 0-10.71875-2.960938-2.960937-7.761719-2.960937-10.722657 0zm0 0"/><path d="m142.582031 232.144531c.96875 0 1.957031-.1875 2.910157-.585937 3.867187-1.609375 5.695312-6.050782 4.082031-9.914063l-10.109375-24.261719c-1.609375-3.867187-6.046875-5.695312-9.914063-4.082031-3.863281 1.609375-5.691406 6.046875-4.082031 9.914063l10.109375 24.261718c1.214844 2.910157 4.03125 4.667969 7.003906 4.667969zm0 0"/><path d="m76.316406 268.535156c1.941406 0 3.882813-.742187 5.363282-2.222656 2.960937-2.960938 2.960937-7.761719 0-10.722656l-25.273438-25.269532c-2.960938-2.960937-7.761719-2.960937-10.722656 0-2.960938 2.960938-2.960938 7.761719 0 10.71875l25.273437 25.273438c1.480469 1.480469 3.417969 2.222656 5.359375 2.222656zm0 0"/><path d="m503.984375 98.710938c7.269531-7.085938 9.835937-17.488282 6.699219-27.144532-3.136719-9.660156-11.328125-16.5625-21.375-18.023437l-30.992188-4.503907c-3.6875-.539062-6.875-2.851562-8.523437-6.191406l-13.859375-28.085937c-4.492188-9.105469-13.59375-14.761719-23.746094-14.761719-10.15625 0-19.257812 5.65625-23.75 14.761719l-13.859375 28.085937c-1.648437 3.339844-4.835937 5.652344-8.523437 6.191406l-30.992188 4.503907c-10.046875 1.457031-18.238281 8.363281-21.378906 18.023437-1.476563 4.550782-1.671875 9.265625-.722656 13.722656h-143.632813c-4.1875 0-7.582031 3.394532-7.582031 7.582032 0 4.183594 3.394531 7.578125 7.582031 7.578125h152.839844l20.644531 20.121093c2.667969 2.601563 3.882812 6.347657 3.253906 10.019532l-2.285156 13.328125h-328.617188v-24.332031c0-10.550782 8.582032-19.136719 19.136719-19.136719h109.753907c4.1875 0 7.582031-3.394531 7.582031-7.578125 0-4.1875-3.394531-7.582032-7.582031-7.582032h-109.753907c-18.914062 0-34.300781 15.386719-34.300781 34.296876v333.738281c0 18.914062 15.386719 34.300781 34.300781 34.300781h374.175781c18.910157 0 34.296876-15.386719 34.296876-34.300781v-252.488281c0-4.1875-3.390626-7.582032-7.582032-7.582032-4.1875 0-7.582031 3.394532-7.582031 7.582032v252.488281c0 10.554687-8.582031 19.136719-19.132813 19.136719h-374.175781c-10.550781 0-19.136719-8.582032-19.136719-19.136719v-294.242188h326.015626l-.40625 2.375c-1.714844 10.007813 2.320312 19.933594 10.535156 25.902344s18.902344 6.738281 27.890625 2.015625l27.71875-14.574219c3.296875-1.734375 7.234375-1.734375 10.535156 0l27.71875 14.574219c3.910156 2.054688 8.140625 3.070312 12.351563 3.070312 5.464843 0 10.898437-1.714843 15.539062-5.085937 8.214844-5.96875 12.25-15.894531 10.535156-25.902344l-5.292968-30.867187c-.628907-3.671875.585937-7.417969 3.253906-10.019532zm-33.011719 11.003906c-6.242187 6.085937-9.089844 14.847656-7.613281 23.441406l5.292969 30.863281c.742187 4.34375-.941406 8.484375-4.503906 11.070313-3.5625 2.589844-8.023438 2.914062-11.917969.863281l-27.722657-14.574219c-3.859374-2.027344-8.089843-3.042968-12.320312-3.042968-4.234375 0-8.46875 1.015624-12.324219 3.042968l-27.722656 14.574219c-3.894531 2.050781-8.351563 1.730469-11.917969-.863281-3.5625-2.589844-5.246094-6.726563-4.503906-11.070313l5.296875-30.867187c1.472656-8.589844-1.375-17.351563-7.617187-23.4375l-22.425782-21.863282c-3.15625-3.074218-4.226562-7.410156-2.867187-11.601562 1.363281-4.191406 4.777343-7.070312 9.136719-7.703125l30.992187-4.503906c8.628906-1.253907 16.082031-6.667969 19.941406-14.484375l13.859375-28.085938c1.949219-3.949218 5.746094-6.308594 10.148438-6.308594 4.40625 0 8.199218 2.359376 10.152344 6.308594l13.859374 28.082032c3.855469 7.820312 11.308594 13.234374 19.9375 14.488281l30.992188 4.503906c4.363281.632813 7.777344 3.515625 9.136719 7.703125 1.363281 4.191406.292969 8.527344-2.863281 11.601562zm0 0"/></svg>