<svg height="511pt" viewBox="1 -2 511.99998 511" width="511pt" xmlns="http://www.w3.org/2000/svg"><path d="m399.992188 261.523438h24.332031c4.199219 0 7.601562-3.40625 7.601562-7.605469s-3.402343-7.601563-7.601562-7.601563h-24.332031c-4.199219 0-7.605469 3.402344-7.605469 7.601563s3.40625 7.605469 7.605469 7.605469zm0 0"/><path d="m504.394531 140.152344h-82.101562c-4.203125 0-7.605469 3.402344-7.605469 7.601562 0 4.203125 3.402344 7.605469 7.605469 7.605469h74.5v197.117187h-156.867188c-4.199219 0-7.605469 3.40625-7.605469 7.605469s3.40625 7.605469 7.605469 7.605469h164.46875c4.203125 0 7.605469-3.40625 7.605469-7.605469v-212.328125c0-4.199218-3.402344-7.601562-7.605469-7.601562zm0 0"/><path d="m433.222656 335.757812c4.199219 0 7.601563-3.402343 7.601563-7.601562 0-17.449219 14.195312-31.644531 31.644531-31.644531 4.199219 0 7.605469-3.402344 7.605469-7.605469v-69.976562c0-4.199219-3.40625-7.605469-7.605469-7.605469-17.449219 0-31.644531-14.195313-31.644531-31.640625 0-4.199219-3.402344-7.605469-7.601563-7.605469h-111.042968v-16.71875h74.761718c4.203125 0 7.605469-3.402344 7.605469-7.605469 0-4.199218-3.402344-7.601562-7.605469-7.601562h-74.761718v-96.023438c0-24.058594-19.570313-43.628906-43.628907-43.628906h-234.921875c-24.058594 0-43.628906 19.570312-43.628906 43.628906v419.582032c0 24.058593 19.570312 43.628906 43.628906 43.628906h234.921875c24.058594 0 43.628907-19.570313 43.628907-43.628906v-127.953126zm-6.988281-148.472656c3.238281 19.753906 18.875 35.394532 38.628906 38.632813v56.003906c-19.75 3.238281-35.390625 18.875-38.628906 38.628906h-104.054687v-19.5c25.765624-.273437 46.640624-21.304687 46.640624-47.132812 0-25.824219-20.875-46.859375-46.640624-47.132813v-19.5zm-104.054687 34.710938c17.378906.269531 31.433593 14.480468 31.433593 31.921875 0 17.441406-14.054687 31.65625-31.433593 31.925781zm-185.15625 246.070312c0-13.269531 10.796874-24.0625 24.066406-24.0625 13.269531 0 24.0625 10.792969 24.0625 24.0625 0 13.269532-10.792969 24.066406-24.0625 24.066406-13.269532 0-24.066406-10.796874-24.066406-24.066406zm169.949218-4.355468c0 15.671874-12.75 28.421874-28.421875 28.421874h-86.457031c5.175781-6.652343 8.269531-15.003906 8.269531-24.066406s-3.09375-17.410156-8.269531-24.066406h74.296875c14.214844 0 25.78125-11.558594 25.78125-25.773438v-328.929687c0-14.210937-11.566406-25.773437-25.78125-25.773437h-210.605469c-14.210937 0-25.773437 11.5625-25.773437 25.773437v328.929687c0 14.214844 11.5625 25.773438 25.773437 25.773438h5.074219c4.199219 0 7.601563-3.402344 7.601563-7.601562 0-4.199219-3.402344-7.605469-7.601563-7.605469h-5.074219c-5.824218 0-10.566406-4.738281-10.566406-10.566407v-328.929687c0-5.828125 4.742188-10.566406 10.566406-10.566406h210.601563c5.832031 0 10.574219 4.738281 10.574219 10.566406v29.460937h-197.421876c-4.199218 0-7.601562 3.40625-7.601562 7.605469v253.023438c0 4.199219 3.402344 7.605469 7.601562 7.605469h197.421876v31.234374c0 5.828126-4.742188 10.566407-10.574219 10.566407h-180.179688c-4.199219 0-7.605469 3.40625-7.605469 7.605469 0 4.199218 3.40625 7.601562 7.605469 7.601562h43.878907c-5.175782 6.65625-8.269532 15.003906-8.269532 24.066406s3.09375 17.414063 8.269532 24.066406h-86.457032c-15.671875 0-28.421875-12.75-28.421875-28.421874v-419.582032c0-15.671875 12.75-28.421875 28.421875-28.421875h234.921875c15.671875 0 28.417969 12.75 28.417969 28.421875v419.582032zm-30.011718-176.949219c-11.660157-7.019531-19.199219-19.808594-19.199219-33.886719 0-14.074219 7.539062-26.867188 19.199219-33.890625zm0-129.953125h-33.097657c-4.203125 0-7.605469 3.40625-7.605469 7.605468 0 4.199219 3.402344 7.605469 7.605469 7.605469h33.097657v30.035157c-20.519532 8.222656-34.410157 28.34375-34.410157 50.820312 0 22.480469 13.894531 42.597656 34.410157 50.808594v30.046875h-105.535157c-3.359375-23.910157-22.332031-42.878907-46.238281-46.238281v-69.234376c23.90625-3.359374 42.878906-22.328124 46.238281-46.238281h47.085938c4.199219 0 7.605469-3.40625 7.605469-7.605469 0-4.199218-3.40625-7.601562-7.605469-7.601562h-54.160157c-4.203124 0-7.605468 3.402344-7.605468 7.601562 0 21.597657-17.570313 39.167969-39.164063 39.167969-4.203125 0-7.605469 3.402344-7.605469 7.601563v83.382812c0 4.199219 3.402344 7.605469 7.605469 7.605469 21.59375 0 39.164063 17.566406 39.164063 39.164063 0 4.199218 3.402344 7.605468 7.605468 7.605468h112.609376v22.84375h-189.816407v-237.816406h189.816407zm0 0"/><path d="m469.558594 186.707031c6.566406 2.769531 12.96875-4.640625 9.527344-10.765625-1.585938-2.820312-4.933594-4.351562-8.109376-3.710937-2.988281.601562-5.363281 2.988281-5.960937 5.972656-.707031 3.527344 1.238281 7.113281 4.542969 8.503906zm0 0"/><path d="m478.796875 323.9375c-3.679687-5.511719-12.492187-3.773438-13.78125 2.726562-1.375 6.921876 7.015625 11.875 12.394531 7.269532 2.871094-2.457032 3.507813-6.847656 1.386719-9.996094zm0 0"/><path d="m187.957031 34.132812h-53.734375c-4.203125 0-7.605468 3.402344-7.605468 7.601563s3.402343 7.605469 7.605468 7.605469h53.734375c4.199219 0 7.605469-3.40625 7.605469-7.605469s-3.40625-7.601563-7.605469-7.601563zm0 0"/><path d="m203.953125 245.269531h-28.996094c-4.199219 0-7.605469 3.40625-7.605469 7.605469s3.40625 7.601562 7.605469 7.601562h28.996094c4.199219 0 7.605469-3.402343 7.605469-7.601562s-3.40625-7.605469-7.605469-7.605469zm0 0"/><path d="m113.363281 347.660156c2.773438 1.871094 6.625 1.636719 9.15625-.546875 2.46875-2.121093 3.339844-5.675781 2.085938-8.6875-1.1875-2.867187-4.105469-4.769531-7.210938-4.691406-3.191406.082031-6.015625 2.199219-7.027343 5.214844-1.082032 3.234375.203124 6.804687 2.996093 8.710937zm0 0"/><path d="m110.566406 167.324219c1.144532 2.867187 4.125 4.765625 7.199219 4.6875 3.042969-.078125 5.8125-2.03125 6.910156-4.867188 2.546875-6.59375-4.925781-12.902343-11-9.257812-3.195312 1.917969-4.535156 5.996093-3.109375 9.4375zm0 0"/></svg>