<svg height="511pt" viewBox="0 1 511 511.99998" width="511pt" xmlns="http://www.w3.org/2000/svg"><path d="m503.398438 128.144531c4.191406 0 7.582031-3.394531 7.582031-7.582031v-59.390625c0-20.574219-16.734375-37.308594-37.304688-37.308594h-44.570312v-1.589843c0-12.28125-9.992188-22.273438-22.273438-22.273438h-75.746093c-12.28125 0-22.273438 9.992188-22.273438 22.273438v1.589843h-55.691406c-20.574219 0-37.308594 16.738281-37.308594 37.308594v72.675781h-178.882812c-20.085938 0-36.429688 16.34375-36.429688 36.429688v305.292968c0 20.085938 16.34375 36.429688 36.429688 36.429688h25.738281c4.1875 0 7.582031-3.394531 7.582031-7.582031s-3.394531-7.582031-7.582031-7.582031h-25.738281c-11.726563 0-21.265626-9.539063-21.265626-21.265626v-305.292968c0-11.726563 9.539063-21.265625 21.265626-21.265625h178.882812v15.160156h-177.40625c-4.1875 0-7.582031 3.394531-7.582031 7.582031v74.984375c0 4.1875 3.394531 7.582031 7.582031 7.582031h177.40625v16.800782h-177.40625c-4.1875 0-7.582031 3.394531-7.582031 7.582031v196.207031c0 4.1875 3.394531 7.582032 7.582031 7.582032h203.8125c4.1875 0 7.578125-3.394532 7.578125-7.582032v-107.238281c1.097656.097656 2.203125.15625 3.324219.15625h11.839844v107.742187c0 11.726563-9.539063 21.265626-21.269532 21.265626h-155.753906c-4.1875 0-7.578125 3.394531-7.578125 7.582031s3.390625 7.582031 7.578125 7.582031h155.753906c20.089844 0 36.433594-16.34375 36.433594-36.429688v-107.742187h193.550781c20.570313 0 37.304688-16.734375 37.304688-37.304687v-184.6875c0-4.1875-3.390625-7.582032-7.582031-7.582032-4.1875 0-7.578126 3.394532-7.578126 7.582032v184.6875c0 12.207031-9.933593 22.144531-22.144531 22.144531h-220.554687c-12.210938 0-22.144532-9.9375-22.144532-22.144531v-269.351563c0-12.210937 9.933594-22.144531 22.144532-22.144531h55.691406v15.164062h-55.09375c-4.1875 0-7.578125 3.394532-7.578125 7.582032v268.148437c0 4.1875 3.390625 7.582031 7.578125 7.582031h219.355469c4.1875 0 7.582031-3.394531 7.582031-7.582031v-268.148437c0-4.1875-3.394531-7.582032-7.582031-7.582032h-43.96875v-15.164062h44.570312c12.210938 0 22.144531 9.933594 22.144531 22.144531v59.390625c0 4.1875 3.390626 7.582031 7.578126 7.582031zm-457.410157 111.015625v-59.824218h169.824219v59.824218zm170.617188 99.011719h-33.328125v-51.886719h32.535156v44.238282c0 2.621093.277344 5.179687.792969 7.648437zm-104.105469 129.15625v-51.886719h55.613281v51.886719zm0-67.046875v-46.945312h55.613281v46.945312zm-66.511719-46.945312h51.351563v46.945312h-51.351563zm66.511719-15.164063v-51.886719h55.613281v51.886719zm-15.160156-51.886719v51.886719h-51.351563v-51.886719zm-51.351563 129.15625h51.351563v51.886719h-51.351563zm137.289063 51.886719v-51.886719h51.359375v51.886719zm51.359375-67.046875h-51.359375v-46.945312h40.355468c2.996094 3.867187 6.734376 7.125 11 9.570312v37.375zm89.339843-378.007812c0-3.921876 3.1875-7.109376 7.109376-7.109376h75.746093c3.921875 0 7.109375 3.1875 7.109375 7.109376v1.589843h-89.964844zm141.515626 47.078124v252.988282h-204.191407v-252.988282h47.511719v.636719c0 12.28125 9.992188 22.273438 22.273438 22.273438h75.746093c12.28125 0 22.273438-9.992188 22.273438-22.273438v-.636719zm-141.515626 0h89.964844v.636719c0 3.917969-3.1875 7.109375-7.109375 7.109375h-75.746093c-3.921876 0-7.109376-3.191406-7.109376-7.109375zm89.964844-15.160156h-89.964844v-15.164062h89.964844zm0 0"/><path d="m348.539062 108.121094c-3.769531-1.832032-8.304687-.261719-10.132812 3.503906l-29.011719 59.675781-13.140625-23.652343c-2.03125-3.660157-6.648437-4.980469-10.308594-2.945313-3.660156 2.035156-4.980468 6.648437-2.945312 10.308594l20.214844 36.390625c1.339844 2.410156 3.882812 3.898437 6.628906 3.898437h.207031c2.828125-.078125 5.375-1.722656 6.613281-4.265625l35.378907-72.78125c1.828125-3.765625.261719-8.300781-3.503907-10.132812zm0 0"/><path d="m439.71875 162.515625h-66.714844c-4.191406 0-7.582031 3.394531-7.582031 7.582031s3.390625 7.582032 7.582031 7.582032h66.714844c4.1875 0 7.582031-3.394532 7.582031-7.582032s-3.394531-7.582031-7.582031-7.582031zm0 0"/><path d="m365.421875 137.75c0 4.1875 3.390625 7.582031 7.582031 7.582031h66.714844c4.1875 0 7.582031-3.394531 7.582031-7.582031s-3.394531-7.582031-7.582031-7.582031h-66.714844c-4.191406 0-7.582031 3.394531-7.582031 7.582031zm0 0"/><path d="m348.539062 203.609375c-3.769531-1.832031-8.304687-.257813-10.132812 3.503906l-29.011719 59.679688-13.140625-23.65625c-2.03125-3.660157-6.648437-4.976563-10.308594-2.945313-3.660156 2.035156-4.980468 6.652344-2.945312 10.308594l20.214844 36.390625c1.339844 2.414063 3.882812 3.902344 6.628906 3.902344.070312 0 .136719 0 .207031-.003907 2.828125-.078124 5.375-1.71875 6.613281-4.261718l35.378907-72.785156c1.828125-3.765626.261719-8.300782-3.503907-10.132813zm0 0"/><path d="m439.71875 258.003906h-66.714844c-4.191406 0-7.582031 3.394532-7.582031 7.582032s3.390625 7.582031 7.582031 7.582031h66.714844c4.1875 0 7.582031-3.394531 7.582031-7.582031s-3.394531-7.582032-7.582031-7.582032zm0 0"/><path d="m439.71875 225.65625h-66.714844c-4.191406 0-7.582031 3.394531-7.582031 7.582031s3.390625 7.582031 7.582031 7.582031h66.714844c4.1875 0 7.582031-3.394531 7.582031-7.582031s-3.394531-7.582031-7.582031-7.582031zm0 0"/></svg>