<svg height="511pt" viewBox="-93 1 511 511.99997" width="511pt" xmlns="http://www.w3.org/2000/svg"><path d="m281.886719 0h-237.3125c-24.304688 0-44.074219 19.769531-44.074219 44.074219v423.851562c0 24.304688 19.769531 44.074219 44.074219 44.074219h13.6875c4.242187 0 7.679687-3.441406 7.679687-7.683594 0-4.242187-3.4375-7.679687-7.679687-7.679687h-13.6875c-15.832031 0-28.710938-12.878907-28.710938-28.710938v-423.851562c0-15.832031 12.878907-28.710938 28.710938-28.710938h237.3125c15.832031 0 28.710937 12.878907 28.710937 28.710938v423.851562c0 15.832031-12.878906 28.710938-28.710937 28.710938h-87.339844c5.230469-6.722657 8.355469-15.15625 8.355469-24.308594 0-9.15625-3.125-17.589844-8.355469-24.3125h75.054687c14.359376 0 26.042969-11.679687 26.042969-26.035156v-332.28125c0-14.355469-11.683593-26.035157-26.042969-26.035157h-212.746093c-14.359375 0-26.035157 11.679688-26.035157 26.035157v332.28125c0 14.359375 11.675782 26.035156 26.035157 26.035156h75.058593c-5.230468 6.722656-8.355468 15.15625-8.355468 24.3125s3.125 17.589844 8.355468 24.308594h-48.046874c-4.242188 0-7.679688 3.441406-7.679688 7.683593 0 4.242188 3.4375 7.679688 7.679688 7.679688h198.019531c24.304687 0 44.074219-19.769531 44.074219-44.074219v-423.851562c0-24.304688-19.773438-44.074219-44.074219-44.074219zm-235.707031 421.980469v-332.28125c0-5.882813 4.789062-10.671875 10.675781-10.671875h212.746093c5.890626 0 10.683594 4.789062 10.683594 10.671875v332.28125c0 5.886719-4.792968 10.671875-10.683594 10.671875h-212.746093c-5.886719 0-10.675781-4.785156-10.675781-10.671875zm92.738281 50.347656c0-13.40625 10.90625-24.3125 24.3125-24.3125 13.402343 0 24.308593 10.90625 24.308593 24.3125 0 13.402344-10.90625 24.308594-24.308593 24.308594-13.40625 0-24.3125-10.90625-24.3125-24.308594zm0 0"/><path d="m263.601562 201.992188c0-4.242188-3.441406-7.679688-7.683593-7.679688h-10.535157c4.367188-6.058594 6.953126-13.484375 6.953126-21.507812 0-20.332032-16.542969-36.871094-36.875-36.871094-20.328126 0-36.871094 16.539062-36.871094 36.871094v2.597656c-4.523438-2.625-9.769532-4.132813-15.363282-4.132813s-10.839843 1.507813-15.363281 4.132813v-2.597656c0-20.332032-16.539062-36.871094-36.871093-36.871094-20.332032 0-36.871094 16.539062-36.871094 36.871094 0 8.023437 2.585937 15.449218 6.953125 21.507812h-10.535157c-4.246093 0-7.683593 3.4375-7.683593 7.679688v166.945312c0 4.242188 3.4375 7.683594 7.683593 7.683594h185.378907c4.242187 0 7.683593-3.441406 7.683593-7.683594v-65.546875c0-4.242187-3.441406-7.683594-7.683593-7.683594-4.242188 0-7.679688 3.441407-7.679688 7.683594v57.867187h-54.285156v-103.445312h54.285156v19.96875c0 4.242188 3.4375 7.683594 7.679688 7.683594 4.242187 0 7.683593-3.441406 7.683593-7.683594zm-69.648437-29.1875c0-11.859376 9.648437-21.507813 21.507813-21.507813 11.863281 0 21.511718 9.648437 21.511718 21.507813 0 11.859374-9.648437 21.507812-21.511718 21.507812h-21.507813zm-30.726563 13.828124c5.671876 0 10.625 3.09375 13.285157 7.679688h-26.570313c2.664063-4.582031 7.613282-7.679688 13.285156-7.679688zm-73.742187-13.828124c0-11.859376 9.648437-21.507813 21.507813-21.507813 11.859374 0 21.511718 9.648437 21.511718 21.507813v21.507812h-21.511718c-11.859376 0-21.507813-9.648438-21.507813-21.507812zm43.019531 36.871093v32.773438h-54.285156v-32.773438zm-54.285156 48.136719h54.285156v103.445312h-54.285156zm69.644531 103.445312v-111.046874c0-.027344.007813-.054688.007813-.078126 0-.027343-.007813-.054687-.007813-.082031v-40.375h30.726563v151.582031zm46.089844-118.808593v-32.773438h54.285156v32.773438zm0 0"/><path d="m190.371094 46.828125c4.242187 0 7.683594-3.441406 7.683594-7.683594 0-4.242187-3.441407-7.679687-7.683594-7.679687h-54.28125c-4.246094 0-7.683594 3.4375-7.683594 7.679687 0 4.242188 3.4375 7.683594 7.683594 7.683594zm0 0"/></svg>