<svg height="496pt" viewBox="-88 0 496 496" width="496pt" xmlns="http://www.w3.org/2000/svg"><path d="m304 417.472656v-225.921875c0-27.445312-15.246094-52.125-39.800781-64.398437l-94.3125-47.152344h-2.648438l-5.839843-58.390625c-1.230469-12.320313-11.503907-21.609375-23.878907-21.609375h-83.039062c-12.375 0-22.648438 9.289062-23.878907 21.609375l-5.890624 58.902344c-4.070313 1.015625-7.664063 3.503906-10.046876 7.082031-9.601562 14.382812-14.664062 31.117188-14.664062 48.40625s5.0625 34.023438 14.65625 48.40625c.878906 1.320312 1.34375 2.851562 1.34375 4.433594v228.632812c-9.289062 3.3125-16 12.113282-16 22.527344v32c0 13.230469 10.769531 24 24 24h272c13.230469 0 24-10.769531 24-24v-32c0-10.414062-6.710938-19.214844-16-22.527344zm-263.160156-337.472656 1.601562-16h13.558594v16zm31.160156-16h16v16h-16zm32 0h16v16h-16zm32 0h13.558594l1.601562 16h-15.160156zm-81.519531-48h83.039062c4.128907 0 7.550781 3.097656 7.960938 7.199219l2.480469 24.800781h-103.921876l2.480469-24.800781c.410157-4.101563 3.832031-7.199219 7.960938-7.199219zm-26.511719 80.472656c.199219-.296875.527344-.472656.871094-.472656h137.273437l90.925781 45.472656c19.097657 9.542969 30.960938 28.734375 30.960938 50.085938v224.441406h-256v-224h16v-16h-19.769531c-.09375-.152344-.167969-.320312-.261719-.472656-7.824219-11.742188-11.96875-25.40625-11.96875-39.527344s4.144531-27.785156 11.96875-39.527344zm276.03125 351.527344h-32v16h32v8c0 4.40625-3.59375 8-8 8h-272c-4.40625 0-8-3.59375-8-8v-8h240v-16h-240v-8c0-4.40625 3.59375-8 8-8h272c4.40625 0 8 3.59375 8 8zm0 0"/><path d="m197.863281 214.398438c11.359375 8.511718 18.136719 22.074218 18.136719 36.265624v121.335938c0 15.441406 12.558594 28 28 28s28-12.558594 28-28v-166.664062c0-29.40625-23.929688-53.335938-53.335938-53.335938-15.375 0-28.289062 10.121094-32.816406 24h-121.847656v16h120.472656c1.390625 8.839844 6.152344 16.96875 13.390625 22.398438zm20.800781-46.398438c20.59375 0 37.335938 16.742188 37.335938 37.335938v166.664062c0 6.617188-5.382812 12-12 12s-12-5.382812-12-12v-121.335938c0-19.207031-9.167969-37.550781-24.527344-49.070312-4.679687-3.496094-7.472656-9.082031-7.472656-14.929688 0-10.289062 8.375-18.664062 18.664062-18.664062zm0 0"/><path d="m48 400h130.046875c12.105469 0 21.953125-9.847656 21.953125-21.953125 0-2.136719-.3125-4.253906-.929688-6.304687l-44.429687-148.101563c-2.808594-9.351563-11.257813-15.640625-21.023437-15.640625h-63.664063c-12.105469 0-21.953125 9.847656-21.953125 21.953125zm16-170.046875c0-3.28125 2.671875-5.953125 5.953125-5.953125h63.664063c2.648437 0 4.941406 1.703125 5.703124 4.238281l44.433594 148.105469c.15625.550781.246094 1.128906.246094 1.703125 0 3.28125-2.671875 5.953125-5.953125 5.953125h-114.046875zm0 0"/><path d="m80 320h64v16h-64zm0 0"/><path d="m80 352h64v16h-64zm0 0"/></svg>