<svg height="496pt" viewBox="0 -48 496 496" width="496pt" xmlns="http://www.w3.org/2000/svg"><path d="m104 80h284.792969c3.351562 0 6.367187 2.121094 7.511719 5.265625l20.289062 55.789063c5.863281 16.113281 21.316406 26.945312 38.46875 26.945312 22.578125 0 40.9375-18.359375 40.9375-40.9375v-1.359375c0-4.703125-.800781-9.335937-2.382812-13.765625l-34.289063-96.007812c-3.398437-9.53125-12.488281-15.929688-22.609375-15.929688h-332.71875c-57.34375 0-104 46.65625-104 104v136c0 10.414062 6.710938 19.214844 16 22.527344v137.472656h464v-136c8.824219 0 16-7.175781 16-16v-40c0-8.824219-7.175781-16-16-16h-359.769531c-2.574219 0-5.007813-1.257812-6.503907-3.34375l-32.230468-45.128906c-.984375-1.367188-1.496094-2.984375-1.496094-4.65625v-34.871094c0-13.230469 10.769531-24 24-24zm-72 184h24v120h-24zm80 16v-16h24v120h-24v-88h-16v88h-24v-120h24v16zm80 72v-88h24v120h-24v-16h-16v16h-24v-120h24v88zm80-32v-56h24v120h-24v-48h-16v48h-24v-120h24v56zm104-56v120h-24v-120zm-40 120h-24v-120h24zm128 0h-32v-88h-16v88h-24v-120h24v16h16v-16h32zm-395.527344-231.175781 32.238282 45.136719c4.488281 6.277343 11.792968 10.039062 19.519531 10.039062h359.769531v40h-456c-4.40625 0-8-3.59375-8-8v-136c0-48.519531 39.480469-88 88-88h332.71875c3.378906 0 6.402344 2.136719 7.539062 5.3125l34.285157 96.007812c.96875 2.695313 1.457031 5.511719 1.457031 8.382813v1.359375c0 13.753906-11.183594 24.9375-24.9375 24.9375-10.445312 0-19.863281-6.59375-23.429688-16.414062l-20.289062-55.792969c-3.433594-9.449219-12.496094-15.792969-22.550781-15.792969h-284.792969c-22.054688 0-40 17.945312-40 40v34.871094c0 5.023437 1.542969 9.847656 4.472656 13.953125zm0 0"/></svg>