<svg height="496pt" viewBox="-80 0 496 496" width="496pt" xmlns="http://www.w3.org/2000/svg"><path d="m224 400c-17.648438 0-32 14.351562-32 32s14.351562 32 32 32 32-14.351562 32-32-14.351562-32-32-32zm0 48c-8.824219 0-16-7.175781-16-16s7.175781-16 16-16 16 7.175781 16 16-7.175781 16-16 16zm0 0"/><path d="m256.800781 3.953125c-4.304687-2.585937-9.234375-3.953125-14.257812-3.953125-9.277344 0-17.894531 4.609375-23.054688 12.335938l-1.566406 2.359374-.648437-2.582031c-1.777344-7.128906-8.160157-12.113281-15.519532-12.113281h-115.507812c-7.359375 0-13.742188 4.984375-15.519532 12.121094l-4.964843 19.878906h-15.867188c-9.152343 0-17.375 5.078125-21.46875 13.265625l-9.371093 18.734375h-3.054688c-8.824219 0-16 7.175781-16 16v48c0 8.824219 7.175781 16 16 16h1.769531l12.878907 289.777344c.953124 21.429687 18.503906 38.222656 39.960937 38.222656h103.511719c11.742187 14.609375 29.71875 24 49.878906 24 35.289062 0 64-28.710938 64-64 0-22.039062-11.199219-41.519531-28.214844-53.03125l9.183594-206.554688 1.007812.898438 66.023438-74.273438v-47.566406zm47.199219 52.046875c8.824219 0 16 7.175781 16 16s-7.175781 16-16 16-16-7.175781-16-16 7.175781-16 16-16zm-55.441406-38.335938 42.167968 25.296876c-8.648437 3.976562-15.160156 11.671874-17.589843 21.039062h-4.191407l-9.371093-18.734375c-4.085938-8.1875-12.316407-13.265625-21.460938-13.265625h-12.496093l7.191406-10.785156c3.351562-5.03125 10.558594-6.679688 15.75-3.550782zm-162.3125-1.664062h115.515625l4 16h-123.515625zm-43.511719 36.425781c1.371094-2.730469 4.105469-4.425781 7.152344-4.425781h188.21875c3.046875 0 5.789062 1.695312 7.160156 4.425781l5.789063 11.574219h-214.109376zm-26.734375 27.574219h256v16h-188c-5.007812 0-9.800781 2.390625-12.800781 6.398438l-19.199219 25.601562h-36zm256 352c0 26.472656-21.527344 48-48 48s-48-21.527344-48-48 21.527344-48 48-48 48 21.527344 48 48zm-48-64c-35.289062 0-64 28.710938-64 64 0 8.488281 1.695312 16.585938 4.710938 24h-94.101563c-12.875 0-23.410156-10.070312-23.976563-22.9375l-12.847656-289.0625h18.214844c5.007812 0 9.800781-2.390625 12.800781-6.398438l19.199219-25.601562h20v48h16v-48h40v48h16v-48h40v48h16v-48h23.640625l-11.527344 259.289062c-6.335937-2.105468-13.082031-3.289062-20.113281-3.289062zm47.65625-256h16.34375v-12.449219c4.726562 2.753907 10.144531 4.449219 16 4.449219 2.367188 0 4.664062-.296875 6.886719-.792969l-40.886719 46zm0 0"/><path d="m296 64h16v16h-16zm0 0"/><path d="m158.0625 304.238281 3.875 15.523438 16.972656-4.242188c-6.878906 12.359375-20 20.480469-34.910156 20.480469-22.054688 0-40-17.945312-40-40s17.945312-40 40-40c14.238281 0 27.511719 7.664062 34.65625 20l13.839844-8.007812c-9.984375-17.265626-28.566406-27.992188-48.496094-27.992188-30.871094 0-56 25.121094-56 56s25.128906 56 56 56c18.816406 0 35.640625-9.214844 45.824219-23.710938l2.414062 9.65625 15.515625-3.882812-9.9375-39.757812zm0 0"/></svg>