<svg height="512pt" viewBox="0 -32 512.001 512" width="512pt" xmlns="http://www.w3.org/2000/svg"><path d="m471.03125 359.652344h-75.695312v-26.664063h69.097656c5.507812 0 10.535156-2.546875 13.796875-6.984375s4.1875-9.996094 2.542969-15.253906l-43.019532-137.449219c-1.234375-3.953125-5.445312-6.15625-9.398437-4.917969-3.953125 1.238282-6.152344 5.445313-4.914063 9.398438l43.019532 137.449219c.277343.890625-.078126 1.566406-.316407 1.890625-.238281.324218-.777343.867187-1.710937.867187h-69.097656v-32.054687l19.671874-19.667969c2.925782-2.929687 2.925782-7.679687 0-10.609375-2.929687-2.925781-7.679687-2.925781-10.609374 0l-9.0625 9.066406v-51.828125c0-4.144531-3.355469-7.5-7.5-7.5-4.140626 0-7.5 3.355469-7.5 7.5v20.359375l-3.113282-3.117187c-2.925781-2.925781-7.675781-2.925781-10.605468 0-2.929688 2.929687-2.929688 7.679687 0 10.605469l13.722656 13.722656v63.523437h-69.101563c-.933593 0-1.472656-.542969-1.707031-.863281-.238281-.324219-.597656-1-.316406-1.890625l76.597656-244.746094c.308594-.988281.992188-1.488281 2.027344-1.488281s1.714844.5 2.023437 1.488281l22.621094 72.269531c1.238281 3.953126 5.445313 6.15625 9.398437 4.917969 3.953126-1.234375 6.152344-5.445312 4.914063-9.398437l-22.617187-72.269532c-2.285157-7.292968-8.699219-12.007812-16.339844-12.007812-7.644532 0-14.058594 4.714844-16.339844 12.007812l-48.148438 153.832032-64.675781-206.640625c-2.511719-8.019531-9.5625-13.199219-17.960937-13.199219-8.402344 0-15.453125 5.183594-17.964844 13.199219l-33.839844 108.132812c-1.238281 3.953125.960938 8.160157 4.914063 9.398438 3.957031 1.234375 8.160156-.964844 9.398437-4.917969l33.84375-108.132812c.757813-2.417969 2.800782-2.679688 3.648438-2.679688.84375 0 2.890625.261719 3.644531 2.679688l71.128906 227.269531-20.554687 65.675781h-46.71875v-39.589844l23.53125-23.53125c2.929687-2.929687 2.929687-7.679687 0-10.605468-2.929688-2.929688-7.679688-2.929688-10.605469 0l-12.925781 12.925781v-64.183594c0-4.144531-3.359375-7.5-7.5-7.5-4.144532 0-7.5 3.355469-7.5 7.5v27.152344l-5.929688-5.925781c-2.925781-2.929688-7.675781-2.929688-10.605468 0-2.925782 2.929687-2.925782 7.675781 0 10.605468l16.535156 16.535156v33.917969.003907 42.695312h-44.710938l-21.714844-69.382812c.359376-.558594.671876-1.160157.878907-1.824219l25.335937-80.945313c1.234375-3.953125-.964844-8.164062-4.917968-9.398437-3.957032-1.238281-8.160157.964843-9.398438 4.917969l-19.601562 62.632812-22.078126-70.535156c-1.910156-6.101563-7.488281-10.199219-13.878906-10.199219-6.394531 0-11.972656 4.097656-13.878906 10.199219l-56.078125 179.171875c-1.398437 4.464843-.609375 9.1875 2.160156 12.957031s7.042969 5.929688 11.71875 5.929688h48.578125v15.503906h-74.660156c-22.589844 0-40.96875 18.378906-40.96875 40.972656v28.523438c0 10.285156 8.371094 18.65625 18.65625 18.65625h93.015625c4.140625 0 7.5-3.355469 7.5-7.5 0-4.144532-3.359375-7.5-7.5-7.5h-93.015625c-2.015625 0-3.65625-1.640626-3.65625-3.65625v-28.523438c0-14.320312 11.648438-25.972656 25.96875-25.972656h430.0625c14.320312 0 25.96875 11.652344 25.96875 25.972656v28.523438c0 2.015624-1.640625 3.65625-3.65625 3.65625h-349.011719c-4.144531 0-7.5 3.355468-7.5 7.5 0 4.144531 3.355469 7.5 7.5 7.5h349.011719c10.289062 0 18.65625-8.371094 18.65625-18.65625v-28.523438c0-22.59375-18.378906-40.972656-40.96875-40.972656zm-173.855469-34.027344c.089844.125.171875.253906.261719.378906 3.261719 4.4375 8.292969 6.984375 13.796875 6.984375h69.101563v26.664063h-132.121094v-34.027344zm-229.503906 3.523438 55.457031-177.1875 55.457032 177.1875h-47.957032v-20.621094l13.8125-13.8125c2.925782-2.929688 2.925782-7.675782 0-10.605469-2.929687-2.929687-7.679687-2.929687-10.605468 0l-3.207032 3.203125v-33.089844c0-4.144531-3.359375-7.5-7.5-7.5s-7.5 3.355469-7.5 7.5v10.261719c-2.914062-1.941406-6.886718-1.628906-9.457031.941406-2.929687 2.929688-2.929687 7.675781 0 10.605469l9.457031 9.457031v43.660157zm62.957031 15h48.574219c4.679687 0 8.949219-2.160157 11.722656-5.929688 2.691407-3.667969 3.496094-8.238281 2.25-12.59375h40.039063v34.027344h-102.585938zm0 0"/><path d="m431.921875 401.980469c0-4.144531-3.359375-7.5-7.5-7.5h-.078125c-4.144531 0-7.460938 3.355469-7.460938 7.5s3.394532 7.5 7.539063 7.5c4.140625 0 7.5-3.355469 7.5-7.5zm0 0"/><path d="m412.308594 409.730469c0-4.144531-3.359375-7.5-7.5-7.5h-.078125c-4.144531 0-7.460938 3.355469-7.460938 7.5 0 4.140625 3.394531 7.5 7.539063 7.5 4.140625 0 7.5-3.359375 7.5-7.5zm0 0"/><path d="m64.761719 394.480469c-4.144531 0-7.460938 3.355469-7.460938 7.5s3.394531 7.5 7.539063 7.5c4.140625 0 7.5-3.355469 7.5-7.5s-3.359375-7.5-7.5-7.5zm0 0"/></svg>